<?xml version="1.0" encoding="utf-8"?>
<!-- Generator: Adobe Illustrator 19.0.1, SVG Export Plug-In . SVG Version: 6.00 Build 0)  -->
<svg version="1.1" id="Слой_1" xmlns="http://www.w3.org/2000/svg" xmlns:xlink="http://www.w3.org/1999/xlink" x="0px" y="0px"
	 viewBox="0 0 56.69 56.69" style="enable-background:new 0 0 56.69 56.69;" xml:space="preserve">
<style type="text/css">
	.st0{fill:#009D74;}
	.st1{fill:#FFFFFF;}
</style>
<path class="st0" d="M28.25,55.28L28.25,55.28c-14.87,0-26.93-12.06-26.93-26.93v0c0-14.87,12.06-26.93,26.93-26.93h0
	c14.87,0,26.93,12.06,26.93,26.93v0C55.18,43.22,43.12,55.28,28.25,55.28z"/>
<g>
	<g>
		<path class="st1" d="M42.83,27.67H13.92c-0.38,0-0.69-0.31-0.69-0.69v-4.25c0-0.38,0.31-0.69,0.69-0.69h28.92
			c0.38,0,0.69,0.31,0.69,0.69v4.25C43.53,27.36,43.21,27.67,42.83,27.67z"/>
		<path class="st1" d="M42.83,28.26H13.92c-0.7,0-1.28-0.57-1.28-1.28v-4.25c0-0.7,0.57-1.28,1.28-1.28h28.92
			c0.7,0,1.28,0.57,1.28,1.28v4.25C44.11,27.68,43.54,28.26,42.83,28.26z M13.92,22.62c-0.06,0-0.1,0.05-0.1,0.1v4.25
			c0,0.06,0.05,0.1,0.1,0.1h28.92c0.06,0,0.1-0.05,0.1-0.1v-4.25c0-0.06-0.05-0.1-0.1-0.1H13.92z"/>
	</g>
	<g>
		<path class="st1" d="M40.85,41.94h-25.2c-0.37,0-0.67-0.3-0.67-0.67V30.94c0-0.37,0.3-0.67,0.67-0.67h25.2
			c0.37,0,0.67,0.3,0.67,0.67v10.33C41.52,41.64,41.22,41.94,40.85,41.94z"/>
		<path class="st1" d="M40.85,42.53h-25.2c-0.69,0-1.26-0.56-1.26-1.26V30.94c0-0.69,0.56-1.26,1.26-1.26h25.2
			c0.69,0,1.26,0.56,1.26,1.26v10.33C42.11,41.96,41.54,42.53,40.85,42.53z M15.65,30.85c-0.05,0-0.09,0.04-0.09,0.09v10.33
			c0,0.05,0.04,0.09,0.09,0.09h25.2c0.05,0,0.09-0.04,0.09-0.09V30.94c0-0.05-0.04-0.09-0.09-0.09H15.65z"/>
	</g>
	<g>
		<line class="st1" x1="28.51" y1="23.43" x2="28.51" y2="41.94"/>
		<rect x="27.68" y="22.79" class="st0" width="1.66" height="19.15"/>
	</g>
	<path class="st1" d="M31.94,22.62l-0.04-1.17c2.39-0.09,4.4-1.52,4.78-3.41c0-0.02,0.39-2.03-0.94-3.35
		c-0.72-0.71-1.82-1.1-2.62-0.92c-1.69,0.36-3.24,3.45-2.92,7.99l-1.17,0.08c-0.34-4.79,1.27-8.66,3.83-9.22
		c1.2-0.26,2.68,0.24,3.69,1.24c1.78,1.76,1.28,4.31,1.26,4.41C37.32,20.72,34.9,22.51,31.94,22.62z"/>
	<path class="st1" d="M25.06,22.62c-2.97-0.11-5.39-1.9-5.88-4.35c-0.02-0.11-0.51-2.66,1.26-4.41c1.01-1,2.49-1.49,3.69-1.24
		c2.56,0.55,4.18,4.43,3.83,9.22l-1.17-0.08c0.32-4.53-1.23-7.62-2.91-7.99c-0.8-0.17-1.9,0.21-2.62,0.92
		c-1.33,1.32-0.94,3.33-0.94,3.35c0.38,1.89,2.39,3.32,4.78,3.41L25.06,22.62z"/>
</g>
</svg>
