<?xml version="1.0" encoding="utf-8"?>
<!-- Generator: Adobe Illustrator 19.0.1, SVG Export Plug-In . SVG Version: 6.00 Build 0)  -->
<svg version="1.1" id="Слой_1" xmlns="http://www.w3.org/2000/svg" xmlns:xlink="http://www.w3.org/1999/xlink" x="0px" y="0px"
	 viewBox="0 0 56.69 56.69" style="enable-background:new 0 0 56.69 56.69;" xml:space="preserve">
<style type="text/css">
	.st0{fill:#458926;}
	.st1{fill:#FFFFFF;}
</style>
<g>
	<path class="st0" d="M28.35,55.28L28.35,55.28c-14.87,0-26.93-12.06-26.93-26.93v0c0-14.87,12.06-26.93,26.93-26.93h0
		c14.87,0,26.93,12.06,26.93,26.93v0C55.28,43.22,43.22,55.28,28.35,55.28z"/>
	<path class="st1" d="M44.27,27.71c0,9.04-7.33,16.36-16.36,16.36c-9.04,0-16.36-7.33-16.36-16.36c0-0.37,0.01-0.73,0.04-1.09
		l9.91,5.7l20.98-12.07C43.62,22.48,44.27,25.02,44.27,27.71z M21.49,28.2l-9.22-5.3c-0.18,0.59-0.33,1.19-0.44,1.8l9.67,5.56
		l20.08-11.55c-0.33-0.5-0.69-0.98-1.07-1.44L21.49,28.2z M39.25,15.92c-0.45-0.44-0.93-0.85-1.44-1.23l-16.33,9.39l-7.8-4.48
		c-0.29,0.52-0.56,1.05-0.8,1.6l8.6,4.94L39.25,15.92z M21.49,22.02l14.68-8.44c-0.61-0.36-1.25-0.68-1.91-0.96l-12.77,7.34
		L15.8,16.7c-0.41,0.45-0.79,0.91-1.14,1.4L21.49,22.02z"/>
</g>
</svg>
