<?xml version="1.0" encoding="utf-8"?>
<!-- Generator: Adobe Illustrator 19.0.1, SVG Export Plug-In . SVG Version: 6.00 Build 0)  -->
<svg version="1.1" id="Слой_1" xmlns="http://www.w3.org/2000/svg" xmlns:xlink="http://www.w3.org/1999/xlink" x="0px" y="0px"
	 viewBox="-269 392.2 56.69 56.69" style="enable-background:new -269 392.2 56.69 56.69;" xml:space="preserve">
<style type="text/css">
	.st0{fill:#52A2AA;}
	.st1{fill-rule:evenodd;clip-rule:evenodd;fill:#FBFDFC;stroke:#FFFFFF;stroke-width:0.5;stroke-miterlimit:10;}
</style>
<path class="st0" d="M-240.65,447.48L-240.65,447.48c-14.87,0-26.93-12.06-26.93-26.93l0,0c0-14.87,12.06-26.93,26.93-26.93l0,0
	c14.87,0,26.93,12.06,26.93,26.93l0,0C-213.73,435.42-225.79,447.48-240.65,447.48z"/>
<g>
	<path class="st1" d="M-232.95,420.03c0-0.42-0.01-9.65-0.24-10.21l-0.15-0.04c-0.34-0.05-0.25-0.05-0.37,0.07
		c-0.22,0.2-0.14,1.27-0.11,1.56c0.01,0.24,0.16,6.17,0.09,6.35c-0.11,0.27,0.11-0.02-0.16,0.21c-0.62-1.21-1.62-2.15-2.03-2.8
		c-0.26-0.41-0.35-0.62-0.62-0.96c-0.98-1.22-1-1.93-1.63-3.19c-0.24-0.49-0.17-1.23-1.07-1.36c-0.76-0.1-0.36,0.56-0.36,1.89
		c-0.01,3.15-0.01,6.43,0.1,9.56c0.04,1.1-0.12,6.77,0.15,7.06c0.15,0.16,1.11,0.31,1.07-1.01c-0.01-0.47-0.15-0.9-0.24-1.37
		c-0.07-0.44-0.09-0.96-0.14-1.43c-0.1-1.02-0.37-11.82-0.19-12.42l0.05-0.12c0.25,0.15,0.39,0.57,0.51,0.85l1.38,2.54
		c0.58,0.95,2.71,4.11,3.05,4.85c0.25,0.57,0.15,1.69,0.16,2.44c0.04,1.07,0.44,3.95,0.09,4.83c-0.16,0.44-0.27,0.91,0.21,0.96
		c0.52,0.05,0.66-0.21,0.7-0.67c0.06-0.9-0.04-1.72-0.14-2.53C-233.01,423.54-232.95,421.64-232.95,420.03L-232.95,420.03z"/>
	<path class="st1" d="M-227.54,421.87c-0.47,0.81-0.2,3.78,0.12,4.72c0.4,1.17,1.61,2.24,3.32,1.94c1.13-0.2,2.14-1.82,2.24-3.11
		c0.06-0.81,0.09-1.78,0.01-2.54c-0.12-1.16-0.29-1.17-0.75-1.98c-1.38-2.46-3.63-4.52-3.73-7.01c-0.04-0.85-0.09-1.56,0.19-2.29
		c0.16-0.45,0.86-1.36,1.34-1.34c0.57,0.01,1.15,0.86,1.42,1.28c0.62,0.97,0.11,1.64,0.31,2.24c0.27,0.07,0.37,0.11,0.66,0.02
		c0.1-0.19,0.09-0.41,0.09-0.63c-0.01-0.21,0-0.45-0.02-0.66c-0.1-0.85-0.65-2.24-1.39-2.65c-0.56-0.3-1.61-0.37-2.24-0.12
		c-0.52,0.2-0.93,0.91-1.18,1.49c-1.58,3.65,0.58,5.44,2.07,7.58c0.58,0.85,1.46,2.36,1.79,3.55c0.4,1.38,0.41,3.36-0.32,4.53
		c-0.21,0.35-1.13,1-1.74,0.72c-1.13-0.51-1.59-2.48-1.72-3.66C-227.21,422.67-226.57,421.8-227.54,421.87L-227.54,421.87z"/>
	<path class="st1" d="M-259.45,423.97l0.02-1.34c0.17-1.23-0.87-0.66-0.96-0.54c-0.41,0.58,0.25,2.35,0.3,2.97
		c0.12,1.57,0.54,2.55,1.59,3.14c1.39,0.76,2.6,0.39,3.35-0.57c0.85-1.11,0.98-2.13,0.98-3.87c-0.02-5.17-5.41-6.19-5.4-10.8
		c0-0.93,0.15-1.44,0.7-1.88c0.42-0.34,1.13-0.81,1.95-0.68c1.13,0.17,1.29,1.34,1.56,2.4l0.25,1c0.01,0.01,0.01,0.04,0.02,0.05
		c0.34,0.01,0.36,0.05,0.41-0.29c0.01-0.1-0.01-0.55-0.02-0.67c-0.36-3.91-3.36-4.02-4.93-2.05c-1.44,1.8-1.03,2.83,0.01,4.77
		c0.77,1.43,0.54,1.03,1.62,2.48c0.82,1.08,1.31,2.04,1.97,3.35c0.62,1.26,1.23,2.59,0.92,4.41
		C-255.59,428.66-259.46,429.67-259.45,423.97L-259.45,423.97z"/>
	<path class="st1" d="M-248.83,413.32c0-0.65,0.04-1.22,0.04-1.9c0-1.34-0.12-1.21,0.65-1.21c0.62-0.01,1.37-0.06,1.98,0
		c0.6,0.06,1.1,0.26,1.72,0.07l-0.02-0.36c-0.5-0.24-2.29-0.09-2.94-0.07c-2.33,0.09-2.91-0.6-2.19,2.38
		c0.17,0.68,0.11,1.88,0.11,2.69l-0.09,2.49c-0.06,1.74,0,5.04,0.01,6.78c0,0.85,0.1,1.69,0.07,2.48c-0.06,1.95-0.5,1.63,4.29,1.49
		c0.04-1.13-2.39-0.49-3.21-0.58c-0.21-0.34-0.37-1.58-0.39-2.14c0-0.9,0.1-1.66,0.1-2.49c0.01-0.56-0.29-3.8,0.09-4.18
		c0.34-0.32,1.99,0.07,2.44-0.17c-0.1-0.29-0.21-0.29-0.58-0.34c-0.51-0.06-1.93-0.19-2.15-0.31
		C-248.93,416.3-248.83,414.9-248.83,413.32L-248.83,413.32z"/>
	<path class="st1" d="M-259.21,431.02c0.45,0.21,1.72,0.1,2.29,0.05c2.99-0.27,8.66,0.12,12.06,0.12c1.57,0,3.42,0.07,4.95-0.04
		c1.59-0.1,3.35-0.05,4.98-0.07c3.14-0.04,6.55-0.02,9.65,0.32c1.85,0.21,2.85,0.12,4.53-0.26c-0.09-0.3-0.1-0.3-0.26-0.5
		c-1.49-0.01-3.16,0.14-4.72,0.14s-3.21-0.05-4.82-0.07C-234.54,430.62-258.48,430.57-259.21,431.02L-259.21,431.02z"/>
</g>
</svg>
