<?xml version="1.0" encoding="UTF-8" standalone="no"?><!-- Generator: Gravit.io --><svg xmlns="http://www.w3.org/2000/svg" xmlns:xlink="http://www.w3.org/1999/xlink" style="isolation:isolate" viewBox="0 0 20 20" width="20px" height="20px"><defs><clipPath id="_clipPath_5gNU3uxGXOFPMdYdw1MfuFz7TcmtfPql"><rect width="32" height="32"/></clipPath></defs><g clip-path="url(#_clipPath_5gNU3uxGXOFPMdYdw1MfuFz7TcmtfPql)"><g><g><g><path d=" M 27.468 11.446 L 27.468 4.706 L 21.894 4.706 L 21.894 7.158 L 16 2.624 L 0 14.932 L 3.352 19.29 L 4.993 18.027 L 4.993 29.376 L 14.463 29.376 L 14.463 21.061 L 17.91 21.061 L 17.91 29.376 L 27.007 29.376 L 27.007 18.027 L 28.648 19.29 L 32 14.933 L 27.468 11.446 Z  M 25.13 27.499 L 19.787 27.499 L 19.787 19.184 L 12.586 19.184 L 12.586 27.499 L 6.871 27.499 L 6.871 16.583 L 16 9.56 L 25.129 16.583 L 25.129 27.499 L 25.13 27.499 Z  M 28.305 16.657 L 16 7.192 L 3.695 16.657 L 2.632 15.276 L 16 4.992 L 23.771 10.97 L 23.771 6.583 L 25.59 6.583 L 25.59 12.37 L 29.367 15.276 L 28.305 16.657 Z " fill="rgb(149,141,255)"/></g></g></g></g></svg>
