<?xml version="1.0" encoding="UTF-8" standalone="no"?><!-- Generator: Gravit.io --><svg xmlns="http://www.w3.org/2000/svg" xmlns:xlink="http://www.w3.org/1999/xlink" style="isolation:isolate" viewBox="0 0 32 32" width="32px" height="32px"><defs><clipPath id="_clipPath_VaeLpsTej7ProYPBghKDSOYW5v5LWWMG"><rect width="32" height="32"/></clipPath></defs><g clip-path="url(#_clipPath_VaeLpsTej7ProYPBghKDSOYW5v5LWWMG)"><g><path d=" M 31.499 6.586 C 31.07 6.055 30.432 5.75 29.749 5.75 L 5.359 5.75 L 5.141 4.189 C 4.986 3.084 4.028 2.25 2.912 2.25 L 1 2.25 C 0.448 2.25 0 2.698 0 3.25 C 0 3.802 0.448 4.25 1 4.25 L 2.912 4.25 C 3.036 4.25 3.143 4.343 3.16 4.466 L 5.859 23.811 C 6.013 24.916 6.971 25.75 8.088 25.75 L 9.172 25.75 C 9.061 26.063 9 26.399 9 26.75 C 9 28.404 10.346 29.75 12 29.75 C 13.654 29.75 15 28.404 15 26.75 C 15 26.399 14.939 26.063 14.828 25.75 L 20.172 25.75 C 20.061 26.063 20 26.399 20 26.75 C 20 28.404 21.346 29.75 23 29.75 C 24.654 29.75 26 28.404 26 26.75 C 26 26.399 25.939 26.063 25.828 25.75 L 28 25.75 C 28.552 25.75 29 25.302 29 24.75 C 29 24.198 28.552 23.75 28 23.75 L 8.088 23.75 C 7.964 23.75 7.857 23.657 7.84 23.535 L 7.591 21.75 L 27.285 21.75 C 28.338 21.75 29.264 21.002 29.485 19.971 L 31.949 8.472 C 32.093 7.804 31.929 7.117 31.499 6.586 L 31.499 6.586 Z  M 13 26.75 C 13 27.301 12.551 27.75 12 27.75 C 11.449 27.75 11 27.301 11 26.75 C 11 26.199 11.449 25.75 12 25.75 C 12.551 25.75 13 26.198 13 26.75 Z  M 24 26.75 C 24 27.301 23.551 27.75 23 27.75 C 22.448 27.75 22 27.301 22 26.75 C 22 26.199 22.448 25.75 23 25.75 C 23.551 25.75 24 26.198 24 26.75 Z  M 29.994 8.052 L 27.53 19.552 C 27.505 19.667 27.402 19.75 27.285 19.75 L 7.312 19.75 L 5.638 7.75 L 29.749 7.75 C 29.848 7.75 29.91 7.8 29.944 7.843 C 29.978 7.885 30.015 7.956 29.994 8.052 L 29.994 8.052 Z " fill="rgb(255,141,0)"/></g></g></svg>
