<?xml version="1.0" encoding="UTF-8" standalone="no"?><!-- Generator: Gravit.io --><svg xmlns="http://www.w3.org/2000/svg" xmlns:xlink="http://www.w3.org/1999/xlink" style="isolation:isolate" viewBox="0 0 25 25" width="25px" height="25px"><defs><clipPath id="_clipPath_XlMP4zz17kFKwaBkWdY6csPd60qKmsBk"><rect width="25" height="25"/></clipPath></defs><g clip-path="url(#_clipPath_XlMP4zz17kFKwaBkWdY6csPd60qKmsBk)"><clipPath id="_clipPath_XBD0C799L4APR3kb2HL3ZVI0SVD7Rtxl"><rect x="0" y="0" width="25" height="25" transform="matrix(1,0,0,1,0,0)" fill="rgb(255,255,255)"/></clipPath><g clip-path="url(#_clipPath_XBD0C799L4APR3kb2HL3ZVI0SVD7Rtxl)"><g><g><path d=" M 6.613 0 C 3.247 0 0.731 4.378 0.731 8.293 C 0.731 11.066 1.966 13.023 4.405 14.116 L 4.173 24.251 C 4.163 24.66 4.491 25 4.905 25 C 5.302 25 5.627 24.683 5.637 24.284 L 5.881 13.648 C 5.888 13.337 5.698 13.055 5.408 12.945 C 3.216 12.116 2.196 10.638 2.196 8.293 C 2.196 -0.627 11.031 -0.552 11.031 8.293 C 11.031 10.638 10.011 12.116 7.819 12.945 C 7.529 13.055 7.339 13.337 7.346 13.648 L 7.591 24.284 C 7.599 24.683 7.926 25 8.322 25 C 8.736 25 9.064 24.659 9.055 24.251 L 8.822 14.116 C 11.261 13.023 12.496 11.066 12.496 8.293 C 12.496 4.378 9.98 0 6.613 0 Z " fill="rgb(255,141,0)"/><path d=" M 23.537 0.052 C 23.132 0.052 22.804 0.38 22.804 0.785 L 22.804 8.789 L 21.339 8.789 L 21.339 0.733 C 21.339 0.328 21.011 0 20.607 0 C 20.202 0 19.874 0.328 19.874 0.733 L 19.874 8.789 L 18.409 8.789 L 18.409 0.733 C 18.409 0.328 18.081 0 17.677 0 C 17.273 0 16.945 0.328 16.945 0.733 L 16.945 8.789 L 15.475 8.789 L 15.475 0.785 C 15.475 0.38 15.147 0.052 14.742 0.052 C 14.338 0.052 14.01 0.38 14.01 0.785 L 14.01 9.521 C 14.01 11.511 15.165 13.31 16.933 14.153 C 16.611 27.948 16.725 23.16 16.698 24.202 C 16.688 24.616 17.023 24.952 17.43 24.952 C 17.823 24.952 18.153 24.638 18.163 24.236 C 18.163 24.236 18.163 24.236 18.163 24.236 C 18.163 24.236 18.163 24.236 18.163 24.235 C 18.163 24.235 18.163 24.235 18.163 24.234 L 18.163 24.234 C 18.163 24.198 18.18 23.497 18.409 13.686 C 18.416 13.369 18.22 13.084 17.92 12.978 C 16.693 12.545 15.803 11.497 15.549 10.254 L 22.73 10.254 C 22.476 11.496 21.588 12.544 20.362 12.977 C 20.064 13.082 19.867 13.366 19.873 13.681 C 19.897 14.984 20.043 22.921 20.067 24.233 C 20.075 24.641 20.415 24.96 20.813 24.952 C 21.21 24.942 21.541 24.642 21.53 24.135 L 21.347 14.152 C 23.114 13.309 24.269 11.51 24.269 9.521 L 24.269 0.785 C 24.269 0.38 23.941 0.052 23.537 0.052 L 23.537 0.052 Z " fill="rgb(255,141,0)"/></g></g></g></g></svg>
