<?xml version="1.0" encoding="UTF-8" standalone="no"?><!-- Generator: Gravit.io --><svg xmlns="http://www.w3.org/2000/svg" xmlns:xlink="http://www.w3.org/1999/xlink" style="isolation:isolate" viewBox="0 0 25 25" width="25px" height="25px"><defs><clipPath id="_clipPath_9ovMTR0zvgCWSTnHAiyK9BCjqWkDfUmv"><rect width="25" height="25"/></clipPath></defs><g clip-path="url(#_clipPath_9ovMTR0zvgCWSTnHAiyK9BCjqWkDfUmv)"><clipPath id="_clipPath_1ApOScCnZHI8DpXMF3UijpXopRQJAqs4"><rect x="0" y="0" width="25" height="25" transform="matrix(1,0,0,1,0,0)" fill="rgb(255,255,255)"/></clipPath><g clip-path="url(#_clipPath_1ApOScCnZHI8DpXMF3UijpXopRQJAqs4)"><g><g><path d=" M 17.969 24.056 L 2.865 24.056 C 1.284 24.056 0 22.772 0 21.191 L 0 12.338 C 0 10.757 1.284 9.473 2.865 9.473 L 17.969 9.473 C 19.549 9.473 20.834 10.757 20.834 12.338 L 20.834 21.191 C 20.834 22.772 19.549 24.056 17.969 24.056 Z  M 2.865 11.035 C 2.147 11.035 1.563 11.62 1.563 12.338 L 1.563 21.191 C 1.563 21.909 2.147 22.494 2.865 22.494 L 17.969 22.494 C 18.687 22.494 19.271 21.909 19.271 21.191 L 19.271 12.338 C 19.271 11.62 18.687 11.035 17.969 11.035 L 2.865 11.035 Z " fill="rgb(255,141,0)"/><path d=" M 6.51 17.806 L 4.948 17.806 C 3.943 17.806 3.125 16.988 3.125 15.983 L 3.125 14.42 C 3.125 13.416 3.943 12.598 4.948 12.598 L 6.51 12.598 C 7.516 12.598 8.334 13.416 8.334 14.42 L 8.334 15.983 C 8.334 16.988 7.516 17.806 6.51 17.806 Z  M 4.948 14.16 C 4.804 14.16 4.688 14.277 4.688 14.42 L 4.688 15.983 C 4.688 16.127 4.804 16.244 4.948 16.244 L 6.51 16.244 C 6.654 16.244 6.771 16.127 6.771 15.983 L 6.771 14.42 C 6.771 14.277 6.654 14.16 6.51 14.16 L 4.948 14.16 Z " fill="rgb(255,141,0)"/><path d=" M 16.927 20.931 L 3.906 20.931 C 3.475 20.931 3.125 20.581 3.125 20.15 C 3.125 19.719 3.475 19.369 3.906 19.369 L 16.927 19.369 C 17.359 19.369 17.709 19.719 17.709 20.15 C 17.709 20.581 17.359 20.931 16.927 20.931 Z " fill="rgb(255,141,0)"/><path d=" M 23.698 6.869 L 5.469 6.869 C 5.038 6.869 4.688 6.519 4.688 6.087 C 4.688 5.656 5.038 5.306 5.469 5.306 L 23.698 5.306 C 24.129 5.306 24.479 5.656 24.479 6.087 C 24.479 6.519 24.129 6.869 23.698 6.869 Z " fill="rgb(255,141,0)"/><path d=" M 23.177 15.431 C 22.905 15.431 22.641 15.288 22.497 15.035 C 22.284 14.66 22.416 14.183 22.791 13.97 C 23.195 13.741 23.437 13.325 23.437 12.858 L 23.437 4.004 C 23.437 3.286 22.852 2.702 22.134 2.702 L 7.031 2.702 C 6.313 2.702 5.729 3.286 5.729 4.004 L 5.729 7.129 C 5.729 7.56 5.379 7.91 4.948 7.91 C 4.516 7.91 4.166 7.56 4.166 7.129 L 4.166 4.004 C 4.166 2.423 5.451 1.139 7.031 1.139 L 22.135 1.139 C 23.716 1.139 25 2.423 25 4.004 L 25 12.858 C 25 13.88 24.449 14.827 23.563 15.33 C 23.441 15.398 23.309 15.431 23.177 15.431 Z " fill="rgb(255,141,0)"/></g></g></g></g></svg>
