<?xml version="1.0" encoding="UTF-8" standalone="no"?><!-- Generator: Gravit.io --><svg xmlns="http://www.w3.org/2000/svg" xmlns:xlink="http://www.w3.org/1999/xlink" style="isolation:isolate" viewBox="0 0 25 25" width="25px" height="25px"><defs><clipPath id="_clipPath_y55hlDSsN22HTYStRlxi1VhgCDUNNSoL"><rect width="25" height="25"/></clipPath></defs><g clip-path="url(#_clipPath_y55hlDSsN22HTYStRlxi1VhgCDUNNSoL)"><clipPath id="_clipPath_4tgzgeRJpYFUzptzrru6lXumkEpHhYGK"><rect x="0" y="0" width="25" height="25" transform="matrix(1,0,0,1,0,0)" fill="rgb(255,255,255)"/></clipPath><g clip-path="url(#_clipPath_4tgzgeRJpYFUzptzrru6lXumkEpHhYGK)"><g><g><g><g><path d=" M 21.65 12.671 L 23.068 11.253 C 25.644 8.677 25.644 4.508 23.068 1.932 C 20.492 -0.644 16.323 -0.645 13.747 1.932 C 13.197 2.482 2.43 13.248 1.932 13.747 C -0.644 16.323 -0.644 20.492 1.932 23.068 C 4.508 25.644 8.677 25.645 11.253 23.068 L 12.671 21.65 C 13.805 23.648 15.952 24.998 18.408 24.998 C 22.041 24.998 24.998 22.041 24.998 18.408 C 24.998 15.951 23.648 13.805 21.65 12.671 Z  M 11.816 18.408 C 11.816 19.024 11.902 19.622 12.061 20.188 L 10.217 22.032 C 8.214 24.036 4.971 24.036 2.968 22.032 C 0.964 20.029 0.964 16.786 2.968 14.783 L 8.313 9.438 L 13.22 14.345 C 12.341 15.466 11.816 16.877 11.816 18.408 Z  M 17.675 23.481 C 15.194 23.125 13.281 20.985 13.281 18.408 C 13.281 15.83 15.194 13.69 17.675 13.334 L 17.675 23.481 L 17.675 23.481 Z  M 14.246 13.3 L 9.348 8.402 L 14.783 2.968 C 16.786 0.964 20.029 0.964 22.032 2.968 C 24.036 4.971 24.036 8.214 22.032 10.217 L 20.188 12.061 C 19.622 11.902 19.024 11.816 18.408 11.816 C 16.83 11.816 15.382 12.373 14.246 13.3 Z  M 19.14 23.481 L 19.14 13.334 C 21.621 13.69 23.534 15.83 23.534 18.408 C 23.534 20.985 21.621 23.125 19.14 23.481 Z " fill="rgb(236,50,50)"/></g></g></g></g></g></g></svg>
