<?xml version="1.0" encoding="UTF-8" standalone="no"?><!-- Generator: Gravit.io --><svg xmlns="http://www.w3.org/2000/svg" xmlns:xlink="http://www.w3.org/1999/xlink" style="isolation:isolate" viewBox="0 0 32 32" width="32px" height="32px"><defs><clipPath id="_clipPath_2M90eQgK41m4k9mo3oFdBDF0nYdvBsik"><rect width="32" height="32"/></clipPath></defs><g clip-path="url(#_clipPath_2M90eQgK41m4k9mo3oFdBDF0nYdvBsik)"><g><g><g><path d=" M 31 0 L 21 0 C 20.448 0 20 0.448 20 1 L 20 31 C 20 31.552 20.448 32 21 32 L 31 32 C 31.552 32 32 31.552 32 31 L 32 1 C 32 0.448 31.552 0 31 0 Z  M 30 30 L 22 30 L 22 2 L 30 2 L 30 30 Z " fill="rgb(108,108,108)"/></g></g><g><g><path d=" M 21 30 L 12 30 L 12 12 L 21 12 C 21.552 12 22 11.552 22 11 C 22 10.448 21.552 10 21 10 L 11 10 C 10.448 10 10 10.448 10 11 L 10 31 C 10 31.552 10.448 32 11 32 L 21 32 C 21.552 32 22 31.552 22 31 C 22 30.448 21.552 30 21 30 Z " fill="rgb(108,108,108)"/></g></g><g><g><path d=" M 11 30 L 2 30 L 2 22 L 11 22 C 11.552 22 12 21.552 12 21 C 12 20.448 11.552 20 11 20 L 1 20 C 0.448 20 0 20.448 0 21 L 0 31 C 0 31.552 0.448 32 1 32 L 11 32 C 11.552 32 12 31.552 12 31 C 12 30.448 11.552 30 11 30 Z " fill="rgb(108,108,108)"/></g></g></g></g></svg>
