<?xml version="1.0" encoding="UTF-8" standalone="no"?><!-- Generator: Gravit.io --><svg xmlns="http://www.w3.org/2000/svg" xmlns:xlink="http://www.w3.org/1999/xlink" style="isolation:isolate" viewBox="0 0 568.431 591.253" width="568.431pt" height="591.253pt"><defs><clipPath id="_clipPath_6UCurEx5x8ZyoYi4pzyTgkyokDzutApt"><rect width="568.431" height="591.253"/></clipPath></defs><g clip-path="url(#_clipPath_6UCurEx5x8ZyoYi4pzyTgkyokDzutApt)"><path d=" M 437.397 520.425 L 566.931 51.23 L 388.417 11.99 L 268.438 1.5 L 110.608 22.875 L 1.5 60.107 L 68.209 326.988 L 67.072 395.05 L 81.619 390.085 L 87.217 493.747 L 109.038 486.3 L 120.622 520.245 L 88.274 528.576 L 92.526 556.902 L 181.582 548.167 L 187.489 581.342 L 256.321 576.803 L 258.033 589.753 L 306.64 589.408 L 306.64 576.803 L 376.242 579.191 L 378.436 545.959 L 497.588 554.025 L 502.264 528.066 L 437.397 520.425 Z " fill="none" vector-effect="non-scaling-stroke" stroke-width="1" stroke="rgb(0,0,0)" stroke-linejoin="miter" stroke-linecap="square" stroke-miterlimit="3"/><path d=" M 25.496 155.753 L 192.496 105.753 L 177.496 41.753 L 119.496 60.107 L 110.608 22.875 L 1.5 60.107 L 25.496 155.753 Z " fill="rgb(176,147,240)" fill-opacity="0.5" vector-effect="non-scaling-stroke" stroke-width="1" stroke="rgb(0,0,0)" stroke-linejoin="miter" stroke-linecap="square" stroke-miterlimit="3"/><path d=" M 181.582 393.753 L 185.496 411.753 L 202.496 406.753 L 202.496 388.753 L 181.582 393.753 Z " fill="rgb(242,249,202)" fill-opacity="0.5" vector-effect="non-scaling-stroke" stroke-width="1" stroke="rgb(0,0,0)" stroke-linejoin="miter" stroke-linecap="square" stroke-miterlimit="3"/><path d=" M 59.496 197.753 Q 59.308 198.769 66.496 225.753 L 88.274 219.753 L 81.619 191.753 Q 59.683 196.737 59.496 197.753 Z " fill="rgb(255,255,255)" fill-opacity="0.5" vector-effect="non-scaling-stroke" stroke-width="1" stroke="rgb(0,0,0)" stroke-linejoin="miter" stroke-linecap="square" stroke-miterlimit="3"/><path d=" M 69.496 236.753 L 75.496 262.753 L 97.496 256.753 L 90.496 230.753 L 69.496 236.753 Z " fill="rgb(255,255,255)" fill-opacity="0.5" vector-effect="non-scaling-stroke" stroke-width="1" stroke="rgb(0,0,0)" stroke-linejoin="miter" stroke-linecap="square" stroke-miterlimit="3"/><path d=" M 389.496 378.753 L 436.496 392.753 L 431.496 411.753 L 464.496 421.753 L 541.496 142.753 L 501.496 130.753 L 474.496 243.753 L 426.496 229.753 L 389.496 378.753 Z " fill="rgb(164,236,69)" fill-opacity="0.5" vector-effect="non-scaling-stroke" stroke-width="1" stroke="rgb(0,0,0)" stroke-linejoin="miter" stroke-linecap="square" stroke-miterlimit="3"/><path d=" M 383.496 443.753 L 394.496 401.753 L 438.496 413.753 L 426.496 455.753 L 383.496 443.753 Z " fill="rgb(234,233,203)" vector-effect="non-scaling-stroke" stroke-width="1" stroke="rgb(0,0,0)" stroke-linejoin="miter" stroke-linecap="square" stroke-miterlimit="3"/><g style="isolation:isolate"><line x1="473.496" y1="77.753" x2="561.496" y2="77.753" vector-effect="non-scaling-stroke" stroke-width="1" stroke="rgb(0,0,0)" stroke-linejoin="miter" stroke-linecap="square" stroke-miterlimit="3"/><line x1="120.622" y1="520.425" x2="207.496" y2="520.425" vector-effect="non-scaling-stroke" stroke-width="1" stroke="rgb(0,0,0)" stroke-linejoin="miter" stroke-linecap="square" stroke-miterlimit="3"/><line x1="111.496" y1="493.747" x2="218.496" y2="461.753" vector-effect="non-scaling-stroke" stroke-width="1" stroke="rgb(0,0,0)" stroke-linejoin="miter" stroke-linecap="square" stroke-miterlimit="3"/><line x1="365.496" y1="515.753" x2="437.397" y2="520.245" vector-effect="non-scaling-stroke" stroke-width="1" stroke="rgb(0,0,0)" stroke-linejoin="miter" stroke-linecap="square" stroke-miterlimit="3"/><path d=" M 97.496 270.753 L 99.496 275.753 L 190.496 249.753 L 188.496 244.753 L 97.496 270.753 Z " fill="rgb(255,255,255)" fill-opacity="0.5" vector-effect="non-scaling-stroke" stroke-width="1" stroke="rgb(0,0,0)" stroke-linejoin="miter" stroke-linecap="square" stroke-miterlimit="3"/></g><g style="isolation:isolate"><path d=" M 81.619 191.753 L 96.496 253.753 L 117.496 247.753 L 101.496 186.753 L 81.619 191.753 Z " fill="rgb(255,0,0)" fill-opacity="0.5" vector-effect="non-scaling-stroke" stroke-width="1" stroke="rgb(0,0,0)" stroke-linejoin="miter" stroke-linecap="square" stroke-miterlimit="3"/><path d=" M 133.496 494.753 L 138.496 515.753 L 202.496 496.753 L 196.496 475.753 L 133.496 494.753 Z " fill="rgb(255,0,0)" fill-opacity="0.5" vector-effect="non-scaling-stroke" stroke-width="1" stroke="rgb(0,0,0)" stroke-linejoin="miter" stroke-linecap="square" stroke-miterlimit="3"/><path d=" M 97.496 433.753 L 109.038 481.753 L 133.496 475.753 L 120.622 427.753 L 97.496 433.753 Z " fill="rgb(255,0,0)" fill-opacity="0.5" vector-effect="non-scaling-stroke" stroke-width="1" stroke="rgb(0,0,0)" stroke-linejoin="miter" stroke-linecap="square" stroke-miterlimit="3"/><path d=" M 329.496 502.753 L 365.496 514.753 L 383.496 443.753 L 347.496 433.753 L 329.496 502.753 Z " fill="rgb(255,0,0)" fill-opacity="0.5" vector-effect="non-scaling-stroke" stroke-width="1" stroke="rgb(0,0,0)" stroke-linejoin="miter" stroke-linecap="square" stroke-miterlimit="3"/><path d=" M 169.496 348.753 L 181.582 393.753 L 202.496 388.753 L 199.496 338.753 L 169.496 348.753 Z " fill="rgb(255,0,0)" fill-opacity="0.54" vector-effect="non-scaling-stroke" stroke-width="1" stroke="rgb(0,0,0)" stroke-linejoin="miter" stroke-linecap="square" stroke-miterlimit="3"/><path d=" M 221.496 253.753 L 221.496 312.753 L 230.496 312.753 L 230.496 253.753 L 221.496 253.753 Z " fill="rgb(5,57,50)" fill-opacity="0.5" vector-effect="non-scaling-stroke" stroke-width="1" stroke="rgb(0,0,0)" stroke-linejoin="miter" stroke-linecap="square" stroke-miterlimit="3"/><path d=" M 430.496 98.753 L 441.496 46.753 L 478.496 57.753 L 473.496 77.753 L 461.496 87.753 L 457.496 106.753 L 430.496 99.753" fill="rgb(255,0,0)" fill-opacity="0.5" vector-effect="non-scaling-stroke" stroke-width="1" stroke="rgb(0,0,0)" stroke-linejoin="miter" stroke-linecap="square" stroke-miterlimit="3"/></g><g style="isolation:isolate"><path d=" M 440.496 173.753 L 426.496 229.753 L 451.496 236.753 L 465.496 180.753 L 440.496 173.753 Z " fill="rgb(188,193,230)" fill-opacity="0.5" vector-effect="non-scaling-stroke" stroke-width="1" stroke="rgb(0,0,0)" stroke-linejoin="miter" stroke-linecap="square" stroke-miterlimit="3"/><path d=" M 186.496 230.753 L 169.496 166.753 L 124.496 179.753 L 141.496 243.753 L 186.496 230.753 Z " fill="rgb(188,193,230)" fill-opacity="0.5" vector-effect="non-scaling-stroke" stroke-width="1" stroke="rgb(0,0,0)" stroke-linejoin="miter" stroke-linecap="square" stroke-miterlimit="3"/></g><g style="isolation:isolate"><path d=" M 465.496 180.753 L 488.496 186.753 L 474.496 243.753 L 451.496 236.753 L 465.496 180.753 Z " fill="rgb(5,57,50)" fill-opacity="0.5" vector-effect="non-scaling-stroke" stroke-width="1" stroke="rgb(0,0,0)" stroke-linejoin="miter" stroke-linecap="square" stroke-miterlimit="3"/><path d=" M 101.496 186.753 L 124.496 180.753 L 140.496 240.753 L 117.496 247.753 L 101.496 186.753 Z " fill="rgb(5,57,50)" fill-opacity="0.5" vector-effect="non-scaling-stroke" stroke-width="1" stroke="rgb(0,0,0)" stroke-linejoin="miter" stroke-linecap="square" stroke-miterlimit="3"/><path d=" M 124.496 365.753 L 138.496 422.753 L 184.496 408.753 L 169.496 352.753 L 124.496 365.753 Z " fill="rgb(5,57,50)" fill-opacity="0.5" vector-effect="non-scaling-stroke" stroke-width="1" stroke="rgb(0,0,0)" stroke-linejoin="miter" stroke-linecap="square" stroke-miterlimit="3"/><path d=" M 207.496 520.245 L 241.496 515.753 L 235.496 494.753 L 212.496 494.753 L 201.496 497.753 L 207.496 520.245 Z " fill="rgb(5,57,50)" fill-opacity="0.5" vector-effect="non-scaling-stroke" stroke-width="1" stroke="rgb(0,0,0)" stroke-linejoin="miter" stroke-linecap="square" stroke-miterlimit="3"/><path d=" M 389.496 378.753 L 384.496 398.753 L 431.496 411.753 L 436.496 392.753 L 389.496 378.753 Z " fill="rgb(5,57,50)" fill-opacity="0.5" vector-effect="non-scaling-stroke" stroke-width="1" stroke="rgb(0,0,0)" stroke-linejoin="miter" stroke-linecap="square" stroke-miterlimit="3"/></g></g></svg>