<?xml version="1.0" encoding="UTF-8" standalone="no"?><!-- Generator: Gravit.io --><svg xmlns="http://www.w3.org/2000/svg" xmlns:xlink="http://www.w3.org/1999/xlink" style="isolation:isolate" viewBox="0 0 20 20" width="20px" height="20px"><defs><clipPath id="_clipPath_6jDsSCqdLsk49LzZZmqXU0LNtE9dDQyR"><rect width="20" height="20"/></clipPath></defs><g clip-path="url(#_clipPath_6jDsSCqdLsk49LzZZmqXU0LNtE9dDQyR)"><g><g><g><g><path d=" M 9.694 13.407 C 9.122 13.407 8.659 13.884 8.659 14.455 C 8.659 15.014 9.108 15.504 9.694 15.504 C 10.279 15.504 10.742 15.014 10.742 14.455 C 10.742 13.884 10.266 13.407 9.694 13.407 Z " fill="rgb(232,76,120)"/><path d=" M 9.871 5.469 C 8.033 5.469 7.188 6.558 7.188 7.293 C 7.188 7.824 7.638 8.069 8.005 8.069 C 8.741 8.069 8.441 7.021 9.83 7.021 C 10.511 7.021 11.055 7.321 11.055 7.947 C 11.055 8.682 10.293 9.104 9.843 9.486 C 9.449 9.826 8.931 10.384 8.931 11.555 C 8.931 12.263 9.122 12.467 9.68 12.467 C 10.347 12.467 10.483 12.168 10.483 11.909 C 10.483 11.201 10.497 10.793 11.246 10.207 C 11.614 9.921 12.771 8.995 12.771 7.715 C 12.771 6.436 11.614 5.469 9.871 5.469 Z " fill="rgb(232,76,120)"/><path d=" M 10 0 C 4.473 0 0 4.473 0 10 L 0 19.219 C 0 19.65 0.35 20 0.781 20 L 10 20 C 15.527 20 20 15.527 20 10 C 20 4.473 15.527 0 10 0 Z  M 10 18.437 L 1.563 18.437 L 1.563 10 C 1.563 5.337 5.336 1.562 10 1.562 C 14.663 1.562 18.437 5.336 18.437 10 C 18.437 14.663 14.664 18.437 10 18.437 Z " fill="rgb(232,76,120)"/></g></g></g></g></g></svg>
