<?xml version="1.0" encoding="UTF-8" standalone="no"?><!-- Generator: Gravit.io --><svg xmlns="http://www.w3.org/2000/svg" xmlns:xlink="http://www.w3.org/1999/xlink" style="isolation:isolate" viewBox="0 0 11.62 18" width="11.62pt" height="18pt"><defs><clipPath id="_clipPath_3QkpSCOHmyuxXPDzJaLMnhjZiEcz1W5D"><rect width="11.62" height="18"/></clipPath></defs><g clip-path="url(#_clipPath_3QkpSCOHmyuxXPDzJaLMnhjZiEcz1W5D)"><clipPath id="_clipPath_j3uThM5Q9zRAk1Qsp8ZNTz1VjHNUR4Ea"><rect x="0" y="0" width="11.62" height="18" transform="matrix(1,0,0,1,0,0)" fill="rgb(255,255,255)"/></clipPath><g clip-path="url(#_clipPath_j3uThM5Q9zRAk1Qsp8ZNTz1VjHNUR4Ea)"><g><path d=" M 5.81 0.462 C 2.75 0.462 0.27 2.942 0.27 6.002 C 0.27 8.785 2.427 14.058 5.81 18 C 9.192 14.058 11.35 8.785 11.35 6.002 C 11.35 2.942 8.87 0.462 5.81 0.462 Z " fill="rgb(91,95,106)"/><clipPath id="_clipPath_H7aUkEumVWMcohRtxkiYnvxg0FdtMl3U"><rect x="0" y="0" width="11.62" height="17.921" transform="matrix(1,0,0,1,0,0)" fill="rgb(255,255,255)"/></clipPath><g clip-path="url(#_clipPath_H7aUkEumVWMcohRtxkiYnvxg0FdtMl3U)"><g><path d=" M 5.81 0.405 C 2.825 0.405 0.405 2.825 0.405 5.81 C 0.405 8.525 2.51 13.67 5.81 17.516 C 9.11 13.67 11.214 8.525 11.214 5.81 C 11.214 2.825 8.795 0.405 5.81 0.405 Z " fill="rgb(79,122,240)"/><g><g style="opacity:0.7;"><g style="opacity:0.7;"><g opacity="0.7"><path d=" M 2.91 4.612 C 3.436 2.471 5.17 0.944 7.209 0.579 C 6.773 0.466 6.316 0.405 5.844 0.405 C 2.859 0.405 0.439 2.825 0.439 5.81 C 0.439 8.273 2.171 12.736 4.956 16.414 C 2.983 12.074 2.303 7.085 2.91 4.612 Z " fill="rgb(224,73,244)"/></g></g></g><path d=" M 5.81 8.283 C 4.446 8.283 3.337 7.173 3.336 5.809 C 3.337 4.446 4.446 3.336 5.81 3.336 C 7.174 3.336 8.283 4.446 8.284 5.81 C 8.283 7.173 7.174 8.283 5.81 8.283 Z " fill="rgb(255,255,255)"/></g></g></g></g></g></g></svg>