<?xml version="1.0" encoding="UTF-8" standalone="no"?><!-- Generator: Gravit.io --><svg xmlns="http://www.w3.org/2000/svg" xmlns:xlink="http://www.w3.org/1999/xlink" style="isolation:isolate" viewBox="0 0 20 20" width="20px" height="20px"><defs><clipPath id="_clipPath_qknYxu5Nd2O5kcgeZGE4pYx1RehkQ05g"><rect width="20" height="20"/></clipPath></defs><g clip-path="url(#_clipPath_qknYxu5Nd2O5kcgeZGE4pYx1RehkQ05g)"><rect width="20" height="20" style="fill:rgb(244,114,114)" fill-opacity="0"/><defs><filter id="vRHCXpN2Wz0hhBMmzIzHM46Qbes2GzD0" x="-200%" y="-200%" width="400%" height="400%" filterUnits="objectBoundingBox" color-interpolation-filters="sRGB"><feGaussianBlur xmlns="http://www.w3.org/2000/svg" stdDeviation="0"/></filter></defs><g filter="url(#vRHCXpN2Wz0hhBMmzIzHM46Qbes2GzD0)"><circle vector-effect="non-scaling-stroke" cx="10" cy="10" r="10" fill="rgb(255,255,255)"/></g><g><path d=" M 10 0 C 4.486 0 0 4.486 0 10 C 0 15.514 4.486 20 10 20 C 15.514 20 20 15.514 20 10 C 20 4.486 15.514 0 10 0 Z " fill="rgb(244,67,54)"/><path d=" M 13.683 12.504 C 14.008 12.83 14.008 13.357 13.683 13.683 C 13.52 13.845 13.307 13.927 13.093 13.927 C 12.88 13.927 12.667 13.845 12.504 13.683 L 10 11.178 L 7.496 13.683 C 7.333 13.845 7.12 13.927 6.907 13.927 C 6.693 13.927 6.48 13.845 6.317 13.683 C 5.992 13.357 5.992 12.83 6.317 12.504 L 8.822 10 L 6.317 7.496 C 5.992 7.17 5.992 6.643 6.317 6.317 C 6.643 5.992 7.17 5.992 7.496 6.317 L 10 8.822 L 12.504 6.317 C 12.83 5.992 13.357 5.992 13.683 6.317 C 14.008 6.643 14.008 7.17 13.683 7.496 L 11.178 10 L 13.683 12.504 Z " fill="rgb(250,250,250)"/></g></g></svg>
