<?xml version="1.0" encoding="UTF-8" standalone="no"?><!-- Generator: Gravit.io --><svg xmlns="http://www.w3.org/2000/svg" xmlns:xlink="http://www.w3.org/1999/xlink" style="isolation:isolate" viewBox="0 0 20 20" width="20px" height="20px"><defs><clipPath id="_clipPath_dDZeEEXL9ZNt98Gc0lZiywNIXDdKzuuq"><rect width="20" height="20"/></clipPath></defs><g clip-path="url(#_clipPath_dDZeEEXL9ZNt98Gc0lZiywNIXDdKzuuq)"><g><g><g><path d=" M 19.524 5.352 L 10.309 1.399 C 10.112 1.314 9.888 1.314 9.69 1.399 L 0.476 5.352 C 0.187 5.475 0 5.76 0 6.074 C 0.001 6.389 0.189 6.672 0.478 6.796 L 9.692 10.722 C 9.791 10.764 9.895 10.785 10 10.785 C 10.105 10.785 10.21 10.764 10.308 10.722 L 19.522 6.796 C 19.811 6.672 19.999 6.388 20 6.074 C 20 5.76 19.813 5.475 19.524 5.352 Z  M 10 9.146 L 2.783 6.071 L 10 2.975 L 17.217 6.071 L 10 9.146 Z " fill="rgb(232,76,120)"/></g></g><g><g><path d=" M 19.936 13.617 C 19.765 13.218 19.303 13.034 18.905 13.205 L 10 17.025 L 1.095 13.205 C 0.696 13.033 0.235 13.218 0.064 13.617 C -0.107 14.015 0.077 14.477 0.476 14.648 L 9.69 18.601 C 9.789 18.643 9.895 18.665 10 18.665 C 10.105 18.665 10.211 18.643 10.31 18.601 L 19.524 14.648 C 19.923 14.477 20.107 14.015 19.936 13.617 Z " fill="rgb(232,76,120)"/></g></g><g><g><path d=" M 19.937 9.692 C 19.767 9.293 19.305 9.108 18.907 9.277 L 10 13.073 L 1.094 9.277 C 0.695 9.107 0.233 9.293 0.063 9.692 C -0.107 10.091 0.079 10.552 0.478 10.722 L 9.692 14.649 C 9.791 14.691 9.895 14.712 10 14.712 C 10.105 14.712 10.21 14.691 10.308 14.649 L 19.522 10.722 C 19.921 10.552 20.107 10.091 19.937 9.692 Z " fill="rgb(232,76,120)"/></g></g></g></g></svg>
