<?xml version="1.0" encoding="UTF-8" standalone="no"?><!-- Generator: Gravit.io --><svg xmlns="http://www.w3.org/2000/svg" xmlns:xlink="http://www.w3.org/1999/xlink" style="isolation:isolate" viewBox="0 0 20 20" width="15px" height="15px"><defs><clipPath id="_clipPath_jb9LK7xhN7F4PeHC7jbj8fGHOJBH8uEx"><rect width="20" height="20"/></clipPath></defs><g clip-path="url(#_clipPath_jb9LK7xhN7F4PeHC7jbj8fGHOJBH8uEx)"><g><path d=" M 17.083 17.084 C 17.015 17.084 16.946 17.072 16.881 17.05 L 0.423 11.425 C 0.187 11.344 0.022 11.13 0.002 10.881 C -0.017 10.632 0.114 10.395 0.335 10.279 L 19.085 0.488 C 19.294 0.38 19.546 0.397 19.736 0.533 C 19.928 0.67 20.027 0.901 19.993 1.135 L 17.701 16.551 C 17.674 16.734 17.566 16.896 17.407 16.993 C 17.309 17.053 17.196 17.084 17.083 17.084 Z  M 2.205 10.713 L 16.575 15.624 L 18.576 2.165 L 2.205 10.713 Z " fill="rgb(255,255,255)"/><path d=" M 7.917 19.583 C 7.852 19.583 7.786 19.573 7.722 19.553 C 7.465 19.468 7.292 19.228 7.292 18.958 L 7.292 13.334 C 7.292 13.176 7.352 13.023 7.459 12.907 L 18.917 0.615 C 19.152 0.362 19.55 0.35 19.801 0.585 C 20.054 0.82 20.067 1.215 19.832 1.469 L 8.542 13.579 L 8.542 17.053 L 10.627 14.214 C 10.832 13.937 11.223 13.875 11.502 14.08 C 11.78 14.284 11.839 14.676 11.635 14.954 L 8.421 19.329 C 8.3 19.492 8.112 19.583 7.917 19.583 Z " fill="rgb(255,255,255)"/></g></g></svg>
