<?xml version="1.0" encoding="UTF-8" standalone="no"?><!-- Generator: Gravit.io --><svg xmlns="http://www.w3.org/2000/svg" xmlns:xlink="http://www.w3.org/1999/xlink" style="isolation:isolate" viewBox="0 0 16 16" width="16px" height="16px"><defs><clipPath id="_clipPath_LZoTFI8y5lmvVgrf5lIWtvBVGG6spCSZ"><rect width="16" height="16"/></clipPath></defs><g clip-path="url(#_clipPath_LZoTFI8y5lmvVgrf5lIWtvBVGG6spCSZ)"><clipPath id="_clipPath_9AlQultCjsLU6KURA0TCFq7NtP5pX8uU"><rect x="0" y="0" width="16" height="16" transform="matrix(1,0,0,1,0,0)" fill="rgb(255,255,255)"/></clipPath><g clip-path="url(#_clipPath_9AlQultCjsLU6KURA0TCFq7NtP5pX8uU)"><g><path d=" M 14.571 6.571 L 9.714 6.571 C 9.557 6.571 9.429 6.443 9.429 6.286 L 9.429 1.429 C 9.429 0.64 8.789 0 8 0 C 7.211 0 6.571 0.64 6.571 1.429 L 6.571 6.286 C 6.571 6.443 6.443 6.571 6.286 6.571 L 1.429 6.571 C 0.64 6.571 0 7.211 0 8 C 0 8.789 0.64 9.429 1.429 9.429 L 6.286 9.429 C 6.443 9.429 6.571 9.557 6.571 9.714 L 6.571 14.571 C 6.571 15.36 7.211 16 8 16 C 8.789 16 9.429 15.36 9.429 14.571 L 9.429 9.714 C 9.429 9.557 9.557 9.429 9.714 9.429 L 14.571 9.429 C 15.36 9.429 16 8.789 16 8 C 16 7.211 15.36 6.571 14.571 6.571 Z " fill="rgb(155,155,155)"/></g></g></g></svg>