<?xml version="1.0" encoding="UTF-8" standalone="no"?><!-- Generator: Gravit.io --><svg xmlns="http://www.w3.org/2000/svg" xmlns:xlink="http://www.w3.org/1999/xlink" style="isolation:isolate" viewBox="0 0 16 16.027" width="16px" height="16.027px"><defs><clipPath id="_clipPath_TXINrw2Cnjvl4QPczN6FkltiRT52Et8D"><rect width="16" height="16.027"/></clipPath></defs><g clip-path="url(#_clipPath_TXINrw2Cnjvl4QPczN6FkltiRT52Et8D)"><path d=" M 16 2.502 C 15.999 1.832 15.738 1.203 15.264 0.731 C 14.287 -0.245 12.698 -0.243 11.721 0.734 L 1.635 10.861 C 1.307 11.189 1.057 11.594 0.911 12.035 L 0.901 12.063 L 0 16.027 L 3.975 15.137 L 4.005 15.127 C 4.445 14.982 4.851 14.732 5.18 14.403 L 15.267 4.275 C 15.74 3.801 16.001 3.172 16 2.502 L 16 2.502 Z  M 2.204 14.251 L 1.783 13.83 L 2.087 12.491 L 3.546 13.951 L 2.204 14.251 Z  M 14.381 3.391 L 4.588 13.224 L 2.815 11.449 L 9.523 4.714 L 10.545 5.736 L 11.429 4.851 L 10.406 3.828 L 11.358 2.872 L 12.383 3.897 L 13.267 3.013 L 12.24 1.986 L 12.607 1.618 C 13.095 1.129 13.891 1.128 14.38 1.616 C 14.618 1.853 14.748 2.168 14.749 2.503 C 14.749 2.838 14.619 3.153 14.381 3.391 L 14.381 3.391 Z  M 6.582 14.762 L 16 14.762 L 16 16.014 L 5.335 16.014 L 6.582 14.762 Z " fill="rgb(155,155,155)"/></g></svg>
