<?xml version="1.0" encoding="UTF-8" standalone="no"?><!-- Generator: Gravit.io --><svg xmlns="http://www.w3.org/2000/svg" xmlns:xlink="http://www.w3.org/1999/xlink" style="isolation:isolate" viewBox="0 0 12.571 16" width="12.571px" height="16px"><defs><clipPath id="_clipPath_UXgtLNJzHCnLtTdmAgvWRvL4vX86ASph"><rect width="12.571" height="16"/></clipPath></defs><g clip-path="url(#_clipPath_UXgtLNJzHCnLtTdmAgvWRvL4vX86ASph)"><clipPath id="_clipPath_6oHF2Rp9Vuex3Via4DnxQ2fmdQgwSwSR"><rect x="0" y="0" width="12.571" height="16" transform="matrix(1,0,0,1,0,0)" fill="rgb(255,255,255)"/></clipPath><g clip-path="url(#_clipPath_6oHF2Rp9Vuex3Via4DnxQ2fmdQgwSwSR)"><g><g><g><path d=" M 12.403 3.024 L 9.546 0.167 C 9.493 0.114 9.43 0.071 9.36 0.043 C 9.291 0.015 9.217 0 9.143 0 L 1.714 0 C 0.768 0 0 0.768 0 1.714 L 0 14.286 C 0 15.232 0.768 16 1.714 16 L 10.857 16 C 11.804 16 12.571 15.232 12.571 14.286 L 12.571 3.429 C 12.571 3.277 12.51 3.132 12.403 3.024 Z  M 9.714 1.951 L 10.621 2.857 L 9.714 2.857 L 9.714 1.951 L 9.714 1.951 Z  M 11.429 14.286 C 11.429 14.601 11.173 14.857 10.857 14.857 L 1.714 14.857 C 1.399 14.857 1.143 14.601 1.143 14.286 L 1.143 1.714 C 1.143 1.399 1.399 1.143 1.714 1.143 L 8.571 1.143 L 8.571 3.429 C 8.571 3.744 8.827 4 9.143 4 L 11.429 4 L 11.429 14.286 L 11.429 14.286 L 11.429 14.286 Z " fill="rgb(155,155,155)"/></g></g></g></g></g></svg>
