<?xml version="1.0" encoding="UTF-8" standalone="no"?><!-- Generator: Gravit.io --><svg xmlns="http://www.w3.org/2000/svg" xmlns:xlink="http://www.w3.org/1999/xlink" style="isolation:isolate" viewBox="0 0 16 16" width="16px" height="16px"><defs><clipPath id="_clipPath_T4bBZyzGPzRkXP1aKdEG42EYveIfTy8L"><rect width="16" height="16"/></clipPath></defs><g clip-path="url(#_clipPath_T4bBZyzGPzRkXP1aKdEG42EYveIfTy8L)"><clipPath id="_clipPath_GJwqTazavjwFGGeBCytHfNF5yZutzOzD"><rect x="0" y="0" width="16" height="16" transform="matrix(1,0,0,1,0,0)" fill="rgb(255,255,255)"/></clipPath><g clip-path="url(#_clipPath_GJwqTazavjwFGGeBCytHfNF5yZutzOzD)"><g><path d=" M 15.998 3.954 C 15.989 3.866 15.954 3.777 15.894 3.703 C 15.871 3.675 16.109 3.915 12.331 0.137 C 12.241 0.047 12.119 0 12 0 C 11.715 0 1.689 0 1.406 0 C 0.631 0 0 0.631 0 1.406 L 0 14.594 C 0 15.369 0.631 16 1.406 16 L 14.594 16 C 15.369 16 16 15.369 16 14.594 C 16 3.213 16.001 3.99 15.998 3.954 L 15.998 3.954 L 15.998 3.954 Z  M 10.781 0.937 L 10.781 4 C 10.781 4.258 10.571 4.469 10.312 4.469 L 9.719 4.469 L 9.719 0.937 L 10.781 0.937 L 10.781 0.937 Z  M 8.781 0.937 L 8.781 4.469 L 4.437 4.469 C 4.179 4.469 3.969 4.258 3.969 4 L 3.969 0.937 L 8.781 0.937 L 8.781 0.937 Z  M 10.781 10.031 L 3.969 10.031 L 3.969 9.437 C 3.969 9.179 4.179 8.969 4.437 8.969 L 10.312 8.969 C 10.571 8.969 10.781 9.179 10.781 9.437 L 10.781 10.031 L 10.781 10.031 Z  M 3.969 15.062 L 3.969 10.969 L 10.781 10.969 L 10.781 15.062 L 3.969 15.062 L 3.969 15.062 Z  M 15.062 14.594 C 15.062 14.852 14.852 15.062 14.594 15.062 L 11.719 15.062 C 11.719 14.451 11.719 10.134 11.719 9.437 C 11.719 8.662 11.088 8.031 10.312 8.031 L 4.437 8.031 C 3.662 8.031 3.031 8.662 3.031 9.437 L 3.031 15.062 L 1.406 15.062 C 1.148 15.062 0.938 14.852 0.938 14.594 L 0.938 1.406 C 0.938 1.148 1.148 0.937 1.406 0.937 L 3.031 0.937 L 3.031 4 C 3.031 4.775 3.662 5.406 4.437 5.406 L 10.312 5.406 C 11.088 5.406 11.719 4.775 11.719 4 L 11.719 0.937 L 11.806 0.937 L 15.062 4.194 L 15.062 14.594 L 15.062 14.594 Z " fill="rgb(215,54,54)"/></g></g></g></svg>
