<?xml version="1.0" encoding="UTF-8" standalone="no"?><!-- Generator: Gravit.io --><svg xmlns="http://www.w3.org/2000/svg" xmlns:xlink="http://www.w3.org/1999/xlink" style="isolation:isolate" viewBox="0 0 571.431 594.253" width="571.431pt" height="594.253pt"><defs><clipPath id="_clipPath_Xi012gQcFYLm1vmFL7GrmsG6kgWnynPV"><rect width="571.431" height="594.253"/></clipPath></defs><g clip-path="url(#_clipPath_Xi012gQcFYLm1vmFL7GrmsG6kgWnynPV)"><mask id="_mask_fqvYBTguejikMPH5ANZvV5RcYY7SM78V" x="-200%" y="-200%" width="400%" height="400%"><rect x="-200%" y="-200%" width="400%" height="400%" style="fill:white;"/><path d=" M 438.897 521.925 L 568.431 52.73 L 389.917 13.49 L 269.938 3 L 112.108 24.375 L 3 61.607 L 69.709 328.488 L 68.572 396.55 L 83.119 391.585 L 88.717 495.247 L 110.538 487.8 L 122.122 521.745 L 89.774 530.076 L 94.026 558.402 L 183.082 549.667 L 188.989 582.842 L 257.821 578.303 L 259.533 591.253 L 308.14 590.908 L 308.14 578.303 L 377.742 580.691 L 379.936 547.459 L 499.088 555.525 L 503.764 529.566 L 438.897 521.925 Z " fill="black" stroke="none"/></mask><path d=" M 438.897 521.925 L 568.431 52.73 L 389.917 13.49 L 269.938 3 L 112.108 24.375 L 3 61.607 L 69.709 328.488 L 68.572 396.55 L 83.119 391.585 L 88.717 495.247 L 110.538 487.8 L 122.122 521.745 L 89.774 530.076 L 94.026 558.402 L 183.082 549.667 L 188.989 582.842 L 257.821 578.303 L 259.533 591.253 L 308.14 590.908 L 308.14 578.303 L 377.742 580.691 L 379.936 547.459 L 499.088 555.525 L 503.764 529.566 L 438.897 521.925 Z " fill="rgb(255,255,255)" mask="url(#_mask_fqvYBTguejikMPH5ANZvV5RcYY7SM78V)" vector-effect="non-scaling-stroke" stroke-width="2" stroke="rgb(0,0,0)" stroke-opacity="100" stroke-linejoin="miter" stroke-linecap="square" stroke-miterlimit="3"/><path d=" M 438.897 521.925 L 568.431 52.73 L 389.917 13.49 L 269.938 3 L 112.108 24.375 L 3 61.607 L 69.709 328.488 L 68.572 396.55 L 83.119 391.585 L 88.717 495.247 L 110.538 487.8 L 122.122 521.745 L 89.774 530.076 L 94.026 558.402 L 183.082 549.667 L 188.989 582.842 L 257.821 578.303 L 259.533 591.253 L 308.14 590.908 L 308.14 578.303 L 377.742 580.691 L 379.936 547.459 L 499.088 555.525 L 503.764 529.566 L 438.897 521.925 Z " fill="rgb(255,255,255)"/><path d=" M 407.357 291.626 L 420.482 240.251 L 450.982 248.376 L 453.982 235.048 L 513.888 251.783 L 501.232 297.345 L 478.451 290.736 L 482.107 276.814 L 466.217 273.017 L 457.92 305.08 L 407.357 291.626 Z " fill="rgb(255,255,255)" fill-opacity="0.5" vector-effect="non-scaling-stroke" stroke-width="1" stroke="rgb(0,0,0)" stroke-linejoin="miter" stroke-linecap="square" stroke-miterlimit="3"/><path d=" M 495.982 315.814 L 501.232 297.345 L 478.451 290.736 L 482.107 276.814 L 466.217 273.017 L 457.92 305.08 L 495.982 315.814 Z " fill="rgb(255,255,255)" fill-opacity="0.5" vector-effect="non-scaling-stroke" stroke-width="1" stroke="rgb(0,0,0)" stroke-linejoin="miter" stroke-linecap="square" stroke-miterlimit="3"/><path d=" M 379.936 320.501 L 384.795 300.72 L 448.92 318.158 L 444.138 338.408 L 379.936 320.501 Z " fill="rgb(255,255,255)" fill-opacity="0.5" vector-effect="non-scaling-stroke" stroke-width="1" stroke="rgb(0,0,0)" stroke-linejoin="miter" stroke-linecap="square" stroke-miterlimit="3"/><path d=" M 445.857 350.376 L 431.857 406.001 L 456.232 412.939 L 470.435 356.689 L 445.857 350.376 Z " fill="rgb(255,255,255)" fill-opacity="0.5" vector-effect="non-scaling-stroke" stroke-width="1" stroke="rgb(0,0,0)" stroke-linejoin="miter" stroke-linecap="square" stroke-miterlimit="3"/><path d=" M 402.795 355.986 L 392.951 395.361 L 431.857 406.002 L 441.607 366.814 L 402.795 355.986 Z " fill="rgb(255,255,255)" fill-opacity="0.5" vector-effect="non-scaling-stroke" stroke-width="1" stroke="rgb(0,0,0)" stroke-linejoin="miter" stroke-linecap="square" stroke-miterlimit="3"/><path d=" M 472.732 79.376 L 561.42 80.501 L 529.17 197.376 L 486.42 185.689 L 492.42 162.626 L 461.717 154.126 L 471.42 112.501 L 479.857 83.595 L 471.42 83.595 L 472.732 79.376 Z " fill="rgb(255,255,255)" fill-opacity="0.5" vector-effect="non-scaling-stroke" stroke-width="1" stroke="rgb(0,0,0)" stroke-linejoin="miter" stroke-linecap="square" stroke-miterlimit="3"/><path d=" M 83.119 374.126 L 98.232 428.626 L 138.42 417.533 L 123.92 362.314 L 83.119 374.126 Z " fill="rgb(255,255,255)" fill-opacity="0.5" vector-effect="non-scaling-stroke" stroke-width="1" stroke="rgb(0,0,0)" stroke-linejoin="miter" stroke-linecap="square" stroke-miterlimit="3"/><path d=" M 170.295 349.001 L 184.826 403.939 L 138.42 417.533 L 123.92 362.314 L 170.295 349.001 Z " fill="rgb(255,255,255)" fill-opacity="0.5" vector-effect="non-scaling-stroke" stroke-width="1" stroke="rgb(0,0,0)" stroke-linejoin="miter" stroke-linecap="square" stroke-miterlimit="3"/><path d=" M 187.357 93.158 L 220.857 224.793 L 206.19 228.46 L 247.857 387.126 L 263.236 386.259 L 358.607 380.876 L 382.857 282.126 L 365.295 276.814 L 396.19 154.126 L 414.045 158.689 L 429.357 94.251 L 308.14 77.626 L 187.357 93.158 Z " fill="rgb(225,200,200)" fill-opacity="0.5" vector-effect="non-scaling-stroke" stroke-width="1" stroke="rgb(0,0,0)" stroke-linejoin="miter" stroke-linecap="square" stroke-miterlimit="3"/><path d=" M 254.524 321.46 L 342.857 295.126 L 344.154 381.861 L 263.236 386.259 L 254.524 321.46 Z " fill="rgb(225,200,200)" fill-opacity="0.5" vector-effect="non-scaling-stroke" stroke-width="1" stroke="rgb(0,0,0)" stroke-linejoin="miter" stroke-linecap="square" stroke-miterlimit="3"/><path d=" M 3.857 67.126 L 118.857 33.376 L 126.107 61.607 L 175.857 47.126 L 191.717 109.611 L 153.326 120.439 L 167.248 172.47 L 39.42 209.689 L 3.857 67.126 Z " fill="rgb(168,242,211)" fill-opacity="0.5" vector-effect="non-scaling-stroke" stroke-width="1" stroke="rgb(0,0,0)" stroke-linejoin="miter" stroke-linecap="square" stroke-miterlimit="3"/><path d=" M 66.982 320.501 L 75.607 357.439 L 193.92 323.126 L 184.17 286.189 L 66.982 320.501 Z " fill="rgb(168,242,211)" fill-opacity="0.5" vector-effect="non-scaling-stroke" stroke-width="1" stroke="rgb(0,0,0)" stroke-linejoin="miter" stroke-linecap="square" stroke-miterlimit="3"/><path d=" M 58.076 283.564 L 67.416 320.501 L 184.17 286.189 L 174.082 249.251 L 58.076 283.564 Z " fill="rgb(168,242,211)" fill-opacity="0.5" vector-effect="non-scaling-stroke" stroke-width="1" stroke="rgb(0,0,0)" stroke-linejoin="miter" stroke-linecap="square" stroke-miterlimit="3"/><path d=" M 124.779 184.705 L 139.123 240.251 L 172.17 230.267 L 157.826 175.189 L 124.779 184.705 Z " fill="rgb(255,255,255)" fill-opacity="0.5" vector-effect="non-scaling-stroke" stroke-width="1" stroke="rgb(0,0,0)" stroke-linejoin="miter" stroke-linecap="square" stroke-miterlimit="3"/><path d=" M 89.774 231.251 L 68.572 236.876 L 73.982 258.751 L 95.482 252.501 L 89.774 231.251 Z " fill="rgb(255,255,255)" fill-opacity="0.5" vector-effect="non-scaling-stroke" stroke-width="1" stroke="rgb(0,0,0)" stroke-linejoin="miter" stroke-linecap="square" stroke-miterlimit="3"/><path d=" M 427.826 100.048 L 440.482 48.72 L 477.607 59.408 L 471.42 83.595 L 461.717 83.595 L 456.232 107.642 L 427.826 100.048" fill="rgb(255,255,255)" fill-opacity="0.5" vector-effect="non-scaling-stroke" stroke-width="1" stroke="rgb(0,0,0)" stroke-linejoin="miter" stroke-linecap="square" stroke-miterlimit="3"/><path d=" M 479.857 83.595 L 461.717 83.595 L 456.232 107.642 L 471.42 112.126 L 479.857 83.595 Z " fill="rgb(255,255,255)" fill-opacity="0.5" vector-effect="non-scaling-stroke" stroke-width="1" stroke="rgb(0,0,0)" stroke-linejoin="miter" stroke-linecap="square" stroke-miterlimit="3"/><path d=" M 102.107 191.626 L 116.607 246.501 L 139.123 240.251 L 124.779 184.705 L 102.107 191.626 Z " fill="rgb(255,255,255)" fill-opacity="0.5" vector-effect="non-scaling-stroke" stroke-width="1" stroke="rgb(0,0,0)" stroke-linejoin="miter" stroke-linecap="square" stroke-miterlimit="3"/><path d=" M 80.982 197.376 L 95.482 252.501 L 116.607 246.501 L 102.107 191.626 L 80.982 197.376 Z " fill="rgb(255,255,255)" fill-opacity="0.5" vector-effect="non-scaling-stroke" stroke-width="1" stroke="rgb(0,0,0)" stroke-linejoin="miter" stroke-linecap="square" stroke-miterlimit="3"/><path d=" M 59.857 203.876 L 65.482 225.501 L 86.982 219.251 L 80.982 197.376 L 59.857 203.876 Z " fill="rgb(255,255,255)" fill-opacity="0.5" vector-effect="non-scaling-stroke" stroke-width="1" stroke="rgb(0,0,0)" stroke-linejoin="miter" stroke-linecap="square" stroke-miterlimit="3"/><path d=" M 170.295 349.001 L 200.857 340.189 L 202.545 384.251 L 181.31 390.251 L 170.295 349.001 Z " fill="rgb(255,255,255)" fill-opacity="0.5" vector-effect="non-scaling-stroke" stroke-width="1" stroke="rgb(0,0,0)" stroke-linejoin="miter" stroke-linecap="square" stroke-miterlimit="3"/><path d=" M 184.826 403.939 L 202.545 398.501 L 202.545 384.251 L 181.31 390.251 L 184.826 403.939 Z " fill="rgb(255,255,255)" fill-opacity="0.5" vector-effect="non-scaling-stroke" stroke-width="1" stroke="rgb(0,0,0)" stroke-linejoin="miter" stroke-linecap="square" stroke-miterlimit="3"/><path d=" M 134.482 489.72 L 139.123 508.564 L 202.545 490.705 L 197.201 470.736 L 134.482 489.72 Z " fill="rgb(255,255,255)" fill-opacity="0.5" vector-effect="non-scaling-stroke" stroke-width="1" stroke="rgb(0,0,0)" stroke-linejoin="miter" stroke-linecap="square" stroke-miterlimit="3"/><path d=" M 200.857 472.376 L 206.19 490.705 L 216.857 488.501 L 216.857 503.126 L 233.857 503.126 L 233.857 462.626 L 200.857 472.376 Z " fill="rgb(255,255,255)" fill-opacity="0.5" vector-effect="non-scaling-stroke" stroke-width="1" stroke="rgb(0,0,0)" stroke-linejoin="miter" stroke-linecap="square" stroke-miterlimit="3"/><path d=" M 440.482 172.47 L 426.607 228.46 L 450.982 235.048 L 465.107 179.376 L 440.482 172.47 Z " fill="rgb(255,255,255)" fill-opacity="0.5" vector-effect="non-scaling-stroke" stroke-width="1" stroke="rgb(0,0,0)" stroke-linejoin="miter" stroke-linecap="square" stroke-miterlimit="3"/><path d=" M 450.982 235.048 L 473.482 240.251 L 486.42 185.689 L 465.107 179.376 L 450.982 235.048 Z " fill="rgb(255,255,255)" fill-opacity="0.5" vector-effect="non-scaling-stroke" stroke-width="1" stroke="rgb(0,0,0)" stroke-linejoin="miter" stroke-linecap="square" stroke-miterlimit="3"/><path d=" M 440.482 157.001 L 442.545 148.939 L 489.138 161.408 L 487.076 170.126 L 440.482 157.001 Z " fill="rgb(255,255,255)" fill-opacity="0.5" vector-effect="non-scaling-stroke" stroke-width="1" stroke="rgb(0,0,0)" stroke-linejoin="miter" stroke-linecap="square" stroke-miterlimit="3"/><path d=" M 233.857 503.126 L 233.857 451.939 L 361.107 415.126 L 461.717 443.251 L 439.603 521.466 L 334.873 496.611 L 233.857 503.126 Z " fill="rgb(255,255,255)" fill-opacity="0.5" vector-effect="non-scaling-stroke" stroke-width="1" stroke="rgb(0,0,0)" stroke-linejoin="miter" stroke-linecap="square" stroke-miterlimit="3"/></g></svg>