<?xml version="1.0" encoding="UTF-8" standalone="no"?><!-- Generator: Gravit.io --><svg xmlns="http://www.w3.org/2000/svg" xmlns:xlink="http://www.w3.org/1999/xlink" style="isolation:isolate" viewBox="0 0 31.497 48.791" width="31.497px" height="48.791px"><defs><clipPath id="_clipPath_GmHYEcpkVo4mDT3hxt4ri60wXrN6vT0X"><rect width="31.497" height="48.791"/></clipPath></defs><g clip-path="url(#_clipPath_GmHYEcpkVo4mDT3hxt4ri60wXrN6vT0X)"><path d=" M 15.749 1.251 C 7.455 1.251 0.732 7.974 0.732 16.268 C 0.732 23.812 6.58 38.107 15.749 48.791 C 24.917 38.107 30.765 23.812 30.765 16.268 C 30.765 7.974 24.042 1.251 15.749 1.251 Z " fill="rgb(91,95,106)"/><clipPath id="_clipPath_H2e6SfUzj1ZAKQJ91acl1Xcgob9sWQju"><rect x="0" y="0" width="31.497" height="48.578" transform="matrix(1,0,0,1,0,0)" fill="rgb(255,255,255)"/></clipPath><g clip-path="url(#_clipPath_H2e6SfUzj1ZAKQJ91acl1Xcgob9sWQju)"><path d=" M 15.749 1.099 C 7.657 1.099 1.099 7.657 1.099 15.749 C 1.099 23.109 6.803 37.055 15.749 47.479 C 24.694 37.055 30.398 23.109 30.398 15.749 C 30.398 7.657 23.84 1.099 15.749 1.099 Z " fill="rgb(79,122,240)"/><g><g style="opacity:0.7;"><g opacity="0.7"><path d=" M 7.888 12.501 C 9.314 6.697 14.015 2.56 19.541 1.57 C 18.359 1.263 17.119 1.099 15.841 1.099 C 7.75 1.099 1.191 7.657 1.191 15.749 C 1.191 22.426 5.886 34.522 13.435 44.493 C 8.086 32.728 6.242 19.204 7.888 12.501 Z " fill="rgb(224,73,244)"/></g></g><path d=" M 15.749 22.452 C 12.052 22.452 9.044 19.443 9.043 15.746 C 9.044 12.051 12.052 9.043 15.749 9.043 C 19.445 9.043 22.453 12.051 22.454 15.748 C 22.453 19.444 19.445 22.452 15.749 22.452 Z " fill="rgb(255,255,255)"/></g></g></g></svg>