<?xml version="1.0" encoding="iso-8859-1"?>
<!-- Generator: Adobe Illustrator 19.0.0, SVG Export Plug-In . SVG Version: 6.00 Build 0)  -->
<svg version="1.1" id="Capa_1" xmlns="http://www.w3.org/2000/svg" xmlns:xlink="http://www.w3.org/1999/xlink" x="0px" y="0px"
	 viewBox="0 0 512 512" style="enable-background:new 0 0 512 512;" xml:space="preserve">
<g>
	<g>
		<path d="M382.621,54.617C348.723,19.396,303.761,0,256.003,0s-92.72,19.396-126.605,54.617
			c-69.365,72.08-69.365,189.369-0.031,261.425l113.299,118.225c3.485,3.633,8.3,5.69,13.337,5.69s9.852-2.057,13.337-5.69
			l113.28-118.2C451.985,243.98,451.985,126.698,382.621,54.617z M355.965,290.476l-99.962,104.309l-99.986-104.333
			c-55.769-57.961-55.769-152.264,0-210.219c26.865-27.912,62.37-43.288,99.986-43.288s73.127,15.375,99.986,43.288
			C411.764,138.194,411.764,232.49,355.965,290.476z"/>
	</g>
</g>
<g>
	<g>
		<path d="M256.003,92.671c-41.083,0-74.506,33.423-74.506,74.506c0,41.083,33.423,74.506,74.506,74.506
			c41.089,0,74.506-33.423,74.506-74.506C330.509,126.094,297.086,92.671,256.003,92.671z M256.003,204.738
			c-20.714,0-37.561-16.847-37.561-37.561s16.847-37.561,37.561-37.561s37.561,16.847,37.561,37.561
			S276.717,204.738,256.003,204.738z"/>
	</g>
</g>
<g>
	<g>
		<path d="M478.173,491.465l-18.473-164.406c-1.047-9.347-8.953-16.41-18.356-16.41h-96.673v36.945h80.165l14.322,127.461H72.853
			l14.322-127.461h80.153v-36.945H70.655c-9.403,0-17.303,7.063-18.356,16.41L33.827,491.465
			c-0.585,5.228,1.084,10.449,4.587,14.372c3.51,3.922,8.516,6.164,13.774,6.164h407.63c5.258,0,10.265-2.241,13.768-6.164
			C477.09,501.914,478.758,496.692,478.173,491.465z"/>
	</g>
</g>
<g>
</g>
<g>
</g>
<g>
</g>
<g>
</g>
<g>
</g>
<g>
</g>
<g>
</g>
<g>
</g>
<g>
</g>
<g>
</g>
<g>
</g>
<g>
</g>
<g>
</g>
<g>
</g>
<g>
</g>
</svg>
