<?xml version="1.0" encoding="UTF-8" standalone="no"?><!-- Generator: Gravit.io --><svg xmlns="http://www.w3.org/2000/svg" xmlns:xlink="http://www.w3.org/1999/xlink" style="isolation:isolate" viewBox="0 0 25.553 37.66" width="25.553px" height="37.66px"><defs><clipPath id="_clipPath_Vjbf7JM2oqoct4WJomDp2S0fLv2IsBCj"><rect width="25.553" height="37.66"/></clipPath></defs><g clip-path="url(#_clipPath_Vjbf7JM2oqoct4WJomDp2S0fLv2IsBCj)"><g opacity="0.48"><path d=" M 11.357 1.704 C 5.085 1.704 0 6.788 0 13.061 C 0 18.767 4.422 29.578 11.357 37.66 C 18.292 29.578 22.714 18.767 22.714 13.061 C 22.714 6.788 17.63 1.704 11.357 1.704 Z " fill="rgb(42,68,142)"/></g><path d=" M 13.345 0.852 C 7.072 0.852 1.987 5.936 1.987 12.209 C 1.987 17.915 6.41 28.727 13.345 36.808 C 20.279 28.727 24.702 17.915 24.702 12.209 C 24.702 5.936 19.617 0.852 13.345 0.852 Z " fill="rgb(79,122,240)"/><clipPath id="_clipPath_bwZnzlNl3Ehy9f2bRWVf8MAAIXSbXvsa"><rect x="1.136" y="0" width="24.418" height="37.66" transform="matrix(1,0,0,1,0,0)" fill="rgb(255,255,255)"/></clipPath><g clip-path="url(#_clipPath_bwZnzlNl3Ehy9f2bRWVf8MAAIXSbXvsa)"><g><g style="opacity:0.7;"><g opacity="0.7"><path d=" M 7.251 9.691 C 8.356 5.192 12 1.985 16.284 1.217 C 15.368 0.979 14.407 0.852 13.416 0.852 C 7.144 0.852 2.059 5.936 2.059 12.209 C 2.059 17.385 5.698 26.763 11.551 34.493 C 7.404 25.372 5.975 14.888 7.251 9.691 Z " fill="rgb(224,73,244)"/></g></g><path d=" M 13.345 17.405 C 10.479 17.405 8.147 15.073 8.146 12.207 C 8.147 9.342 10.479 7.011 13.345 7.011 C 16.211 7.011 18.542 9.342 18.543 12.208 C 18.542 15.074 16.211 17.405 13.345 17.405 Z " fill="rgb(255,255,255)"/></g></g></g></svg>
