<?xml version="1.0" encoding="UTF-8" standalone="no"?><!-- Generator: Gravit.io --><svg xmlns="http://www.w3.org/2000/svg" xmlns:xlink="http://www.w3.org/1999/xlink" style="isolation:isolate" viewBox="0 0 20 20" width="20px" height="20px"><defs><clipPath id="_clipPath_yC4MGxXZJQ9z8nnHnTdboXWCHTs8eoph"><rect width="20" height="20"/></clipPath></defs><g clip-path="url(#_clipPath_yC4MGxXZJQ9z8nnHnTdboXWCHTs8eoph)"><rect width="20" height="20" style="fill:rgb(244,114,114)" fill-opacity="0"/><clipPath id="_clipPath_zbFlRcoVKQwg3LDS5TfnM72lhdpiBw9n"><rect x="0" y="0" width="20" height="20" transform="matrix(1,0,0,1,0,0)" fill="rgb(255,255,255)"/></clipPath><g clip-path="url(#_clipPath_zbFlRcoVKQwg3LDS5TfnM72lhdpiBw9n)"><g><g><g><g><path d=" M 19.773 9.013 L 11.633 0.645 C 11.623 0.634 11.612 0.623 11.601 0.613 C 10.712 -0.202 9.368 -0.205 8.476 0.607 C 8.465 0.617 8.454 0.627 8.444 0.638 L 0.229 9.011 C -0.076 9.323 -0.077 9.828 0.228 10.14 C 0.533 10.452 1.028 10.452 1.333 10.141 L 1.953 9.509 L 1.953 16.398 C 1.953 18.158 3.355 19.59 5.078 19.59 L 7.891 19.59 C 8.323 19.59 8.672 19.233 8.672 18.793 L 8.672 12.289 L 11.406 12.289 L 11.406 18.793 C 11.406 19.233 11.756 19.59 12.188 19.59 L 14.922 19.59 C 16.645 19.59 18.047 18.158 18.047 16.398 C 18.047 15.958 17.697 15.601 17.266 15.601 C 16.834 15.601 16.484 15.958 16.484 16.398 C 16.484 17.278 15.783 17.994 14.922 17.994 L 12.968 17.994 L 12.968 11.491 C 12.968 11.05 12.619 10.693 12.188 10.693 L 7.891 10.693 C 7.459 10.693 7.109 11.05 7.109 11.491 L 7.109 17.994 L 5.078 17.994 C 4.217 17.994 3.516 17.278 3.516 16.398 L 3.516 7.94 C 3.516 7.933 3.516 7.924 3.515 7.917 L 9.529 1.786 C 9.822 1.533 10.251 1.533 10.543 1.788 L 16.484 7.897 L 16.484 12.408 C 16.484 12.849 16.834 13.207 17.266 13.207 C 17.697 13.207 18.047 12.849 18.047 12.408 L 18.047 9.503 L 18.664 10.138 C 18.818 10.295 19.018 10.374 19.218 10.374 C 19.418 10.374 19.617 10.297 19.769 10.142 C 20.076 9.832 20.078 9.326 19.773 9.013 Z " fill="rgb(62,60,60)"/></g></g></g></g></g></g></svg>
