<?xml version="1.0" encoding="utf-8"?>
<!-- Generator: Adobe Illustrator 19.0.0, SVG Export Plug-In . SVG Version: 6.00 Build 0)  -->
<svg version="1.1" xmlns="http://www.w3.org/2000/svg" xmlns:xlink="http://www.w3.org/1999/xlink" x="0px" y="0px"
	 viewBox="0 0 573.1 174" style="enable-background:new 0 0 573.1 174;" xml:space="preserve">
<style type="text/css">
	.st0{fill:#8CCC75;}
	.st1{display:none;}
</style>
<g id="Слой_2">
	<g id="XMLID_32_">
		<path id="XMLID_25_" class="st0" d="M192.2,140c1.4,1.5,3.8,2.2,7,2.2c1.6,0,2.8-0.1,4-0.4c1.3-0.3,2.8-0.5,2.8-0.8V93.3
			c0-4.9-0.2-9.1-1.4-12.6s-2.4-6.3-4.3-8.5c-1.9-2.2-4.1-3.7-6.6-4.7c-2.5-1-5.1-1.4-7.9-1.4c-3.7,0-6.9,0.7-9.5,2
			c-2.7,1.4-5.1,3-7.2,5.1c-2.2-2.4-4.6-4.2-7.3-5.4c-2.7-1.2-5.5-1.7-8.4-1.7c-3.8,0-7.4,0.7-10.8,2.1c-3.4,1.4-6.3,3.3-8.7,5.6
			c-1.4,1.4-2.7,2.9-3.5,4.5c-0.8,1.6-1.4,3.7-1.4,6.3v46.7c0,4.2,0.9,7.1,2.3,8.5c1.4,1.5,3.8,2.2,7,2.2c1.6,0,2.8-0.1,4-0.4
			c1.3-0.3,2.7-0.5,2.7-0.8V87.1c1-0.6,2.1-1.2,3.3-1.9c1.2-0.7,2.8-1,4.3-1c2.1,0,3.8,0.8,5.2,2.3c1.4,1.6,2.2,4,2.2,7.3v37.5
			c0,4.2,0.7,7.1,2.1,8.5c1.4,1.5,3.6,2.2,6.8,2.2c1.6,0,2.9-0.1,4.2-0.4c1.3-0.3,2-0.5,3-0.8V91.1c0-0.5,0.1-1,0.1-1.5
			c0-0.5-0.1-1-0.1-1.5c1-1.1,2.1-2,3.4-2.7c1.2-0.7,2.6-1.1,4-1.1c2.2,0,3.7,0.8,5,2.3c1.3,1.6,1.7,4,1.7,7.3v37.5
			C190,135.6,190.9,138.5,192.2,140z"/>
		<path id="XMLID_3_" class="st0" d="M62.5,62c0,2.3-0.4,4.4-1.3,6.1c-0.8,1.8-1.8,3.2-3,4.2c-1.8-1.7-3.8-3.2-6-4.5
			c-2.2-1.3-4.7-2-7.7-2c-5.7,0-10.1,2.5-13.3,7.6c-3.2,5.1-4.8,12.3-4.8,21.7c0,9.7,1.7,17,5,21.8c3.4,4.9,8,7.3,13.9,7.3
			c3,0,5.6-0.6,7.8-1.7c2.2-1.2,4.2-2.5,6-4.2c1.1,1.2,1.9,2.7,2.6,4.6c0.7,1.9,1,4,1,6.3c0,2-0.4,3.9-1.1,5.7
			c-0.7,1.8-2,3.3-3.9,4.5c-1.4,1-3.3,1.9-5.7,2.8c-2.4,0.9-5.4,1.3-8.9,1.3c-4.7,0-9.2-1-13.3-2.9c-4.1-1.9-7.7-4.8-10.7-8.8
			c-3-3.9-5.4-8.9-7.2-15c-1.7-6.1-2.6-13.3-2.6-21.7c0-7.9,0.9-14.8,2.6-20.9c1.7-6,4.1-11.1,7.1-15.2s6.4-7.2,10.4-9.3
			c4-2.1,8.2-3.2,12.7-3.2c6.4,0,11.4,1.5,15,4.4C60.8,53.9,62.5,57.6,62.5,62z"/>
		<path id="XMLID_22_" class="st0" d="M232,168.9c1.3-0.3,2-0.6,3-0.9v-27.1c1,0.7,2.7,1.3,4.2,1.7c1.6,0.5,3.2,0.7,5,0.7
			c3.8,0,7.3-0.8,10.4-2.5c3.2-1.7,6-4.1,8.3-7.4c2.3-3.3,4.2-7.4,5.5-12.2c1.3-4.9,2-10.5,2-16.9c0-6.7-0.7-12.4-2.1-17.2
			c-1.4-4.8-3.3-8.8-5.8-11.9c-2.5-3.1-5.4-5.4-8.9-6.9c-3.4-1.5-7.2-2.2-11.3-2.2c-4,0-7.7,0.6-11.1,1.9c-3.3,1.3-6.1,2.8-8.2,4.8
			c-1.4,1.3-2.8,2.8-3.5,4.5c-0.8,1.7-1.5,3.8-1.5,6.4v74.8c0,4.2,1.1,7.1,2.5,8.6c1.4,1.5,4,2.3,7.1,2.3
			C229.2,169.4,230.7,169.2,232,168.9z M235,87c1-0.7,2-1.3,3.2-1.9c1.2-0.6,2.5-0.8,4.1-0.8c3.6,0,6.5,1.6,8.5,4.7
			c2,3.1,3.1,8.3,3.1,15.4c0,7-1,12.1-3.1,15.6c-2.1,3.4-5,5.1-8.8,5.1c-1.4,0-2.7-0.2-3.9-0.7c-1.1-0.5-2.1-1.1-3.1-1.9V87z"/>
		<path id="XMLID_18_" class="st0" d="M87.8,96.6c-6,0.9-10.6,3.2-13.5,6.8c-2.9,3.6-4.3,8.9-4.3,15.9c0,8.2,2.2,14.2,6.5,18.2
			c4.3,4,10.1,6,17.4,6c4,0,7.6-0.5,10.8-1.5c3.2-1,5.8-2.5,8-4.4c1.3-1.1,2.3-2.4,3.2-4c1-1.6,1.1-3.7,1.1-6.3V93.2
			c0-4.6-0.3-8.7-1.4-12.1c-1.2-3.4-2.6-6.2-4.7-8.5c-2.1-2.2-4.7-3.9-7.7-4.9c-3-1.1-6.3-1.6-10-1.6c-2.6,0-5.3,0.3-8,0.8
			c-2.7,0.6-5.1,1.4-7.2,2.5c-3.3,1.9-4.9,5.1-4.9,9.5c0,1.9,0.3,3.7,0.9,5.4c0.6,1.7,1.3,2.9,2.2,3.7c2.1-1.2,4.4-2.3,7-3.2
			c2.6-0.9,5.3-1.4,8-1.4c3.5,0,6.1,0.8,7.9,2.3c1.8,1.5,2.9,3.9,2.9,7.1v1.7L87.8,96.6z M102,124c-1,0.7-2,1.3-3.5,1.7
			c-1.5,0.5-3.2,0.7-4.7,0.7c-2.9,0-5-0.7-6.2-2.1c-1.3-1.4-1.9-3.3-1.9-5.7c0-2.3,0.7-4.1,2.1-5.2c1.4-1.2,3.2-1.9,5.5-2.2l8.8-1.1
			V124z"/>
		<path id="XMLID_17_" class="st0" d="M357.7,84.9c1.4-1,3.3-1.4,5.8-1.4c1.2,0,2.5,0.2,3.9,0.5c1.4,0.3,2.8,0.7,4,1.2
			c1.3,0.5,2.5,1.1,3.6,1.7c1.1,0.6,1.9,1.2,2.5,1.7c0.9-1,1.7-2.3,2.2-3.9c0.6-1.6,0.8-3.3,0.8-5.4c0-2.2-0.5-4.2-1.4-5.8
			c-1-1.7-2.2-3-3.9-4.2c-1.6-1.1-3.6-1.9-5.8-2.5c-2.3-0.6-4.7-0.8-7.2-0.8c-6.9,0-12.3,2.1-16.4,6.3c-4.1,4.2-6.1,9.9-6.1,17
			c0,6.5,1.4,11.5,4.2,15c2.8,3.6,7.1,6.2,13,7.9l4.2,1.4c2.1,0.7,3.6,1.5,4.5,2.4c0.9,0.9,1.3,2.2,1.3,3.9c0,4-2.5,6-7.5,6
			c-3.5,0-6.5-0.7-9.1-2c-2.6-1.3-5-2.8-7-4.5c-1,1-1.8,2.3-2.4,3.9c-0.6,1.6-1,3.5-1,5.7c0,2.4,0.5,4.5,1.5,6.3
			c1,1.8,2.4,3.3,4.1,4.5c1.8,1.2,3.9,2.1,6.3,2.7c2.4,0.6,5.1,0.9,8.1,0.9c7.6,0,13.3-2.1,17.2-6.3c3.9-4.2,5.8-10,5.8-17.5
			c0-6-1.4-11-4.1-14.8c-2.8-3.8-7.4-6.8-13.8-8.8l-4-1.4c-2.1-0.7-3.5-1.5-4.2-2.3c-0.8-0.8-1.2-1.9-1.2-3.3
			C355.7,87.3,356.3,85.9,357.7,84.9z"/>
		<path id="XMLID_16_" class="st0" d="M494.2,142.1c1.6,0,3-0.1,4.4-0.4c1.4-0.3,2.4-0.5,3.4-0.8V59.2c0-4.4-0.8-7.4-2.1-8.9
			c-1.4-1.5-3.8-2.3-7-2.3c-1.5,0-3,0.2-4.5,0.5c-1.5,0.3-2.4,0.6-3.4,0.8V131c0,4.2,0.8,7.2,2.1,8.8
			C488.4,141.3,490.9,142.1,494.2,142.1z"/>
		<path id="XMLID_6_" class="st0" d="M294.1,69.6c-1.4-1.5-3.6-2.3-6.7-2.3c-1.6,0-3,0.2-4.3,0.5c-1.3,0.3-2.1,0.6-3.1,0.9v44
			c0,5.4,0.6,10.1,1.9,13.9c1.2,3.8,2.9,7,5.2,9.5c2.2,2.5,4.9,4.4,8.1,5.5c3.1,1.2,6.6,1.7,10.4,1.7c4,0,7.7-0.6,11-1.7
			c3.3-1.2,6-2.7,8.2-4.8c2.9-2.5,4.2-6.1,4.2-10.9V78.2c0-4.2-0.5-7.1-1.9-8.6c-1.4-1.5-3.6-2.3-6.8-2.3c-1.6,0-3,0.2-4.3,0.5
			c-1.3,0.3-3,0.6-3,0.9v54.4c-1,0.5-1.5,1-2.8,1.4c-1.2,0.5-2.8,0.7-4.7,0.7c-3,0-5.4-1-7-2.9c-1.6-2-2.6-5.2-2.6-9.8V78.2
			C296,74,295.5,71.1,294.1,69.6z"/>
		<path id="XMLID_5_" class="st0" d="M558.5,96.4c-1.7-2.4-3.8-4.5-6.3-6.3c-2.5-1.9-5.4-3.6-8.8-5.2l-5.7-2.7
			c-2.3-1.1-3.9-2.2-5-3.3s-1.6-2.6-1.6-4.6c0-2.3,0.8-4.2,2.4-5.7c1.6-1.5,4.1-2.3,7.5-2.3c3.2,0,6.1,0.6,8.8,1.7
			c2.7,1.1,4.8,2.5,6.5,4.1c1.1-1.2,2-2.7,2.8-4.5c0.8-1.8,1.2-3.8,1.2-6.1c0-2.4-0.5-4.5-1.6-6.3c-1.1-1.8-2.5-3.3-4.4-4.6
			c-1.8-1.3-4.1-2.2-6.6-2.8c-2.6-0.6-5.4-0.9-8.4-0.9c-8,0-14.2,2.5-18.7,7.4c-4.5,4.9-6.7,11.6-6.7,20.1c0,4.2,0.5,7.8,1.4,10.8
			c1,3,2.3,5.5,4,7.7c1.7,2.2,3.8,4,6.2,5.6c2.4,1.6,5.1,3,8.1,4.3l5.4,2.4c2.5,1.1,4.3,2.4,5.6,3.9c1.2,1.5,1.9,3.4,1.9,5.8
			c0,2.6-0.8,4.9-2.4,6.7c-1.6,1.9-4.3,2.8-8,2.8c-3.6,0-6.8-0.9-9.7-2.6c-2.9-1.7-5.3-3.7-7.2-5.9c-1.3,1.1-2.6,2.6-3.7,4.4
			c-1.1,1.8-1.6,4.1-1.6,6.8c0,2.6,0.6,5,1.8,7c1.2,2.1,2.8,3.8,4.8,5.2c2,1.4,4.4,2.5,7.2,3.3c2.8,0.8,5.8,1.1,9,1.1
			c4.4,0,8.3-0.7,11.6-2.1c3.4-1.4,6.2-3.4,8.5-5.9c2.3-2.5,4-5.5,5.2-9c1.2-3.5,1.8-7.3,1.8-11.6c0-3.9-0.4-7.4-1.3-10.5
			C561.5,101.5,560.2,98.8,558.5,96.4z"/>
		<path id="XMLID_4_" class="st0" d="M434.6,73.8c1.8-2.5,3.9-4.5,6.3-5.8c2.4-1.4,5.1-2,8.1-2c3.6,0,6.7,0.7,9.4,2.1
			c2.7,1.4,4.9,2.9,6.6,4.5c1.1-1,2.1-2.4,3-4.2c0.8-1.8,1.3-3.8,1.3-6.1c0-4.5-1.9-8.3-5.8-11.2c-3.9-2.9-9.1-4.4-15.7-4.4
			c-5,0-9.7,1-14.1,3.1c-4.4,2.1-8.1,5.1-11.4,9.2s-5.8,9.2-7.6,15.3c-1.9,6.1-2.8,13.1-2.8,21.1c0,8.5,0.9,15.7,2.8,21.8
			c1.8,6,4.4,11,7.6,15c3.3,3.9,7.1,6.8,11.4,8.7c4.4,1.9,9.1,2.8,14.2,2.8c1.8,0,3.7-0.2,5.6-0.5c1.9-0.3,3.7-0.7,5.4-1.2
			c1.7-0.5,3.3-1.1,4.7-1.8c1.4-0.7,2.6-1.5,3.6-2.3c1.7-1.4,2.8-2.8,3.6-4.2c0.8-1.4,1.1-3.6,1.1-6.5V95.7c0-2.8-0.5-4.9-1.6-6.5
			c-1.1-1.6-2.6-2.3-4.6-2.3h-17.8c-1.7,0-3.1,0.7-4.1,2.2s-1.6,3.7-1.6,7c0,1.8,0.2,3.4,0.5,5.1c0.4,1.6,0.7,2.8,1.2,3.8H456v17.3
			c-1,0.5-1.8,1-3.2,1.5c-1.4,0.5-3,0.8-4.6,0.8c-2.8,0-5.3-0.6-7.7-1.8c-2.4-1.2-4.4-3-6.1-5.4c-1.7-2.4-3-5.5-4-9.1
			c-1-3.7-1.4-8-1.4-12.9c0-4.5,0.5-8.6,1.5-12.2C431.5,79.4,432.9,76.3,434.6,73.8z"/>
		<g id="XMLID_39_">
			<path id="XMLID_43_" class="st0" d="M303.4,4.6c-10.9,0-19.7,8.9-19.7,19.7c0,16.2,17.8,32.1,18.5,32.7c0.3,0.3,0.8,0.5,1.2,0.5
				s0.9-0.2,1.2-0.5c0.8-0.7,18.5-16.5,18.5-32.7C323.2,13.5,314.3,4.6,303.4,4.6z M303.4,53.2c-3.9-3.8-16.1-16.6-16.1-28.8
				c0-8.9,7.2-16.1,16.1-16.1s16.1,7.2,16.1,16.1C319.5,36.6,307.4,49.4,303.4,53.2z"/>
			<path id="XMLID_40_" class="st0" d="M303.4,15.2c-5,0-9.1,4.1-9.1,9.2c0,5.1,4.1,9.2,9.1,9.2s9.1-4.1,9.1-9.2
				C312.6,19.3,308.5,15.2,303.4,15.2z M303.4,29.9c-3,0-5.5-2.5-5.5-5.5c0-3.1,2.5-5.5,5.5-5.5s5.5,2.5,5.5,5.5
				S306.5,29.9,303.4,29.9z"/>
		</g>
	</g>
</g>
<g id="Слой_1" class="st1">
	<path id="XMLID_8_" d="M125.9,20.9c3.7,0,7,0.5,10,1.6c3,1.1,5.6,2.7,7.7,4.9c2.1,2.2,3.8,5,4.9,8.5c1.2,3.4,1.8,7.5,1.8,12.1v34.2
		c0,2.6-0.5,4.7-1.4,6.3c-1,1.6-2.1,2.9-3.5,4c-2.2,1.9-4.9,3.4-8.1,4.4c-3.2,1-6.8,1.5-10.8,1.5c-7.3,0-13.1-2-17.4-6
		c-4.3-4-6.5-10.1-6.5-18.2c0-7,1.5-12.2,4.4-15.9c2.9-3.6,7.4-5.9,13.4-6.8l14.1-2.1v-1.7c0-3.2-0.9-5.6-2.8-7.1
		c-1.8-1.5-4.5-2.3-8-2.3c-2.7,0-5.3,0.5-7.9,1.4c-2.6,0.9-4.9,2-7,3.2c-0.8-0.8-1.6-2-2.2-3.7c-0.6-1.7-0.9-3.5-0.9-5.4
		c0-4.4,1.6-7.6,4.9-9.5c2.1-1.1,4.4-1.9,7.2-2.5C120.6,21.2,123.3,20.9,125.9,20.9z M126.5,81.2c1.6,0,3.1-0.2,4.6-0.7
		c1.5-0.5,2.7-1,3.5-1.7V64.9l-8.7,1.1c-2.3,0.3-4.1,1-5.5,2.2c-1.4,1.2-2.1,2.9-2.1,5.2c0,2.4,0.6,4.3,1.9,5.7
		C121.5,80.5,123.6,81.2,126.5,81.2z"/>
	<path id="XMLID_11_" d="M239.4,95.8c-0.8,0.3-1.8,0.6-3.1,0.8c-1.3,0.3-2.7,0.4-4.2,0.4c-3.2,0-5.5-0.7-6.8-2.2
		c-1.4-1.5-2.1-4.3-2.1-8.5V48.7c0-3.3-0.6-5.8-1.9-7.3c-1.3-1.6-3-2.3-5.2-2.3c-1.4,0-2.7,0.4-4,1.1c-1.2,0.7-2.4,1.6-3.3,2.7
		c0.1,0.5,0.1,1,0.2,1.5c0,0.5,0.1,1,0.1,1.5v49.9c-0.8,0.3-1.8,0.6-3.1,0.8c-1.3,0.3-2.7,0.4-4.2,0.4c-3.2,0-5.5-0.7-6.8-2.2
		c-1.4-1.5-2.1-4.3-2.1-8.5V48.7c0-3.3-0.7-5.8-2.1-7.3c-1.4-1.6-3.2-2.3-5.2-2.3c-1.5,0-2.8,0.3-4,1c-1.2,0.7-2.2,1.3-3,1.9v53.8
		c-0.7,0.3-1.7,0.6-3,0.8c-1.3,0.3-2.7,0.4-4.2,0.4c-3.2,0-5.5-0.7-6.9-2.2c-1.4-1.5-2.1-4.3-2.1-8.5V39.5c0-2.6,0.4-4.7,1.2-6.3
		c0.8-1.6,1.9-3.1,3.3-4.5c2.3-2.3,5.2-4.2,8.7-5.6c3.4-1.4,7-2.1,10.8-2.1c3,0,5.8,0.6,8.4,1.7c2.7,1.2,5.1,2.9,7.3,5.4
		c2.1-2,4.5-3.7,7.2-5.1c2.7-1.4,5.9-2,9.6-2c2.8,0,5.4,0.5,7.9,1.4c2.5,1,4.7,2.5,6.6,4.7c1.9,2.2,3.5,5,4.6,8.5
		c1.2,3.5,1.8,7.7,1.8,12.6V95.8z"/>
	<path id="XMLID_13_" d="M277,98.2c-1.8,0-3.5-0.2-5.1-0.7c-1.6-0.5-3-1-4.2-1.7v27.1c-0.7,0.3-1.7,0.6-3,0.9
		c-1.3,0.3-2.7,0.5-4.2,0.5c-3.2,0-5.5-0.8-6.9-2.3c-1.4-1.5-2.1-4.4-2.1-8.6V38.5c0-2.6,0.4-4.8,1.2-6.4c0.8-1.7,1.9-3.1,3.3-4.5
		c2.1-1.9,4.8-3.5,8.2-4.8c3.3-1.3,7-1.9,11-1.9c4.1,0,7.9,0.7,11.3,2.2c3.4,1.5,6.4,3.8,8.9,6.9c2.5,3.1,4.4,7.1,5.8,11.9
		c1.4,4.8,2.1,10.6,2.1,17.2c0,6.3-0.7,12-2,16.9c-1.3,4.9-3.1,9-5.5,12.2c-2.3,3.3-5.1,5.7-8.3,7.4C284.2,97.3,280.7,98.2,277,98.2
		z M274.5,79.9c3.8,0,6.8-1.7,8.9-5.1c2.1-3.4,3.1-8.6,3.1-15.6c0-7.2-1-12.3-3-15.4c-2-3.1-4.8-4.7-8.4-4.7c-1.6,0-3,0.3-4.2,0.8
		c-1.2,0.6-2.3,1.2-3.3,1.9v35.5c1,0.8,2.1,1.4,3.2,1.9C271.8,79.7,273.1,79.9,274.5,79.9z"/>
	<path id="XMLID_26_" d="M357.6,91.7c-2.3,2-5.1,3.6-8.4,4.8s-7,1.7-11,1.7c-3.8,0-7.3-0.6-10.4-1.7c-3.1-1.2-5.8-3-8-5.5
		c-2.2-2.5-4-5.7-5.2-9.5c-1.2-3.8-1.9-8.5-1.9-13.9v-44c0.8-0.3,1.8-0.6,3.1-0.9c1.3-0.3,2.7-0.5,4.2-0.5c3.2,0,5.5,0.8,6.8,2.3
		s2.1,4.4,2.1,8.6v34.3c0,4.5,0.8,7.8,2.4,9.8c1.6,2,3.9,2.9,6.9,2.9c1.8,0,3.4-0.2,4.6-0.7c1.2-0.5,2.2-0.9,2.8-1.4V23.5
		c0.7-0.3,1.7-0.6,3-0.9c1.3-0.3,2.7-0.5,4.2-0.5c3.2,0,5.5,0.8,6.9,2.3s2.1,4.4,2.1,8.6v47.8C362,85.5,360.5,89.2,357.6,91.7z"/>
	<path id="XMLID_29_" d="M415.7,74.6c0,7.5-1.9,13.3-5.8,17.5c-3.9,4.2-9.6,6.3-17.2,6.3c-3,0-5.7-0.3-8.1-0.9s-4.5-1.5-6.3-2.7
		c-1.8-1.2-3.1-2.7-4.1-4.5c-1-1.8-1.5-3.9-1.5-6.3c0-2.2,0.3-4.1,1-5.7c0.6-1.6,1.5-2.8,2.4-3.9c2.1,1.7,4.4,3.2,7,4.5
		c2.6,1.3,5.7,2,9.1,2c5,0,7.5-2,7.5-6c0-1.7-0.4-3-1.3-3.9c-0.9-0.9-2.4-1.7-4.5-2.4l-4.2-1.4c-5.8-1.7-10.1-4.4-13-7.9
		c-2.8-3.6-4.2-8.6-4.2-15c0-7.2,2-12.8,6.1-17c4.1-4.2,9.5-6.3,16.4-6.3c2.5,0,5,0.3,7.2,0.8c2.3,0.6,4.2,1.4,5.8,2.5
		c1.6,1.1,2.9,2.5,3.9,4.2c1,1.7,1.4,3.6,1.4,5.8c0,2-0.3,3.8-0.8,5.4c-0.6,1.6-1.3,2.8-2.2,3.9c-0.6-0.5-1.4-1.1-2.5-1.7
		c-1.1-0.6-2.3-1.2-3.6-1.7c-1.3-0.5-2.6-0.9-4-1.2c-1.4-0.3-2.7-0.5-3.9-0.5c-2.5,0-4.4,0.5-5.8,1.4c-1.4,1-2.1,2.4-2.1,4.3
		c0,1.4,0.4,2.5,1.2,3.3c0.8,0.8,2.2,1.6,4.2,2.3l4,1.4c6.4,2,11,4.9,13.8,8.8C414.3,63.6,415.7,68.5,415.7,74.6z"/>
	<path id="XMLID_41_" d="M504.8,82c0,2.9-0.4,5.1-1.2,6.5c-0.8,1.4-2,2.8-3.7,4.2c-1,0.8-2.2,1.6-3.6,2.3c-1.4,0.7-3,1.3-4.7,1.8
		c-1.7,0.5-3.5,0.9-5.4,1.2c-1.9,0.3-3.7,0.5-5.6,0.5c-5.1,0-9.8-0.9-14.2-2.8c-4.4-1.9-8.2-4.8-11.4-8.7c-3.3-3.9-5.8-8.9-7.6-15
		c-1.8-6-2.8-13.3-2.8-21.8c0-8,0.9-15,2.8-21.1c1.9-6.1,4.4-11.2,7.6-15.3s7-7.2,11.4-9.2c4.4-2.1,9-3.1,14.1-3.1
		c6.6,0,11.8,1.5,15.7,4.4c3.9,2.9,5.8,6.7,5.8,11.2c0,2.3-0.4,4.4-1.3,6.1c-0.8,1.8-1.8,3.2-3,4.2c-1.8-1.6-4-3.1-6.6-4.5
		c-2.7-1.4-5.8-2.1-9.4-2.1c-3,0-5.7,0.7-8.1,2c-2.4,1.4-4.5,3.3-6.3,5.8c-1.8,2.5-3.2,5.6-4.1,9.2c-1,3.6-1.5,7.7-1.5,12.2
		c0,4.9,0.5,9.2,1.4,12.9c1,3.7,2.3,6.7,4,9.1c1.7,2.4,3.7,4.2,6.1,5.4c2.4,1.2,4.9,1.8,7.7,1.8c1.7,0,3.2-0.3,4.6-0.8
		c1.4-0.5,2.5-1,3.2-1.5V60.1h-12.2c-0.4-1-0.8-2.3-1.2-3.9c-0.4-1.6-0.5-3.3-0.5-5.1c0-3.2,0.5-5.6,1.6-7.1
		c1.1-1.5,2.4-2.3,4.1-2.3h17.8c2,0,3.5,0.8,4.7,2.3c1.1,1.6,1.7,3.8,1.7,6.6V82z"/>
	<path id="XMLID_44_" d="M526.8,97c-3.3,0-5.6-0.8-7-2.4c-1.3-1.6-2-4.5-2-8.8V4c0.8-0.2,1.9-0.5,3.3-0.8c1.4-0.3,2.9-0.5,4.4-0.5
		c3.2,0,5.5,0.8,6.8,2.3c1.4,1.5,2.1,4.5,2.1,8.9v81.8c-0.8,0.3-1.9,0.6-3.3,0.8C529.8,96.8,528.3,97,526.8,97z"/>
	<path id="XMLID_46_" d="M568.7,79.1c3.8,0,6.4-0.9,8-2.8c1.6-1.9,2.4-4.1,2.4-6.7c0-2.4-0.6-4.4-1.9-5.8c-1.2-1.5-3.1-2.7-5.6-3.9
		l-5.4-2.4c-3-1.3-5.7-2.7-8.1-4.3c-2.4-1.6-4.5-3.4-6.2-5.6c-1.7-2.2-3-4.7-4-7.7c-1-3-1.4-6.6-1.4-10.8c0-8.5,2.2-15.2,6.7-20.1
		c4.5-4.9,10.7-7.4,18.7-7.4c3,0,5.9,0.3,8.4,0.9c2.6,0.6,4.8,1.5,6.6,2.8c1.8,1.3,3.3,2.8,4.4,4.6c1.1,1.8,1.6,3.9,1.6,6.3
		c0,2.3-0.4,4.4-1.2,6.1c-0.8,1.8-1.8,3.3-2.8,4.5c-1.6-1.6-3.8-3-6.5-4.1c-2.7-1.1-5.6-1.7-8.8-1.7c-3.4,0-5.9,0.8-7.5,2.3
		c-1.6,1.5-2.4,3.4-2.4,5.7c0,2,0.5,3.6,1.6,4.6s2.7,2.1,5,3.3l5.7,2.7c3.3,1.6,6.2,3.4,8.8,5.2c2.5,1.9,4.6,4,6.3,6.3
		c1.7,2.4,3,5.1,3.8,8.2c0.8,3.1,1.3,6.6,1.3,10.5c0,4.2-0.6,8.1-1.8,11.6c-1.2,3.5-2.9,6.5-5.2,9c-2.3,2.5-5.1,4.5-8.5,5.9
		c-3.4,1.4-7.2,2.1-11.6,2.1c-3.3,0-6.3-0.4-9-1.1c-2.8-0.8-5.1-1.8-7.2-3.3c-2-1.4-3.6-3.1-4.8-5.2c-1.2-2.1-1.8-4.4-1.8-7
		c0-2.7,0.5-5,1.6-6.8c1.1-1.8,2.3-3.3,3.7-4.4c1.9,2.2,4.3,4.2,7.2,5.9C561.9,78.3,565.1,79.1,568.7,79.1z"/>
</g>
</svg>
