<?xml version="1.0" encoding="UTF-8" standalone="no"?><!-- Generator: Gravit.io --><svg xmlns="http://www.w3.org/2000/svg" xmlns:xlink="http://www.w3.org/1999/xlink" style="isolation:isolate" viewBox="0 0 20 20" width="20px" height="20px"><defs><clipPath id="_clipPath_Nk0f22N4KyK17t3kvyzFuhTBPjElVGj1"><rect width="20" height="20"/></clipPath></defs><g clip-path="url(#_clipPath_Nk0f22N4KyK17t3kvyzFuhTBPjElVGj1)"><rect width="20" height="20" style="fill:rgb(244,114,114)" fill-opacity="0"/><clipPath id="_clipPath_Cs8ZgwtFCkmmZH6748FCwoKwKeZRH317"><rect x="0" y="0" width="20" height="20" transform="matrix(1,0,0,1,0,0)" fill="rgb(255,255,255)"/></clipPath><g clip-path="url(#_clipPath_Cs8ZgwtFCkmmZH6748FCwoKwKeZRH317)"><g><g><g><g><g><path d=" M 13.125 10.625 L 6.875 10.625 C 6.53 10.625 6.25 10.905 6.25 11.25 C 6.25 11.595 6.53 11.875 6.875 11.875 L 13.125 11.875 C 13.47 11.875 13.75 11.595 13.75 11.25 C 13.75 10.905 13.47 10.625 13.125 10.625 Z  M 14.375 6.875 L 5.625 6.875 C 5.28 6.875 5 7.155 5 7.5 C 5 7.845 5.28 8.125 5.625 8.125 L 14.375 8.125 C 14.72 8.125 15 7.845 15 7.5 C 15 7.155 14.72 6.875 14.375 6.875 Z  M 10 0 C 4.478 0 0 3.918 0 8.75 C 0 11.512 1.466 13.971 3.75 15.574 L 3.75 20 L 8.131 17.342 C 8.737 17.442 9.361 17.5 10 17.5 C 15.523 17.5 20 13.583 20 8.75 C 20 3.918 15.523 0 10 0 Z  M 10 16.25 C 9.27 16.25 8.565 16.165 7.888 16.021 L 4.945 17.789 L 4.984 14.891 C 2.729 13.534 1.25 11.292 1.25 8.75 C 1.25 4.608 5.167 1.25 10 1.25 C 14.833 1.25 18.75 4.608 18.75 8.75 C 18.75 12.892 14.833 16.25 10 16.25 Z " fill="rgb(62,60,60)"/></g></g></g></g></g></g></g></svg>
