<?xml version="1.0" encoding="utf-8"?>
<!-- Generator: Adobe Illustrator 19.0.1, SVG Export Plug-In . SVG Version: 6.00 Build 0)  -->
<svg version="1.1" id="Слой_2" xmlns="http://www.w3.org/2000/svg" xmlns:xlink="http://www.w3.org/1999/xlink" x="0px" y="0px"
	 viewBox="0 0 589.01 587.29" style="enable-background:new 0 0 589.01 587.29;" xml:space="preserve">
<style type="text/css">
	.st0{fill:#B0B0B0;}
</style>
<g>
	<path class="st0" d="M195.21,141.77l-35.92,10.19v0l-32.8,9.3l0,0l-24.55,6.96l-0.96-3.9l-7.53,2.14l0.82,2.89l4.55-1.29l0.96,3.9
		l1.45-0.41l4.9,19.84l-19.52,5.54l-0.04-0.15l0,0l-5.83-23.58l5.08-1.44L85,168.85l-30.43,8.63l7.27,29.41l22.56-6.4l2.28,9.24
		l-22.56,6.4l6.69,27.07l83.94-23.8l-4.57-18.5l-11.5,3.26l-1.42-5.74l4.6-1.3l-0.82-2.89l-4.5,1.27l-7.85-31.77l14.63-4.15
		l7.85,31.77l-5.01,1.42l0.82,2.89l11.71-3.32l-0.82-2.89l-3.82,1.08l-7.85-31.77l13.79-3.91l7.85,31.76l-3.46,0.98l0.82,2.89
		l3.36-0.95l1.49,6.05l-10.86,3.08l1.69,6.84l2.91-0.72l-0.99-4.02l10.86-3.08l-3.74-15.12l30.14-8.55l6.79,27.48l-41.01,11.63
		l-0.7-2.84l-2.91,0.72l1.45,5.85l46.78-13.27L195.21,141.77z M125.81,164.56l10.71,43.33h0l3.13,12.67l-21.7,6.15l-13.84-56
		L125.81,164.56z M115.06,227.54l-19.52,5.54l-2.32-9.4l19.52-5.54L115.06,227.54z M111.14,217.14l-7.38,2.09l-0.13-0.51l7.38-2.09
		L111.14,217.14z M98.06,208.34l-6.8,1.93l-0.16-0.67l6.8-1.93L98.06,208.34z M98.4,209.7l0.15,0.59l-6.8,1.93l-0.15-0.59
		L98.4,209.7z M98.88,211.65l0.15,0.59l-6.8,1.93l-0.15-0.59L98.88,211.65z M99.36,213.6l0.15,0.59l-6.8,1.93l-0.15-0.59
		L99.36,213.6z M99.84,215.55l0.16,0.67l-6.8,1.93l-0.16-0.67L99.84,215.55z M100.34,217.57l0.15,0.59l-6.8,1.93l-0.15-0.59
		L100.34,217.57z M100.82,219.52l0.13,0.51l-6.8,1.93l-0.13-0.51L100.82,219.52z M103.29,217.37l-0.15-0.59l7.38-2.09l0.15,0.59
		L103.29,217.37z M102.81,215.42l-0.16-0.67l7.38-2.09l0.16,0.67L102.81,215.42z M102.31,213.39l-0.15-0.59l7.38-2.09l0.15,0.59
		L102.31,213.39z M101.83,211.44l-0.15-0.59l7.38-2.09l0.15,0.59L101.83,211.44z M101.35,209.49l-0.15-0.59l7.38-2.09l0.15,0.59
		L101.35,209.49z M100.86,207.55l-0.16-0.67l7.38-2.09l0.16,0.67L100.86,207.55z M100.36,205.52l-0.15-0.59l7.38-2.09l0.15,0.59
		L100.36,205.52z M99.88,203.57l-0.15-0.59l7.38-2.09l0.15,0.59L99.88,203.57z M99.4,201.62l-0.15-0.59l7.38-2.09l0.15,0.59
		L99.4,201.62z M98.92,199.68l-0.16-0.67l7.38-2.09l0.16,0.67L98.92,199.68z M105.8,195.55l-7.38,2.09l-0.15-0.59l7.38-2.09
		L105.8,195.55z M102.41,219.62l-0.11,0.03l-5.94-24.05l0.11-0.03L102.41,219.62z M95.61,198.44l-6.8,1.93l-0.15-0.59l6.8-1.93
		L95.61,198.44z M95.95,199.8l0.16,0.67l-6.8,1.93l-0.16-0.67L95.95,199.8z M96.45,201.83l0.15,0.59l-6.8,1.93l-0.15-0.59
		L96.45,201.83z M96.93,203.78l0.15,0.59l-6.8,1.93l-0.15-0.59L96.93,203.78z M97.41,205.73l0.15,0.59l-6.8,1.93l-0.15-0.59
		L97.41,205.73z M105.32,193.61l-7.38,2.09l-0.13-0.51l7.38-2.09L105.32,193.61z M95.01,195.99l0.13,0.51l-6.8,1.93l-0.13-0.51
		L95.01,195.99z M64.01,203.16l-5.83-23.58L77.85,174l5.83,23.58L64.01,203.16z M67.73,218.23l19.67-5.58l5.25,21.24l-19.67,5.58
		L67.73,218.23z M151.15,217.31l-8.61,2.44l-3.13-12.67l8.61-2.44L151.15,217.31z M169.23,179.66l-6.33-25.61l30.14-8.55l6.33,25.61
		L169.23,179.66z"/>
	<path class="st0" d="M484.56,45.12l-19.64-5.76l-6.83,26.7l19.64,5.76L484.56,45.12z M472.08,45.55l-6.79-1.99l0.15-0.59l6.79,1.99
		L472.08,45.55z M471.74,46.91l-0.17,0.66l-6.79-1.99l0.17-0.66L471.74,46.91z M471.22,48.93l-0.15,0.59l-6.79-1.99l0.15-0.59
		L471.22,48.93z M470.72,50.87l-0.15,0.59l-6.79-1.99l0.15-0.59L470.72,50.87z M470.22,52.82l-0.15,0.59l-6.79-1.99l0.15-0.59
		L470.22,52.82z M469.73,54.76l-0.17,0.66l-6.79-1.99l0.17-0.66L469.73,54.76z M469.21,56.78l-0.15,0.59l-6.79-1.99l0.15-0.59
		L469.21,56.78z M468.71,58.73l-0.15,0.59l-6.79-1.99l0.15-0.59L468.71,58.73z M468.22,60.67l-0.15,0.59l-6.79-1.99l0.15-0.59
		L468.22,60.67z M467.72,62.61l-0.17,0.66l-6.79-1.99l0.17-0.66L467.72,62.61z M467.2,64.64l-0.15,0.59l-6.79-1.99l0.15-0.59
		L467.2,64.64z M474.05,43.49l0.11,0.03l-6.13,23.99l-0.11-0.03L474.05,43.49z M470.52,63.43l7.37,2.16l-0.17,0.66l-7.37-2.16
		L470.52,63.43z M470.86,62.08l0.15-0.59l7.37,2.16l-0.15,0.59L470.86,62.08z M471.36,60.13l0.15-0.59l7.37,2.16l-0.15,0.59
		L471.36,60.13z M471.86,58.19l0.15-0.59l7.37,2.16l-0.15,0.59L471.86,58.19z M472.35,56.24l0.17-0.66l7.37,2.16l-0.17,0.66
		L472.35,56.24z M472.87,54.22l0.15-0.59l7.37,2.16l-0.15,0.59L472.87,54.22z M473.37,52.28l0.15-0.59l7.37,2.16l-0.15,0.59
		L473.37,52.28z M473.87,50.34l0.15-0.59l7.37,2.16l-0.15,0.59L473.87,50.34z M474.36,48.39l0.17-0.66l7.37,2.16l-0.17,0.66
		L474.36,48.39z M474.88,46.37l0.15-0.59l7.37,2.16l-0.15,0.59L474.88,46.37z M470,65.46l7.37,2.16l-0.15,0.59l-7.37-2.16L470,65.46
		z M482.74,46.59l-7.37-2.16l0.13-0.51l7.37,2.16L482.74,46.59z M472.71,43.1l-0.13,0.51l-6.79-1.99l0.13-0.51L472.71,43.1z
		 M459.92,64.59l6.79,1.99l-0.13,0.51l-6.79-1.99L459.92,64.59z M469.37,67.91l0.13-0.51l7.37,2.16l-0.13,0.51L469.37,67.91z"/>
	<polygon class="st0" points="209.96,335.93 206.54,322.08 196.1,325.05 196.91,327.93 204.37,325.82 206.96,336.29 206.58,390.12 
		190.53,394.67 175.54,334 185.94,331.04 185.12,328.16 153.69,337.07 154.5,339.96 172.65,334.81 187.65,395.49 172.22,399.86 
		173.04,402.75 209.57,392.39 	"/>
	<path class="st0" d="M102.37,351.62l16.44,66.51l40.39-11.45l-0.82-2.89l-16.74,4.75l-15-60.68l15.39-4.36l-0.82-2.89
		L102.37,351.62z M138.75,409.36l-17.78,5.04l-15-60.68l17.78-5.04L138.75,409.36z"/>
	<path class="st0" d="M129.36,355.76l4.88,19.75l15.9-4.51l-4.88-19.75L129.36,355.76z M135.25,373.77l-4.21-17.03l13.2-3.75
		l4.21,17.03L135.25,373.77z"/>
	<path class="st0" d="M155.46,392.51l-4.88-19.75l-15.9,4.51l4.88,19.75L155.46,392.51z M149.56,374.5l4.21,17.03l-13.2,3.74
		l-4.21-17.03L149.56,374.5z"/>
	<path class="st0" d="M157.57,347.7l4.88,19.75l16.21-4.6l-4.88-19.75L157.57,347.7z M163.47,365.71l-4.21-17.03l13.52-3.83
		l4.21,17.03L163.47,365.71z"/>
	<path class="st0" d="M183.99,384.37l-4.88-19.75l-16.21,4.6l4.88,19.75L183.99,384.37z M178.09,366.36l4.21,17.03l-13.52,3.83
		l-4.21-17.03L178.09,366.36z"/>
	<path class="st0" d="M205.54,376.52l0.27-37.39l-10.96,0.11l-0.1,24.8l-5.95-24.09l-10.37,2.94l9.54,38.61L205.54,376.52z
		 M204.37,344.47l0,0.7l-8.14-0.09l0-0.7L204.37,344.47z M196.24,342.98l0-0.62l8.15,0.09l0,0.62L196.24,342.98z M204.36,346.56
		l0,0.62l-8.13-0.09l0-0.62L204.36,346.56z M204.34,348.58l0,0.62l-8.13-0.09l0-0.61L204.34,348.58z M204.33,350.59l0,0.61
		l-8.12-0.09l0-0.62L204.33,350.59z M204.31,352.61l0,0.7l-8.11-0.09l0-0.7L204.31,352.61z M204.3,354.71l0,0.61l-8.11-0.09l0-0.62
		L204.3,354.71z M204.29,356.72l0,0.62l-8.1-0.09l0-0.62L204.29,356.72z M204.27,358.74l0,0.62l-8.09-0.09l0-0.61L204.27,358.74z
		 M204.26,360.75l0,0.7l-8.09-0.09l0-0.7L204.26,360.75z M204.24,362.85l0,0.61l-8.08-0.09l0-0.61L204.24,362.85z M204.23,364.86
		l0,0.45l-8.08-0.09l0-0.45L204.23,364.86z M204.4,340.55l0,0.5l-8.15-0.09l0-0.33L204.4,340.55z M195.74,366.63l8.47,0.09
		l-0.06,8.75l-15.17,4.3l-2.61-10.56l7.67-2.18l0.02,0.08L195.74,366.63z M188.73,345.52l0.16,0.67l-7.67,2.18l-0.16-0.67
		L188.73,345.52z M180.72,346.33l-0.15-0.59l7.67-2.18l0.15,0.59L180.72,346.33z M189.23,347.54l0.15,0.59l-7.67,2.18l-0.15-0.59
		L189.23,347.54z M189.71,349.49l0.15,0.59l-7.67,2.18l-0.15-0.59L189.71,349.49z M190.19,351.44l0.15,0.59l-7.67,2.18l-0.15-0.59
		L190.19,351.44z M190.68,353.39l0.16,0.67l-7.67,2.18l-0.16-0.66L190.68,353.39z M191.18,355.41l0.15,0.59l-7.67,2.18l-0.15-0.59
		L191.18,355.41z M191.66,357.36l0.15,0.59l-7.67,2.18l-0.15-0.59L191.66,357.36z M192.14,359.31l0.15,0.59l-7.67,2.18l-0.15-0.59
		L192.14,359.31z M192.62,361.26l0.16,0.67l-7.67,2.18l-0.16-0.66L192.62,361.26z M193.12,363.29l0.15,0.59l-7.67,2.18l-0.15-0.59
		L193.12,363.29z M193.6,365.23l0.11,0.43l-7.67,2.18l-0.11-0.43L193.6,365.23z M187.79,341.7l0.13,0.51l-7.67,2.18l-0.13-0.51
		L187.79,341.7z"/>
	<path class="st0" d="M256.15,581.59l-0.66-37.14l-66.91,1.7l-0.01-0.13l-1.59,0.18c-0.54,0.06-54.49,6.15-93.12,11.07l0.38,2.98
		c34.88-4.45,82.26-9.84,91.49-10.89l1.83,37.94l82.94-3.26l-0.12-3L256.15,581.59z M188.72,549.15l63.82-1.62l0.61,34.18
		l-62.74,2.47L188.72,549.15z"/>
	<path class="st0" d="M387.01,544.79l-0.02,0.4h-66.11v37.67h-14.29v3h81.17l2.07-37.79c11.19,1.07,80.1,7.77,124.7,14.28l0.43-2.97
		c-48.49-7.07-125.63-14.37-126.41-14.44L387.01,544.79z M323.88,582.85v-34.67h62.94l-1.9,34.67H323.88z"/>
	<path class="st0" d="M464.92,489.99L588.46,38.4l0.55-2.01l-88.95,5.03l3.06-10.93l-41.9-13.34l-13.92,47.79
		c-15.99-5.06-38.39-9.85-60.02-12.81c-38.4-5.26-77.64-6.57-113.48-3.77c-26.36,2.06-54.54,7.61-79.07,12.74l-12.12-49.04
		L131.4,26.6L124.82,0L1.34,38.8L0,39.22l36.82,148.96l83.1,332.98c-17.52,2.78-27.09,4.77-33.6,6.23l0.66,2.93
		c7.43-1.67,18.89-4.02,41.79-7.49l84.03-7.98l1.16,5.09l36.84-10.69l-6.05-23.07l-2.9,0.76l5.31,20.24l-30.98,8.99L210.24,490
		l8.91-2.44l-0.79-2.89l-11.67,3.2l5.46,24.04l-82.61,7.84l-0.01-0.06c-0.38,0.06-0.75,0.11-1.12,0.17l-5.58,0.53L39.8,187.74
		l-0.07-0.27L3.59,41.24L122.67,3.82l6.55,26.51l51.22-14.52l28.35,114.7l-0.19,0.04l15.26,66.23l17.89-4.39l-5.23,189.07
		l128.97-2.56l30.16-109.81l-17.72-5.98l33-123.08l17.03,5.04l15.71-56.87l4.1-14.09l9.49,2.74l0.83-2.88l-9.49-2.74l14.64-50.29
		l36.21,11.53l-2.84,10.15l-11.9,39.03l-14-4.04l-0.83,2.88l16.84,4.86l0.08-0.27l0.79,0.24l-2.07,7.22l-15.47-4.21l-10.38,38.94
		l15.75,4.25l-1.75,6.58l40.23,10.87l38.55,9.69l-4.12,15.06l-85.95-22.57l-18.16,65.48l2.89,0.8l17.37-62.63l83.06,21.81
		l-84.65,309.45l-70.46-25.07l7.51-27.06l-0.07-0.02l0.64-2.56l22.49,6.48l5.37-22.75l16.76,5.4l5.83-23.22l-0.14-0.04L465.77,339
		l-48.62-13.5l17.69-63.79l-2.89-0.8l-17.69,63.79l-0.03-0.01l-14.95,59.18l15.54,4.34l0.81-2.89l-12.73-3.56l13.49-53.37
		l45.75,12.71l-13.69,53.38l-14.98-4.18l-0.81,2.89l15.18,4.24l-4.83,19.24l-16.81-5.41l-5.4,22.84l-22.45-6.47l-1.29,5.14
		l-36.24-11.09l-25.27,95.83h31.11c45.89,1.71,110.22,10.96,137.7,14.92c5.94,0.85,10.23,1.47,12.79,1.8l0.38-2.98
		c-2.53-0.32-7.03-0.97-12.74-1.79c-29.45-4.24-90.31-12.99-136.16-14.87c3.07-11.38,13.06-45.74,15.3-53.41L464.92,489.99z
		 M441.85,83.7c-3.02-0.95-6.08-1.84-9.18-2.7l0.22-1.03l10.8-9.68l-1.2,11.21L441.85,83.7z M204.11,79.16l-2.75-12.71l0.17-0.57
		l10.17,9.01l0.54,2.62C209.52,78.05,206.81,78.6,204.11,79.16z M202.74,79.44c-1.1,0.23-2.2,0.46-3.3,0.69l-1-4.07l2.08-6.86
		L202.74,79.44z M257.53,53.06c2.59-0.32,5.17-0.62,7.73-0.89l1.49,11.9l-9.09-10.16L257.53,53.06z M256.5,55.59l-6.12,10.56
		l-1.91-11.87c2.56-0.37,5.12-0.71,7.68-1.04L256.5,55.59z M249.04,66.62l-10.22-9.49l-0.23-1.32c2.83-0.46,5.66-0.9,8.49-1.32
		L249.04,66.62z M237.43,57.25l-6.41,11.8l-2-11.62c2.72-0.48,5.46-0.95,8.2-1.41L237.43,57.25z M229.53,68.7l-9.65-8.5l-0.21-1.04
		c2.64-0.5,5.29-1,7.97-1.48L229.53,68.7z M218.65,61.15l-6,11.4l-2.36-11.56c2.65-0.53,5.31-1.05,8.01-1.57L218.65,61.15z
		 M211.23,72.6l-10.4-9.22l-0.08,0.25l-0.15-0.68c2.74-0.56,5.5-1.13,8.31-1.69L211.23,72.6z M213.6,77.23l-0.51-2.52l6-11.4
		l2.53,12.36C218.94,76.18,216.27,76.7,213.6,77.23z M222.99,75.42l-2.65-12.94l9.56,8.42l0.54,3.16
		C227.96,74.5,225.47,74.95,222.99,75.42z M231.83,73.82l-0.44-2.54l6.42-11.81l2.26,12.98C237.31,72.89,234.56,73.35,231.83,73.82z
		 M241.45,72.24l-2.23-12.83l10.18,9.46l0.35,2.16C246.96,71.4,244.2,71.81,241.45,72.24z M251.14,70.83l-0.4-2.51l6.1-10.53
		l1.83,12.08C256.14,70.18,253.63,70.5,251.14,70.83z M260.06,69.73l-2.02-13.29l9.01,10.07l0.31,2.45
		C264.91,69.2,262.48,69.45,260.06,69.73z M268.76,68.83l-0.25-1.97l6.42-10.92l1.45,12.29c-0.85,0.06-1.71,0.12-2.57,0.18
		C272.12,68.53,270.43,68.68,268.76,68.83z M303.79,62.45l-9.16-11.12l-0.09-1.11c3.06-0.1,6.15-0.17,9.25-0.22V62.45z M293.31,52.3
		l-7.27,12.23l-1.3-13.86c2.79-0.15,5.59-0.28,8.4-0.39L293.31,52.3z M284.5,63.08l-8.54-10.44l-0.17-1.4
		c2.5-0.19,5.02-0.35,7.55-0.49L284.5,63.08z M277.78,68.12l-1.52-12.9l8.48,10.35l0.2,2.1C282.54,67.8,280.15,67.95,277.78,68.12z
		 M286.33,67.59l-0.07-0.7l7.25-12.2l1.06,12.53C291.81,67.32,289.07,67.45,286.33,67.59z M295.97,67.18l-1.13-13.39l8.95,10.86
		v2.33C301.18,67.02,298.57,67.09,295.97,67.18z M305.19,63.51l8.15-9.86v13.23c-2.72,0-5.44,0.03-8.15,0.07V63.51z M377.68,66.63
		l-7.24-12.13l0.09-1.37c2.73,0.29,5.46,0.6,8.18,0.93L377.68,66.63z M369.01,54.91l-8.97,9.79l0.95-12.52
		c2.72,0.24,5.44,0.51,8.15,0.79L369.01,54.91z M358.69,63.97l-6.81-11.11l0.09-1.41c2.54,0.19,5.08,0.39,7.62,0.62L358.69,63.97z
		 M350.44,53.41l-8.11,10.49l0.31-13.07c2.64,0.15,5.29,0.32,7.93,0.51L350.44,53.41z M340.94,63.62l-7.2-11.48V50.4
		c2.5,0.1,5,0.22,7.51,0.36L340.94,63.62z M332.34,51.52l-9.57,11.25l0.05-12.71c3.16,0.07,6.34,0.17,9.52,0.29V51.52z
		 M321.37,61.27l-6.63-9.13v-2.19c2.22,0.01,4.44,0.04,6.68,0.08L321.37,61.27z M314.75,54.52l6.62,9.12l-0.01,3.3
		c-2.2-0.03-4.41-0.05-6.61-0.05V54.52z M322.76,64.94l9.58-11.26V67.2c-3.2-0.11-6.4-0.2-9.59-0.25L322.76,64.94z M333.74,54.78
		l7.14,11.38l-0.03,1.4c-2.37-0.12-4.74-0.22-7.11-0.31V54.78z M342.28,66.26l8-10.35l-0.79,12.14c-2.41-0.16-4.83-0.3-7.24-0.42
		L342.28,66.26z M351.73,55.27l6.78,11.08l-0.18,2.35c-2.48-0.2-4.96-0.39-7.45-0.55L351.73,55.27z M359.87,66.96l8.99-9.81
		L368,69.57c-2.76-0.27-5.51-0.53-8.28-0.76L359.87,66.96z M370.28,56.94l7.21,12.08l-0.13,1.56c-2.65-0.31-5.3-0.6-7.96-0.87
		L370.28,56.94z M378.95,68.31l8.4-8.52l-1.18,11.9c-2.47-0.33-4.94-0.64-7.42-0.94L378.95,68.31z M431.99,77.42l-5.29-12.44
		l0.42-2.42c2.61,0.62,5.15,1.25,7.61,1.9L431.99,77.42z M436.09,64.82c3.09,0.82,6.02,1.66,8.78,2.52l-11.5,10.31L436.09,64.82z
		 M425.53,63.56l-10.62,9.3l2.27-12.5c2.92,0.61,5.79,1.24,8.58,1.89L425.53,63.56z M413.63,72.01l-5.71-12.58l0.1-0.89
		c2.62,0.49,5.21,1,7.77,1.52L413.63,72.01z M406.42,60.29l-9.59,9.63l1.72-13.04c2.71,0.45,5.41,0.92,8.09,1.41L406.42,60.29z
		 M395.55,68.98l-6.24-11.87l-0.3,0.16l0.18-1.83c2.66,0.38,5.32,0.78,7.98,1.21L395.55,68.98z M388.81,59.18l6.42,12.21l-0.21,1.58
		c-2.39-0.37-4.8-0.73-7.25-1.06c-0.07-0.01-0.15-0.02-0.22-0.03L388.81,59.18z M396.53,72.2l9.64-9.68l-1.35,12.11
		c-2.77-0.51-5.57-0.99-8.42-1.45L396.53,72.2z M407.62,62.15l5.57,12.28l-0.32,1.78c-2.2-0.46-4.42-0.9-6.67-1.32L407.62,62.15z
		 M414.5,75.07l10.64-9.31l-2.2,12.7c-2.86-0.69-5.76-1.34-8.7-1.96L414.5,75.07z M426.26,67.53l5.23,12.29l-0.17,0.8
		c-2.31-0.63-4.65-1.24-7.01-1.82L426.26,67.53z M445.39,67.5c0.36,0.11,0.73,0.22,1.08,0.33l-1.76,6.03L445.39,67.5z M387.8,55.24
		l-0.23,2.33l-8.44,8.56l0.98-11.91c2.26,0.28,4.52,0.57,6.77,0.88C387.19,55.15,387.49,55.2,387.8,55.24z M313.35,49.95v1.51
		l-8.15,9.85V49.99C307.9,49.95,310.62,49.94,313.35,49.95z M274.04,51.36c0.11-0.01,0.23-0.02,0.34-0.02l0.27,2.29l-6.43,10.94
		l-1.57-12.54C269.14,51.79,271.6,51.56,274.04,51.36z M199.23,63.24l0.68,3.15l-2.13,7.02l-2.32-9.38
		C196.71,63.76,197.96,63.5,199.23,63.24z M425.87,141.34l-17.05-5.05L374.3,265.06l17.71,5.98l-28.82,104.92l-123.58,2.45
		l0.38-13.62l26.12-0.85l-1.35-11.74l85.58-11.17v18.41l16.92,0.77l0.06-1.4l-15.58-0.71v-17.88l0.05,0l-1.08-57.97l-92.96,29.03
		l5.48,39.89l1.32,11.41l-24.51,0.79l4.84-174.84l-18.75,4.6l-12.37-53.72l55.3-0.66l11.87-2.8l-0.32-1.36l-11.64,2.76l-55.19,0.66
		l-13.59-54.98c23.89-4.99,47.58-9.6,73.89-11.65c36.64-2.86,75.83-1.66,113.32,3.48c19.6,2.69,37.15,6.52,53.64,11.71l-0.24,0.81
		l-0.71,2.57l-15.89-2.54l0-0.01l-48.22-6.9l-2.26,18.13l47.05,6.74l0.84,3.18l-44.88,10.06l-1.73-6.42l-49.05,11.65l-4.23-16.66
		l-24.1,6.71l0-0.01l-0.67,0.2l-0.68,0.19l0,0.01l-19.21,5.69l20.68,80.01l19.21-5.69l0,0l0.37-0.11l0.97-0.29l0,0l23.67-7.04
		l-15.66-61.65l47.71-11.33l1.54,5.73l3.36,17.21l46.99-10.53l4.43-0.97L425.87,141.34z M259.28,312.27l90.05-28.12l0.02,1.08
		l-89.97,27.78L259.28,312.27z M262.45,335.28l87.33-26.97l0.02,1.12l-87.21,26.93L262.45,335.28z M262.79,337.77l87.04-26.88
		l0.01,0.8l-86.95,26.86L262.79,337.77z M349.68,303.2l0.02,1.24l-87.77,27.11l-0.16-1.19L349.68,303.2z M261.57,328.95l-0.08-0.6
		l88.15-27.22l0.01,0.62L261.57,328.95z M349.57,297.09l-88.6,27.47l-0.12-0.88l88.7-27.39L349.57,297.09z M260.16,318.69
		l89.29-27.58l0.02,1.18l-89.16,27.53L260.16,318.69z M259.97,317.29l-0.12-0.88l89.56-27.66l0.02,0.91L259.97,317.29z
		 M349.38,286.68l0.01,0.61l-89.73,27.71l-0.08-0.59L349.38,286.68z M349.51,293.76l0.02,1.07l-88.87,27.44l-0.14-1.04
		L349.51,293.76z M349.6,298.55l0.02,1.13l-88.32,27.27l-0.13-0.98L349.6,298.55z M349.73,305.9l0.02,0.96l-87.5,27.02l-0.13-0.93
		L349.73,305.9z M349.87,313.15l0.01,0.61l-86.71,26.79l-0.08-0.59L349.87,313.15z M349.91,315.22l0.45,24.4l-85.78,11.2l-1.22-8.86
		L349.91,315.22z M430.72,123.78l-4.5,0.99l-3.23-16.53l-0.04,0.01l-0.93-3.55L424,88.81l15.69,2.5L430.72,123.78z M377.42,119.89
		l2.89,15.17l-0.33,0.07l-2.96-15.15L377.42,119.89z M381.68,134.75l-2.89-15.17l0.56-0.12l2.89,15.17L381.68,134.75z M383.6,134.32
		l-2.89-15.17l0.43-0.1l2.89,15.17L383.6,134.32z M385.39,133.92l-2.89-15.17l0.56-0.12l2.89,15.17L385.39,133.92z M387.31,133.49
		l-2.89-15.17l0.53-0.12l2.89,15.17L387.31,133.49z M389.21,133.06l-2.89-15.17l0.56-0.12l2.89,15.17L389.21,133.06z M391.13,132.63
		l-2.89-15.17l0.46-0.1l2.89,15.17L391.13,132.63z M392.96,132.22l-2.89-15.17l0.56-0.12l2.89,15.17L392.96,132.22z M394.88,131.79
		l-2.89-15.17l0.46-0.1l2.89,15.17L394.88,131.79z M396.71,131.38l-2.89-15.17l0.56-0.12l2.89,15.17L396.71,131.38z M398.63,130.95
		l-2.89-15.17l7.48-1.68l2.89,15.17L398.63,130.95z M407.48,128.97l-2.89-15.17l0.56-0.12l2.89,15.17L407.48,128.97z M409.4,128.54
		l-2.89-15.17l0.43-0.1l2.89,15.17L409.4,128.54z M411.19,128.13l-2.89-15.17l0.56-0.12l2.89,15.17L411.19,128.13z M413.11,127.7
		l-2.89-15.17l0.53-0.12l2.89,15.17L413.11,127.7z M415.01,127.28l-2.89-15.17l0.56-0.12l2.89,15.17L415.01,127.28z M416.93,126.85
		l-2.89-15.17l0.46-0.1l2.89,15.17L416.93,126.85z M418.76,126.44l-2.89-15.17l0.56-0.12l2.89,15.17L418.76,126.44z M420.68,126.01
		l-2.89-15.17l0.46-0.1l2.89,15.17L420.68,126.01z M422.51,125.6l-2.89-15.17l0.56-0.12l2.89,15.17L422.51,125.6z M424.43,125.17
		L421.54,110l0.35-0.08l2.96,15.15L424.43,125.17z M375.25,97.44l1.92-15.35l0.18,0.03l-1.99,15.34L375.25,97.44z M378.74,82.32
		l0.56,0.08l-1.99,15.34l-0.56-0.08L378.74,82.32z M380.68,82.6l0.66,0.09l-1.99,15.34l-0.66-0.09L380.68,82.6z M382.73,82.89
		l0.56,0.08l-1.99,15.34l-0.56-0.08L382.73,82.89z M384.67,83.17l0.53,0.08l-1.99,15.34l-0.53-0.08L384.67,83.17z M386.59,83.45
		l0.56,0.08l-1.99,15.34l-0.56-0.08L386.59,83.45z M388.54,83.72l0.46,0.07l-1.99,15.34l-0.46-0.07L388.54,83.72z M390.39,83.99
		l0.56,0.08l-1.99,15.34l-0.56-0.08L390.39,83.99z M392.34,84.27l0.46,0.07l-1.99,15.34l-0.47-0.07L392.34,84.27z M394.19,84.53
		l0.56,0.08l-1.99,15.34l-0.56-0.08L394.19,84.53z M396.13,84.81l7.57,1.08l-1.99,15.34l-7.57-1.08L396.13,84.81z M405.09,86.09
		l0.56,0.08l-1.99,15.34l-0.56-0.08L405.09,86.09z M407.04,86.37l0.43,0.06l-1.99,15.34l-0.43-0.06L407.04,86.37z M408.85,86.63
		l0.56,0.08l-1.99,15.34l-0.56-0.08L408.85,86.63z M410.8,86.91l0.53,0.08l-1.99,15.34l-0.53-0.08L410.8,86.91z M412.72,87.19
		l0.56,0.08l-1.99,15.34l-0.56-0.08L412.72,87.19z M414.67,87.47l0.46,0.07l-1.99,15.34l-0.46-0.07L414.67,87.47z M416.51,87.73
		l0.56,0.08l-1.99,15.34l-0.56-0.08L416.51,87.73z M418.46,88.01l0.46,0.07l-1.99,15.34l-0.46-0.07L418.46,88.01z M420.31,88.27
		l0.56,0.08l-1.99,15.34l-0.56-0.08L420.31,88.27z M422.26,88.55l0.35,0.05l-1.92,15.35l-0.43-0.06L422.26,88.55z M340.24,185.89
		l-10.11,3.01l-0.44-1.78l10.14-2.87L340.24,185.89z M329.35,185.76l-0.39-1.57l10.12-2.87l0.4,1.57L329.35,185.76z M328.63,182.83
		l-0.36-1.46l10.1-2.86l0.37,1.45L328.63,182.83z M327.93,180.01l-0.36-1.46l10.08-2.86l0.37,1.45L327.93,180.01z M327.24,177.2
		l-0.36-1.46l10.06-2.85l0.37,1.45L327.24,177.2z M326.54,174.38l-0.39-1.57l10.04-2.85l0.4,1.57L326.54,174.38z M325.82,171.45
		l-0.36-1.46l10.03-2.84l0.37,1.45L325.82,171.45z M325.12,168.63l-0.36-1.46l10.01-2.84l0.37,1.45L325.12,168.63z M324.42,165.82
		l-0.36-1.46l9.99-2.83l0.37,1.45L324.42,165.82z M323.73,163l-0.39-1.57l9.97-2.83l0.4,1.57L323.73,163z M323,160.07l-0.36-1.46
		l9.95-2.82l0.37,1.45L323,160.07z M322.31,157.26l-0.25-1.01l9.94-2.82l0.26,1.01L322.31,157.26z M320.83,155.14l0.09,0.33
		l-0.47,0.12l8.33,33.71l-0.64,0.19l-8.23-33.7l-0.98,0.24l-0.09-0.33l-9.73,2.76l-2.44-9.43l9.69-2.75l-0.19-0.67l0.68-0.17
		l-8.1-33.21l0.63-0.18l8.19,33.13l0.68-0.17l0.19,0.67l10.81-3.07l2.4,9.44L320.83,155.14z M318.81,157.17l0.25,1.01l-9.34,2.65
		l-0.26-1L318.81,157.17z M316.66,187.68l8.98-2.55l0.38,1.57l-8.96,2.54L316.66,187.68z M316.31,186.32l-0.38-1.45l9.02-2.56
		l0.36,1.46L316.31,186.32z M315.58,183.51l-0.38-1.45l9.06-2.57l0.36,1.46L315.58,183.51z M314.86,180.71l-0.38-1.45l9.09-2.58
		l0.36,1.46L314.86,180.71z M314.13,177.9l-0.4-1.56l9.13-2.59l0.38,1.57L314.13,177.9z M313.38,174.98l-0.38-1.45l9.17-2.6
		l0.36,1.46L313.38,174.98z M312.65,172.17l-0.38-1.45l9.21-2.61l0.36,1.46L312.65,172.17z M311.92,169.36l-0.38-1.45l9.24-2.62
		l0.36,1.46L311.92,169.36z M311.2,166.55l-0.4-1.56l9.28-2.63l0.38,1.57L311.2,166.55z M310.44,163.63l-0.38-1.45l9.32-2.64
		l0.36,1.46L310.44,163.63z M305.94,146.22l9.03-2.56l0.36,1.46l-9.01,2.56L305.94,146.22z M305.59,144.87l-0.4-1.56l9.07-2.57
		l0.38,1.57L305.59,144.87z M304.84,141.95l-0.38-1.45l9.11-2.58l0.36,1.46L304.84,141.95z M304.11,139.14l-0.38-1.45l9.15-2.59
		l0.36,1.46L304.11,139.14z M303.39,136.33l-0.38-1.45l9.19-2.6l0.36,1.46L303.39,136.33z M302.66,133.52l-0.4-1.56l9.22-2.62
		l0.38,1.57L302.66,133.52z M301.91,130.6l-0.38-1.45l9.26-2.63l0.36,1.46L301.91,130.6z M301.18,127.8l-0.38-1.45l9.3-2.64
		l0.36,1.46L301.18,127.8z M300.46,124.99l-0.38-1.45l9.34-2.65l0.36,1.46L300.46,124.99z M299.73,122.18l-0.4-1.56l9.38-2.66
		l0.38,1.57L299.73,122.18z M298.98,119.26l-0.38-1.45l9.41-2.67l0.36,1.46L298.98,119.26z M307.4,112.61l0.28,1.16l-9.43,2.67
		l-0.31-1.21L307.4,112.61z M297.77,120.17l-9.14,2.71l0,0l-8.73,2.59l-1.17-4.54l17.87-5.3L297.77,120.17z M314.44,187.99l-7,2.08
		l-17.11-66.22l7-2.08L314.44,187.99z M305.25,190.71l-7,2.08l-17.11-66.22l7-2.08L305.25,190.71z M306.94,191.67L306.94,191.67
		l8.64-2.56l0.99,3.83l-17.87,5.3l-0.99-3.83L306.94,191.67z M317.41,190.6l8.94-2.53l0.45,1.83l-8.89,2.64L317.41,190.6z
		 M314.16,125.57l10.03-2.85l0.37,1.45l-10.04,2.85L314.16,125.57z M313.83,124.21l-0.36-1.46l10.02-2.84l0.37,1.45L313.83,124.21z
		 M313.13,121.39l-0.36-1.46l10-2.83l0.37,1.45L313.13,121.39z M312.44,118.58l-0.39-1.57l9.98-2.83l0.4,1.57L312.44,118.58z
		 M311.71,115.65l-0.36-1.46l9.96-2.83l0.37,1.45L311.71,115.65z M311.02,112.83l-0.28-1.15l9.96-2.77l0.28,1.1L311.02,112.83z
		 M318.76,144.15l-0.36-1.46l10.14-2.88l0.37,1.45L318.76,144.15z M318.06,141.33l-0.39-1.57l10.12-2.87l0.4,1.57L318.06,141.33z
		 M317.34,138.4l-0.36-1.46l10.11-2.87l0.37,1.45L317.34,138.4z M316.64,135.59l-0.36-1.46l10.09-2.86l0.37,1.45L316.64,135.59z
		 M315.94,132.77l-0.36-1.46l10.07-2.86l0.37,1.45L315.94,132.77z M315.25,129.95l-0.39-1.57l10.05-2.85l0.4,1.57L315.25,129.95z
		 M514.65,146.08L477.34,136l1.75-6.58l-15.75-4.25l8.83-33.13l15.42,4.2l3.69-12.88l-3.6-1.12l11.51-37.75l85.83-4.86
		l-31.78,116.16L514.65,146.08z M365.55,514.51h-26.09l23.48-89.05l33.41,10.22L389.59,460l-7.2-2.56l0.08-0.28l-8.99-2.7
		l-0.03,0.12l-9.79-2.94l-8.62,33l0.68,0.18l-0.21,0.69l8.99,2.69l0.03-0.12l7.81,2.34C369.51,500.3,366.8,509.83,365.55,514.51z
		 M369.22,473.48l7.38,2.21c-0.06,0.19-0.11,0.39-0.17,0.58l-7.36-2.21L369.22,473.48z M369.57,472.13l0.15-0.59l7.43,2.23
		c-0.06,0.19-0.11,0.38-0.17,0.58L369.57,472.13z M370.08,470.19l0.15-0.58l7.48,2.24c-0.06,0.19-0.11,0.39-0.17,0.58L370.08,470.19
		z M370.58,468.24l0.17-0.66l7.53,2.26c-0.06,0.22-0.13,0.44-0.19,0.66L370.58,468.24z M371.11,466.23l0.15-0.58l7.58,2.27
		c-0.06,0.19-0.11,0.38-0.17,0.58L371.11,466.23z M371.62,464.29l0.15-0.59l7.64,2.29c-0.06,0.19-0.11,0.38-0.17,0.58L371.62,464.29
		z M372.13,462.34l0.15-0.58l7.65,2.29l-0.15,0.59L372.13,462.34z M372.63,460.4l0.17-0.66l7.65,2.29l-0.17,0.66L372.63,460.4z
		 M373.16,458.39l0.15-0.58l7.65,2.29l-0.15,0.58L373.16,458.39z M368.71,475.42l7.33,2.2c-0.06,0.22-0.13,0.44-0.19,0.66
		l-7.31-2.19L368.71,475.42z M381.31,458.74l-7.65-2.29l0.11-0.43l7.65,2.29L381.31,458.74z M369.8,465.23l-7.65-2.29l2.49-9.54
		l7.65,2.29L369.8,465.23z M361.8,464.3l7.65,2.29l-0.17,0.66l-7.65-2.29L361.8,464.3z M361.27,466.31l7.65,2.29l-0.15,0.58
		l-7.65-2.29L361.27,466.31z M360.77,468.25l7.65,2.29l-0.15,0.59l-7.65-2.29L360.77,468.25z M360.26,470.2l7.65,2.29l-0.15,0.58
		l-7.65-2.29L360.26,470.2z M359.75,472.14l7.65,2.29l-0.17,0.66l-7.65-2.29L359.75,472.14z M359.23,474.15l7.65,2.29l-0.15,0.59
		l-7.65-2.29L359.23,474.15z M358.72,476.1l7.65,2.29l-0.15,0.58l-7.65-2.29L358.72,476.1z M358.21,478.04l7.65,2.29l-0.15,0.58
		l-7.65-2.29L358.21,478.04z M357.7,479.98l7.65,2.29l-0.17,0.66l-7.65-2.29L357.7,479.98z M357.18,482l7.65,2.29l-0.15,0.59
		l-7.65-2.29L357.18,482z M356.67,483.94l7.65,2.29l-0.11,0.43l-7.65-2.29L356.67,483.94z M368.18,477.44l7.28,2.18
		c-0.89,3.07-1.81,6.27-2.73,9.47l-7.04-2.11L368.18,477.44z"/>
	<path class="st0" d="M205.99,488.07l0.65-0.19l-5.41-21.1l-61.33,18.04l-0.65,0.19l5.41,21.1L205.99,488.07z M196.45,470.52
		l1.85,7.22l-50.75,14.93l-1.85-7.22L196.45,470.52z M198.87,479.96l1.85,7.22l-50.75,14.92l-1.85-7.22L198.87,479.96z
		 M204.95,486.92l-2.65,0.78l-2.31-9h0l-2.41-9.39l2.65-0.78L204.95,486.92z M144.15,485.02l2.28,8.9l0,0l2.43,9.48l-3.2,0.94
		l-4.71-18.39L144.15,485.02z"/>
	<path class="st0" d="M237.88,233.81l-11.17-0.24l-0.96,66.36l10.94-11.22L237.88,233.81z M227.33,287.59l0.01-0.62l7.98,0.26
		l-0.01,0.62L227.33,287.59z M227.35,285.58l0.01-0.62l8,0.26l-0.01,0.62L227.35,285.58z M227.38,283.56l0.01-0.62l8.01,0.26
		l-0.01,0.62L227.38,283.56z M227.41,281.54l0.01-0.7l8.03,0.26l-0.02,0.7L227.41,281.54z M227.44,279.45l0.01-0.62l8.04,0.26
		l-0.01,0.62L227.44,279.45z M227.47,277.43l0.01-0.62l8.06,0.26l-0.01,0.62L227.47,277.43z M227.5,275.42l0.01-0.62l8.07,0.26
		l-0.01,0.62L227.5,275.42z M227.53,273.4l0.01-0.7l8.09,0.26l-0.02,0.7L227.53,273.4z M227.56,271.31l0.01-0.62l8.1,0.26
		l-0.01,0.62L227.56,271.31z M227.59,269.29l0.11-7.77l8.17,0.26l-0.17,7.77L227.59,269.29z M235.9,260.39l-8.18-0.26l0.01-0.46
		l8.18,0.26L235.9,260.39z M227.75,258.27l0.01-0.62l8.2,0.27l-0.01,0.62L227.75,258.27z M227.78,256.25l0.01-0.7l8.21,0.27
		l-0.02,0.7L227.78,256.25z M227.81,254.16l0.01-0.62l8.23,0.27l-0.01,0.62L227.81,254.16z M227.84,252.14l0.01-0.62l8.24,0.27
		l-0.01,0.62L227.84,252.14z M227.87,250.13l0.01-0.62l8.26,0.27l-0.01,0.62L227.87,250.13z M227.89,248.11l0.01-0.7l8.27,0.27
		l-0.02,0.7L227.89,248.11z M227.92,246.01l0.01-0.62l8.29,0.27l-0.01,0.62L227.92,246.01z M236.35,239.54l-0.02,0.7l-8.33-0.27
		l0.01-0.7L236.35,239.54z M228.04,237.87l0.01-0.62l8.35,0.27l-0.01,0.62L228.04,237.87z M236.31,241.64l-0.01,0.62l-8.31-0.27
		l0.01-0.62L236.31,241.64z M236.26,243.65l-0.01,0.62l-8.3-0.27l0.01-0.62L236.26,243.65z M236.45,235.18l-0.02,0.95l-8.36-0.27
		l0.01-0.86L236.45,235.18z M227.31,288.99l6.93,0.22l-7.04,7.22L227.31,288.99z"/>
	<path class="st0" d="M426.36,385.57l19.26,5.27l3.9-16.4l-19.62-5.37l0,0.02l-19.26-5.27l-3.9,16.4l19.62,5.37L426.36,385.57z
		 M447.83,375.43l-3.25,13.67l-16.92-4.63l3.25-13.67L447.83,375.43z M408.4,379.22l3.25-13.67l16.92,4.63l-3.25,13.67L408.4,379.22
		z"/>
	<path class="st0" d="M220.2,503.28l20.33,0.83l0.11-16.85l-20.33-0.83L220.2,503.28z M221.7,487.88l17.53,0.71l-0.09,14.05
		l-17.53-0.71L221.7,487.88z"/>
</g>
</svg>
