<?xml version="1.0" encoding="UTF-8" standalone="no"?><!-- Generator: Gravit.io --><svg xmlns="http://www.w3.org/2000/svg" xmlns:xlink="http://www.w3.org/1999/xlink" style="isolation:isolate" viewBox="0 0 15 15" width="20px" height="20px"><defs><clipPath id="_clipPath_ld6CVLyirdV5I01bVnreHI2vA6oV29wM"><rect width="15" height="15"/></clipPath></defs><g clip-path="url(#_clipPath_ld6CVLyirdV5I01bVnreHI2vA6oV29wM)"><g><g><g><path d=" M 11.772 1.6 C 10.628 0.568 9.111 0 7.5 0 C 5.889 0 4.372 0.568 3.228 1.6 C 0.888 3.712 0.888 7.148 3.227 9.259 L 7.05 12.723 C 7.168 12.829 7.33 12.889 7.5 12.889 C 7.67 12.889 7.833 12.829 7.95 12.723 L 11.772 9.26 C 14.113 7.148 14.113 3.712 11.772 1.6 Z  M 10.873 8.51 L 7.5 11.566 L 4.127 8.509 C 2.245 6.811 2.245 4.048 4.127 2.351 C 5.033 1.533 6.231 1.082 7.5 1.082 C 8.769 1.082 9.967 1.533 10.874 2.351 C 12.755 4.049 12.755 6.811 10.873 8.51 Z  M 7.5 2.715 C 6.114 2.715 4.986 3.694 4.986 4.898 C 4.986 6.101 6.114 7.081 7.5 7.081 C 8.886 7.081 10.014 6.101 10.014 4.898 C 10.014 3.694 8.886 2.715 7.5 2.715 Z  M 7.5 5.998 C 6.801 5.998 6.233 5.505 6.233 4.898 C 6.233 4.291 6.801 3.797 7.5 3.797 C 8.199 3.797 8.767 4.291 8.767 4.898 C 8.767 5.505 8.199 5.998 7.5 5.998 Z  M 14.996 14.398 L 14.373 9.582 C 14.338 9.308 14.071 9.101 13.754 9.101 L 10.492 9.101 L 10.492 10.183 L 13.197 10.183 L 13.68 13.918 L 1.321 13.918 L 1.804 10.183 L 4.508 10.183 L 4.508 9.101 L 1.246 9.101 C 0.929 9.101 0.663 9.308 0.627 9.582 L 0.004 14.398 C -0.016 14.552 0.04 14.704 0.159 14.819 C 0.277 14.934 0.446 15 0.623 15 L 14.377 15 C 14.554 15 14.723 14.934 14.841 14.819 C 14.96 14.704 15.016 14.551 14.996 14.398 Z " fill-rule="evenodd" fill="rgb(0,0,0)"/></g></g></g></g></svg>
