<?xml version="1.0" encoding="UTF-8" standalone="no"?><!-- Generator: Gravit.io --><svg xmlns="http://www.w3.org/2000/svg" xmlns:xlink="http://www.w3.org/1999/xlink" style="isolation:isolate" viewBox="0 0 20 20" width="20px" height="20px"><defs><clipPath id="_clipPath_W6lC3naTAppS9tJ3pKMj64O52Me8EQsd"><rect width="20" height="20"/></clipPath></defs><g clip-path="url(#_clipPath_W6lC3naTAppS9tJ3pKMj64O52Me8EQsd)"><g><g><g><path d=" M 10 4.299 C 7.953 4.299 6.287 5.965 6.287 8.012 C 6.287 10.06 7.953 11.725 10 11.725 C 12.047 11.725 13.713 10.06 13.713 8.012 C 13.713 5.965 12.047 4.299 10 4.299 Z  M 10 10.162 C 8.815 10.162 7.85 9.198 7.85 8.012 C 7.85 6.827 8.815 5.863 10 5.863 C 11.185 5.863 12.15 6.827 12.15 8.012 C 12.15 9.198 11.185 10.162 10 10.162 Z " fill="rgb(232,76,120)"/></g></g><g><g><path d=" M 10 0 C 5.582 0 1.988 3.594 1.988 8.012 L 1.988 8.234 C 1.988 10.468 3.269 13.072 5.795 15.973 C 7.627 18.075 9.433 19.542 9.509 19.603 L 10 20 L 10.491 19.603 C 10.567 19.542 12.373 18.075 14.205 15.973 C 16.731 13.072 18.012 10.468 18.012 8.234 L 18.012 8.012 C 18.012 3.594 14.418 0 10 0 Z  M 16.449 8.234 C 16.449 12.01 11.584 16.581 10 17.968 C 8.416 16.58 3.551 12.009 3.551 8.234 L 3.551 8.012 C 3.551 4.456 6.444 1.563 10 1.563 C 13.556 1.563 16.449 4.456 16.449 8.012 L 16.449 8.234 L 16.449 8.234 Z " fill="rgb(232,76,120)"/></g></g></g></g></svg>
