<?xml version="1.0" encoding="UTF-8" standalone="no"?><!-- Generator: Gravit.io --><svg xmlns="http://www.w3.org/2000/svg" xmlns:xlink="http://www.w3.org/1999/xlink" style="isolation:isolate" viewBox="0 0 20 20" width="20px" height="20px"><defs><clipPath id="_clipPath_nOlDWBVWKdZNHH8k6ghZ11PzbZNkPnSL"><rect width="20" height="20"/></clipPath></defs><g clip-path="url(#_clipPath_nOlDWBVWKdZNHH8k6ghZ11PzbZNkPnSL)"><g><path d=" M 19.772 18.673 L 14.891 13.792 C 16.104 12.333 16.835 10.459 16.835 8.418 C 16.835 3.776 13.059 0 8.418 0 C 3.776 0 0 3.776 0 8.418 C 0 13.059 3.776 16.835 8.418 16.835 C 10.459 16.835 12.333 16.104 13.791 14.891 L 18.673 19.772 C 18.824 19.924 19.023 20 19.222 20 C 19.421 20 19.62 19.924 19.772 19.772 C 20.076 19.468 20.076 18.976 19.772 18.673 Z  M 1.555 8.418 C 1.555 4.634 4.634 1.555 8.418 1.555 C 12.202 1.555 15.28 4.634 15.28 8.418 C 15.28 12.202 12.202 15.28 8.418 15.28 C 4.634 15.28 1.555 12.202 1.555 8.418 Z " fill="rgb(232,76,120)"/></g></g></svg>
