<?xml version="1.0" encoding="UTF-8" standalone="no"?><!-- Generator: Gravit.io --><svg xmlns="http://www.w3.org/2000/svg" xmlns:xlink="http://www.w3.org/1999/xlink" style="isolation:isolate" viewBox="0 0 20 20" width="20px" height="20px"><defs><clipPath id="_clipPath_ze5teBATanhG5OSA5OuRWT6Fsj1qlbFa"><rect width="20" height="20"/></clipPath></defs><g clip-path="url(#_clipPath_ze5teBATanhG5OSA5OuRWT6Fsj1qlbFa)"><g><g><g><path d=" M 7.188 2.5 C 7.188 1.12 8.308 0 9.688 0 C 11.067 0 12.188 1.12 12.188 2.5 C 12.188 3.88 11.067 5 9.688 5 C 8.308 5 7.188 3.88 7.188 2.5 Z  M 13.433 11.795 L 12.865 7.375 C 12.801 6.734 12.266 6.25 11.623 6.25 L 7.754 6.25 C 7.109 6.25 6.574 6.734 6.511 7.359 L 5.943 11.796 C 5.92 11.974 5.975 12.154 6.094 12.287 C 6.212 12.422 6.382 12.5 6.563 12.5 L 7.262 12.5 L 7.759 16.375 C 7.822 17.015 8.359 17.5 9.004 17.5 L 10.373 17.5 C 11.018 17.5 11.552 17.015 11.615 16.391 L 12.112 12.5 L 12.813 12.5 C 12.993 12.5 13.162 12.422 13.281 12.287 C 13.401 12.154 13.456 11.974 13.433 11.795 Z  M 13.177 14.029 L 13.023 15.234 C 15.655 15.619 17.188 16.391 17.188 16.875 C 17.188 17.536 14.34 18.75 9.688 18.75 C 5.035 18.75 2.188 17.536 2.188 16.875 C 2.188 16.391 3.72 15.618 6.354 15.234 L 6.199 14.029 C 3.254 14.436 0.938 15.382 0.938 16.875 C 0.938 18.928 5.339 20 9.688 20 C 14.036 20 18.438 18.928 18.438 16.875 C 18.438 15.382 16.121 14.436 13.177 14.029 Z " fill-rule="evenodd" fill="rgb(0,0,0)"/></g></g></g></g></svg>
