<?xml version="1.0" encoding="utf-8"?>
<!-- Generator: Adobe Illustrator 19.0.1, SVG Export Plug-In . SVG Version: 6.00 Build 0)  -->
<svg version="1.1" id="Слой_1" xmlns="http://www.w3.org/2000/svg" xmlns:xlink="http://www.w3.org/1999/xlink" x="0px" y="0px"
	 viewBox="-269 392.2 56.7 56.7" style="enable-background:new -269 392.2 56.7 56.7;" xml:space="preserve">
<style type="text/css">
	.st0{fill-rule:evenodd;clip-rule:evenodd;fill:#3C3C3B;}
</style>
<g>
	<path class="st0" d="M-240.5,393.6c-14.9,0-26.9,12.1-26.9,26.9s12.1,26.9,26.9,26.9s26.9-12.1,26.9-26.9S-225.6,393.6-240.5,393.6
		z M-247.3,401.4c0.6,0.5,4.9,11.5,5.9,13.8c0.6,1.4-0.1,3.2-0.9,4.4c-0.7-1-2.5-7.4-3.1-9.2C-246,408.6-248.5,402.7-247.3,401.4z
		 M-243.2,431.6c0.7,7.4-9,8-7.3,0.7c1.1-4.8,4.8-3.7,5.4-3.8c1.2-0.1,4.9-11.9,5.5-13.5c0.7-2,4.5-13.1,5.2-13.9
		c1.1,1.1-0.3,4.6-0.7,6l-4.9,18.3C-243.6,426.5-243.6,428.5-243.2,431.6z M-229.1,439.1c0,0-0.1,0-0.2,0c-0.8-0.1-1.8-1-2.2-2
		c-3.2,0.5-5.2-1.1-5.7-4c-0.3-1.9,0.4-2.7-0.2-4.6c-0.7-2.1-0.8-1.7-2-2.9c0.2-0.9,0.5-2.3,0.9-2.9c0.4,1.2,1.8,4.8,2.5,5.7
		c0.5,0.3,3.2-1.3,5.3,2c2.9,4.6-2,5.1,1.3,7.5C-228.6,438.2-227.6,439.1-229.1,439.1z"/>
	<path class="st0" d="M-235.9,432.6c0.7,4,5.5,4.7,5,0.3C-231.5,428.8-236.7,428-235.9,432.6L-235.9,432.6z"/>
	<path class="st0" d="M-244.6,433.4c1.2-4.4-3.6-5-4.7-0.9C-250.4,436.7-245.8,437.9-244.6,433.4L-244.6,433.4z"/>
	<path class="st0" d="M-240.2,420.7C-242.5,421.1-239.1,422.7-240.2,420.7L-240.2,420.7z"/>
</g>
</svg>
