<?xml version="1.0" encoding="utf-8"?>
<!-- Generator: Adobe Illustrator 19.0.1, SVG Export Plug-In . SVG Version: 6.00 Build 0)  -->
<svg version="1.1" id="Слой_1" xmlns="http://www.w3.org/2000/svg" xmlns:xlink="http://www.w3.org/1999/xlink" x="0px" y="0px"
	 viewBox="-269 392.2 56.7 56.7" style="enable-background:new -269 392.2 56.7 56.7;" xml:space="preserve">
<style type="text/css">
	.st0{fill:#009C74;}
	.st1{fill:#FFFFFF;}
</style>
<path class="st0" d="M-240.7,447.2L-240.7,447.2c-14.9,0-26.9-12.1-26.9-26.9v0c0-14.9,12.1-26.9,26.9-26.9h0
	c14.9,0,26.9,12.1,26.9,26.9v0C-213.7,435.2-225.8,447.2-240.7,447.2z"/>
<g>
	<path class="st1" d="M-236.6,426.2c-4.5,0-8.2-3.7-8.2-8.2c0-4.5,3.7-8.2,8.2-8.2c4.5,0,8.2,3.7,8.2,8.2
		C-228.5,422.5-232.2,426.2-236.6,426.2z M-236.6,411.2c-3.8,0-6.9,3.1-6.9,6.9c0,3.8,3.1,6.9,6.9,6.9c3.8,0,6.9-3.1,6.9-6.9
		C-229.8,414.3-232.9,411.2-236.6,411.2z"/>
	<path class="st1" d="M-245.8,434.7h-7.4c-0.8,0-1.4-0.6-1.4-1.4v-12.1c0-0.8,0.6-1.4,1.4-1.4h7.4c0.8,0,1.4,0.6,1.4,1.4v12.1
		C-244.4,434.1-245,434.7-245.8,434.7z M-253.2,421.1C-253.2,421.1-253.3,421.2-253.2,421.1l-0.1,12.2c0,0.1,0,0.1,0.1,0.1h7.4
		c0.1,0,0.1,0,0.1-0.1v-12.1c0-0.1,0-0.1-0.1-0.1H-253.2z"/>
	<path class="st1" d="M-247.5,421.1h-4.3c-0.8,0-1.4-0.6-1.4-1.4V413c0-0.8,0.6-1.4,1.4-1.4h4.3c0.8,0,1.4,0.6,1.4,1.4v6.7
		C-246.1,420.5-246.7,421.1-247.5,421.1z M-251.8,412.9C-251.8,412.9-251.8,413-251.8,412.9l-0.1,6.8c0,0.1,0,0.1,0.1,0.1h4.3
		c0.1,0,0.1,0,0.1-0.1V413c0-0.1,0-0.1-0.1-0.1H-251.8z"/>
	<path class="st1" d="M-248,412.9h-3.2c-0.7,0-1.2-0.6-1.2-1.2V406c0-0.6,0.5-1.2,1.1-1.2l3.1-1c0.1,0,0.1,0,0.2,0
		c0.7,0,1.2,0.6,1.2,1.2v6.7C-246.8,412.4-247.3,412.9-248,412.9z M-251.1,411.6h3.1v-6.5l-2.9,1c0,0-0.1,0-0.2,0V411.6z"/>
	<path class="st1" d="M-236.6,430c-3.4,0-6.6-1.3-8.9-3.7l-0.2-0.2v-5.4h-1.6v-1.3c0,0-0.1,0-0.1,0.1v-6.7l0.1-0.1
		c2.1-3.9,6.2-6.4,10.6-6.4c6.7,0,12.1,5.4,12.1,12.1C-224.6,424.9-229.9,430-236.6,430z M-244.4,425.6c2,2,4.8,3.1,7.8,3.1
		c6,0,10.8-4.5,10.8-10.3c0-5.9-4.8-10.8-10.8-10.8c-3.9,0-7.5,2.1-9.4,5.5v6.4h0.4c0.7,0,1.2,0.6,1.2,1.2V425.6z"/>
	<path class="st1" d="M-228,434.1h-17c-0.4,0-0.6-0.3-0.6-0.6v-3.9c0-0.4,0.3-0.6,0.6-0.6h19.2c0.4,0,0.6,0.3,0.6,0.6
		C-225.2,432.1-226.5,434.1-228,434.1z M-244.4,432.8h16.4c0.6,0,1.3-1.1,1.5-2.6h-17.9V432.8z"/>
</g>
<path class="st0" d="M-236.6,411.2c-3.8,0-6.9,3.1-6.9,6.9c0,3.8,3.1,6.9,6.9,6.9c3.8,0,6.9-3.1,6.9-6.9
	C-229.8,414.3-232.9,411.2-236.6,411.2z"/>
<path class="st1" d="M-251.1,411.6h3.1v-6.5l-2.9,1c0,0-0.1,0-0.2,0V411.6z"/>
<path class="st1" d="M-236.6,411.2c-3.8,0-6.9,3.1-6.9,6.9c0,3.8,3.1,6.9,6.9,6.9c3.8,0,6.9-3.1,6.9-6.9
	C-229.8,414.3-232.9,411.2-236.6,411.2z"/>
</svg>
