<?xml version="1.0" encoding="UTF-8" standalone="no"?><!-- Generator: Gravit.io --><svg xmlns="http://www.w3.org/2000/svg" xmlns:xlink="http://www.w3.org/1999/xlink" style="isolation:isolate" viewBox="0 0 25 25" width="25px" height="25px"><defs><clipPath id="_clipPath_VPASceBJlwvmfkfxDAzW1CDOOLfRVR2U"><rect width="25" height="25"/></clipPath></defs><g clip-path="url(#_clipPath_VPASceBJlwvmfkfxDAzW1CDOOLfRVR2U)"><g><radialGradient id="_rgradient_20" fx="0.5" fy="0.5" cx="0.5" cy="0.5" r="0.5" gradientTransform="matrix(25,0,0,25,0,0)" gradientUnits="userSpaceOnUse"><stop offset="0%" stop-opacity="1" style="stop-color:rgb(255,255,255)"/><stop offset="95%" stop-opacity="1" style="stop-color:rgb(255,255,255)"/><stop offset="98.33333333333333%" stop-opacity="1" style="stop-color:rgb(121,97,97)"/></radialGradient><circle vector-effect="non-scaling-stroke" cx="12.5" cy="12.5" r="12.5" fill="url(#_rgradient_20)"/><path d=" M 9.285 17.599 C 8.93 17.872 8.491 18.041 8.01 18.041 C 6.85 18.041 5.906 17.097 5.906 15.937 C 5.906 14.777 6.85 13.832 8.01 13.832 C 8.886 13.832 9.636 14.371 9.953 15.133 L 10.612 14.45 C 10.093 13.544 9.128 12.927 8.01 12.927 C 6.347 12.927 5 14.274 5 15.937 C 5 17.599 6.347 18.947 8.01 18.947 C 8.792 18.947 9.498 18.641 10.033 18.152 C 9.828 18.083 9.633 17.973 9.466 17.813 C 9.398 17.747 9.338 17.674 9.285 17.599 Z  M 13.855 12.95 L 12.262 12.024 C 12.972 11.579 12.709 11.744 13.42 11.299 L 13.397 11.525 C 13.359 11.911 13.643 12.263 14 12.336 C 14.009 12.338 16.798 12.812 16.9 12.812 C 17.262 12.812 17.582 12.55 17.644 12.181 C 17.712 11.769 17.434 11.381 17.023 11.313 L 14.969 10.971 L 15.067 9.991 C 15.165 9.365 15.208 9.169 14.974 8.795 L 14.68 8.325 C 14.301 7.719 13.5 7.533 12.892 7.914 L 9.675 9.928 C 8.885 10.423 8.499 11.466 9.144 12.234 C 9.396 12.533 11.847 14.039 11.847 14.039 L 9.862 16.098 C 9.515 16.458 9.525 17.031 9.886 17.378 C 10.061 17.548 10.288 17.632 10.514 17.632 C 10.751 17.632 10.988 17.539 11.166 17.355 L 14.052 14.361 C 14.46 13.94 14.364 13.245 13.855 12.95 Z  M 17.237 8.838 C 17.942 8.396 18.156 7.466 17.714 6.761 C 17.273 6.055 16.343 5.841 15.637 6.283 C 14.932 6.725 14.718 7.654 15.16 8.36 C 15.601 9.065 16.531 9.279 17.237 8.838 Z  M 16.99 12.927 C 15.31 12.927 13.98 14.313 13.98 15.937 C 13.98 17.599 15.328 18.947 16.99 18.947 C 18.652 18.947 20 17.599 20 15.937 C 20 14.274 18.652 12.927 16.99 12.927 Z  M 16.99 18.041 C 15.83 18.041 14.886 17.097 14.886 15.937 C 14.886 14.777 15.83 13.832 16.99 13.832 C 18.15 13.832 19.094 14.777 19.094 15.937 C 19.094 17.097 18.15 18.041 16.99 18.041 Z " fill-rule="evenodd" fill="rgb(121,97,97)"/></g></g></svg>
