<?xml version="1.0" encoding="UTF-8" standalone="no"?><!-- Generator: Gravit.io --><svg xmlns="http://www.w3.org/2000/svg" xmlns:xlink="http://www.w3.org/1999/xlink" style="isolation:isolate" viewBox="0 0 43 66.319" width="43pt" height="66.319pt"><defs><clipPath id="_clipPath_DrbIxn1jrUUhfBvjzxymd0IMpKY64te9"><rect width="43" height="66.319"/></clipPath></defs><g clip-path="url(#_clipPath_DrbIxn1jrUUhfBvjzxymd0IMpKY64te9)"><path d=" M 21.5 1.5 C 10.454 1.5 1.5 10.454 1.5 21.5 C 1.5 31.549 9.288 50.588 21.5 64.819 C 33.712 50.588 41.5 31.549 41.5 21.5 C 41.5 10.454 32.546 1.5 21.5 1.5 Z " fill="rgb(79,122,240)" vector-effect="non-scaling-stroke" stroke-width="1" stroke="rgb(96,96,96)" stroke-linejoin="miter" stroke-linecap="square" stroke-miterlimit="3"/><g opacity="0.7"><path d=" M 10.769 17.066 C 12.715 9.143 19.133 3.495 26.677 2.144 C 25.064 1.724 23.371 1.5 21.626 1.5 C 10.581 1.5 1.626 10.454 1.626 21.5 C 1.626 30.616 8.035 47.13 18.342 60.742 C 11.039 44.68 8.522 26.218 10.769 17.066 Z " fill="rgb(224,73,244)"/></g><g style="opacity:0.1;"/><path d=" M 21.5 30.651 C 16.453 30.651 12.347 26.544 12.346 21.497 C 12.347 16.452 16.453 12.346 21.5 12.346 C 26.547 12.346 30.653 16.452 30.654 21.499 C 30.653 26.545 26.547 30.651 21.5 30.651 Z " fill="rgb(255,255,255)"/></g></svg>