<?xml version="1.0" encoding="UTF-8" standalone="no"?><!-- Generator: Gravit.io --><svg xmlns="http://www.w3.org/2000/svg" xmlns:xlink="http://www.w3.org/1999/xlink" style="isolation:isolate" viewBox="0 0 25 25" width="25px" height="25px"><defs><clipPath id="_clipPath_7vJtuOh2ptSGzKukaMyPq6EirKqD3z9y"><rect width="25" height="25"/></clipPath></defs><g clip-path="url(#_clipPath_7vJtuOh2ptSGzKukaMyPq6EirKqD3z9y)"><g><path d=" M 23.535 18.408 C 23.535 21.235 21.235 23.535 18.408 23.535 L 6.592 23.535 C 3.765 23.535 1.465 21.235 1.465 18.408 L 1.465 6.592 C 1.465 3.765 3.765 1.465 6.592 1.465 L 18.408 1.465 C 21.235 1.465 23.535 3.765 23.535 6.592 L 23.535 18.408 L 23.535 18.408 L 23.535 18.408 Z " fill="rgb(255,255,255)"/><path d=" M 18.408 0 L 6.592 0 C 2.957 0 0 2.957 0 6.592 L 0 18.408 C 0 22.043 2.957 25 6.592 25 L 18.408 25 C 22.043 25 25 22.043 25 18.408 L 25 6.592 C 25 2.957 22.043 0 18.408 0 Z  M 23.535 18.408 C 23.535 21.235 21.235 23.535 18.408 23.535 L 6.592 23.535 C 3.765 23.535 1.465 21.235 1.465 18.408 L 1.465 6.592 C 1.465 3.765 3.765 1.465 6.592 1.465 L 18.408 1.465 C 21.235 1.465 23.535 3.765 23.535 6.592 L 23.535 18.408 Z " fill="rgb(120,151,255)"/><path d=" M 16.624 5.274 C 15.3 5.092 13.9 5 12.5 5 C 11.1 5 9.7 5.092 8.376 5.274 C 6.986 5.465 5.937 6.664 5.937 8.062 L 5.937 18.125 C 5.937 18.643 6.357 19.062 6.875 19.062 L 7.812 19.062 C 7.812 19.58 8.232 20 8.75 20 L 9.687 20 C 10.205 20 10.625 19.58 10.625 19.062 L 14.375 19.062 C 14.375 19.58 14.795 20 15.313 20 L 16.25 20 C 16.768 20 17.188 19.58 17.188 19.062 L 18.125 19.062 C 18.643 19.062 19.063 18.643 19.063 18.125 L 19.063 8.062 C 19.062 6.664 18.014 5.465 16.624 5.274 L 16.624 5.274 Z  M 8.631 7.132 C 9.483 7.015 10.847 6.875 12.5 6.875 C 14.153 6.875 15.517 7.015 16.369 7.132 C 16.843 7.197 17.187 7.588 17.187 8.062 L 17.187 12.15 C 16.119 12.286 14.164 12.5 12.5 12.5 C 10.836 12.5 8.881 12.286 7.812 12.15 L 7.812 8.062 C 7.812 7.588 8.157 7.197 8.631 7.132 L 8.631 7.132 Z  M 9.687 16.25 C 9.17 16.25 8.75 15.83 8.75 15.312 C 8.75 14.795 9.17 14.375 9.687 14.375 C 10.205 14.375 10.625 14.795 10.625 15.312 C 10.625 15.83 10.205 16.25 9.687 16.25 Z  M 15.312 16.25 C 14.795 16.25 14.375 15.83 14.375 15.312 C 14.375 14.795 14.795 14.375 15.312 14.375 C 15.83 14.375 16.25 14.795 16.25 15.312 C 16.25 15.83 15.83 16.25 15.312 16.25 Z " fill="rgb(120,151,255)"/></g></g></svg>
