<?xml version="1.0" encoding="UTF-8" standalone="no"?><!-- Generator: Gravit.io --><svg xmlns="http://www.w3.org/2000/svg" xmlns:xlink="http://www.w3.org/1999/xlink" style="isolation:isolate" viewBox="0 0 25 25" width="25px" height="25px"><defs><clipPath id="_clipPath_4gNiZd4jqjijNY2RAL5cK4B5Vto46yXr"><rect width="25" height="25"/></clipPath></defs><g clip-path="url(#_clipPath_4gNiZd4jqjijNY2RAL5cK4B5Vto46yXr)"><g><radialGradient id="_rgradient_8" fx="0.5" fy="0.5" cx="0.5" cy="0.5" r="0.5" gradientTransform="matrix(25,0,0,25,0,0)" gradientUnits="userSpaceOnUse"><stop offset="0%" stop-opacity="1" style="stop-color:rgb(255,255,255)"/><stop offset="95%" stop-opacity="1" style="stop-color:rgb(255,255,255)"/><stop offset="97.91666666666666%" stop-opacity="1" style="stop-color:rgb(120,151,255)"/></radialGradient><circle vector-effect="non-scaling-stroke" cx="12.5" cy="12.5" r="12.5" fill="url(#_rgradient_8)"/><circle vector-effect="non-scaling-stroke" cx="12.5" cy="13.671875" r="2.373046875" fill="rgb(120,151,255)"/><path d=" M 15.966 7.666 L 15.814 6.908 C 15.732 6.498 15.37 6.201 14.952 6.201 L 10.048 6.201 C 9.63 6.201 9.268 6.498 9.186 6.908 L 9.034 7.666 L 15.966 7.666 Z  M 18.682 8.545 C 17.65 8.545 6.801 8.545 6.318 8.545 C 5.591 8.545 5 9.136 5 9.863 L 5 17.48 C 5 18.207 5.591 18.799 6.318 18.799 L 18.682 18.799 C 19.409 18.799 20 18.207 20 17.48 L 20 9.863 C 20 9.136 19.409 8.545 18.682 8.545 Z  M 8.75 11.299 L 7.344 11.299 C 7.101 11.299 6.904 11.102 6.904 10.859 C 6.904 10.617 7.101 10.42 7.344 10.42 L 8.75 10.42 C 8.993 10.42 9.189 10.617 9.189 10.859 C 9.189 11.102 8.993 11.299 8.75 11.299 Z  M 12.5 16.924 C 10.707 16.924 9.248 15.465 9.248 13.672 C 9.248 11.879 10.707 10.42 12.5 10.42 C 14.293 10.42 15.752 11.879 15.752 13.672 C 15.752 15.465 14.293 16.924 12.5 16.924 Z " fill-rule="evenodd" fill="rgb(120,151,255)"/></g></g></svg>
