<?xml version="1.0" encoding="UTF-8" standalone="no"?><!-- Generator: Gravit.io --><svg xmlns="http://www.w3.org/2000/svg" xmlns:xlink="http://www.w3.org/1999/xlink" style="isolation:isolate" viewBox="0 0 25 25" width="25pt" height="25pt"><defs><clipPath id="_clipPath_46yak8Tiz7cNyIbSPJnh9tXbzZQuXvqf"><rect width="25" height="25"/></clipPath></defs><g clip-path="url(#_clipPath_46yak8Tiz7cNyIbSPJnh9tXbzZQuXvqf)"><clipPath id="_clipPath_77ZuxxWiKVMOUO5MzGntuILtCwPQgBpa"><rect x="0" y="0" width="25" height="25" transform="matrix(1,0,0,1,0,0)" fill="rgb(255,255,255)"/></clipPath><g clip-path="url(#_clipPath_77ZuxxWiKVMOUO5MzGntuILtCwPQgBpa)"><g><g><circle vector-effect="non-scaling-stroke" cx="12.5" cy="12.5" r="12.5" fill="rgb(234,184,33)"/><path d=" M 12.578 9.048 L 12.011 5.266 C 11.988 5.112 11.856 5 11.702 5 C 11.699 5 11.695 5 11.691 5 C 11.533 5.005 11.403 5.128 11.391 5.286 L 11.117 8.569 C 11.1 8.772 10.741 8.772 10.724 8.569 L 10.451 5.286 C 10.437 5.124 10.302 5 10.139 5 C 9.977 5 9.841 5.124 9.828 5.286 L 9.554 8.569 C 9.538 8.772 9.178 8.772 9.161 8.569 L 8.888 5.286 C 8.875 5.129 8.746 5.006 8.587 5 C 8.583 5 8.58 5 8.577 5 C 8.423 5 8.291 5.112 8.268 5.266 L 7.701 9.048 C 7.534 10.156 8.136 11.216 9.149 11.658 L 8.667 18.42 C 8.638 18.827 8.781 19.231 9.059 19.53 C 9.336 19.829 9.729 20 10.138 20 L 10.141 20 C 10.549 20 10.943 19.829 11.221 19.53 C 11.499 19.231 11.641 18.827 11.613 18.42 L 11.13 11.658 C 12.144 11.216 12.745 10.156 12.578 9.048 Z  M 17.194 5.058 C 17.112 4.999 17.006 4.985 16.91 5.018 C 16.883 5.028 14.202 6.013 14.202 9.063 C 14.202 11.258 14.916 12.367 15.318 12.817 L 14.918 13.217 C 14.867 13.268 14.835 13.335 14.828 13.407 L 14.334 18.351 C 14.291 18.772 14.429 19.193 14.713 19.507 C 14.997 19.821 15.404 20 15.826 20 C 16.653 20 17.326 19.327 17.326 18.5 L 17.326 5.313 C 17.327 5.211 17.278 5.116 17.194 5.058 Z " fill-rule="evenodd" fill="rgb(255,255,255)"/></g></g></g></g></svg>