<?xml version="1.0" encoding="UTF-8" standalone="no"?><!-- Generator: Gravit.io --><svg xmlns="http://www.w3.org/2000/svg" xmlns:xlink="http://www.w3.org/1999/xlink" style="isolation:isolate" viewBox="0 0 25 25" width="25px" height="25px"><defs><clipPath id="_clipPath_LoiwcndyG7kAYT6IAGen5drA4E3tQzGT"><rect width="25" height="25"/></clipPath></defs><g clip-path="url(#_clipPath_LoiwcndyG7kAYT6IAGen5drA4E3tQzGT)"><g><radialGradient id="_rgradient_17" fx="0.5" fy="0.5" cx="0.5" cy="0.5" r="0.5" gradientTransform="matrix(25,0,0,25,0,0)" gradientUnits="userSpaceOnUse"><stop offset="0%" stop-opacity="1" style="stop-color:rgb(255,255,255)"/><stop offset="95%" stop-opacity="1" style="stop-color:rgb(255,255,255)"/><stop offset="99.16666666666667%" stop-opacity="1" style="stop-color:rgb(166,134,40)"/></radialGradient><circle vector-effect="non-scaling-stroke" cx="12.5" cy="12.5" r="12.5" fill="url(#_rgradient_17)"/><path d=" M 20 9.775 L 20 8.984 C 20 8.078 19.265 7.344 18.359 7.344 L 6.641 7.344 C 5.735 7.344 5 8.078 5 8.984 L 5 9.775 C 5 9.856 5.066 9.922 5.146 9.922 L 19.854 9.922 C 19.934 9.922 20 9.856 20 9.775 Z  M 5 11.006 L 5 16.016 C 5 16.922 5.735 17.656 6.641 17.656 L 18.359 17.656 C 19.265 17.656 20 16.922 20 16.016 L 20 11.006 C 20 10.925 19.934 10.859 19.854 10.859 L 5.146 10.859 C 5.066 10.859 5 10.925 5 11.006 Z  M 8.75 14.844 C 8.75 15.103 8.54 15.313 8.281 15.313 L 7.813 15.313 C 7.554 15.313 7.344 15.103 7.344 14.844 L 7.344 14.375 C 7.344 14.116 7.554 13.906 7.813 13.906 L 8.281 13.906 C 8.54 13.906 8.75 14.116 8.75 14.375 L 8.75 14.844 Z " fill-rule="evenodd" fill="rgb(166,134,40)"/></g></g></svg>
