<?xml version="1.0" encoding="UTF-8" standalone="no"?><!-- Generator: Gravit.io --><svg xmlns="http://www.w3.org/2000/svg" xmlns:xlink="http://www.w3.org/1999/xlink" style="isolation:isolate" viewBox="0 0 25 25" width="25px" height="25px"><defs><clipPath id="_clipPath_WYJZR1nmrHNr0Kf973ZhAdDiXlwqWRft"><rect width="25" height="25"/></clipPath></defs><g clip-path="url(#_clipPath_WYJZR1nmrHNr0Kf973ZhAdDiXlwqWRft)"><g><radialGradient id="_rgradient_13" fx="0.5" fy="0.5" cx="0.5" cy="0.5" r="0.5" gradientTransform="matrix(25,0,0,25,0,0)" gradientUnits="userSpaceOnUse"><stop offset="0%" stop-opacity="1" style="stop-color:rgb(255,255,255)"/><stop offset="95%" stop-opacity="1" style="stop-color:rgb(255,255,255)"/><stop offset="98.75%" stop-opacity="1" style="stop-color:rgb(234,184,33)"/><stop offset="99.16666666666667%" stop-opacity="1" style="stop-color:rgb(166,134,40)"/></radialGradient><circle vector-effect="non-scaling-stroke" cx="12.5" cy="12.5" r="12.5" fill="url(#_rgradient_13)"/><path d=" M 16.09 17.499 L 8.061 17.499 C 8.054 17.554 8.05 17.61 8.05 17.667 C 8.05 18.402 8.648 19 9.383 19 L 14.768 19 C 15.503 19 16.101 18.402 16.101 17.667 C 16.101 17.61 16.097 17.554 16.09 17.499 Z  M 17.249 10.397 C 17.147 10.397 17.046 10.404 16.945 10.416 L 16.945 8.823 C 16.945 8.58 16.748 8.382 16.505 8.382 L 7.646 8.382 C 7.403 8.382 7.205 8.58 7.205 8.823 L 7.205 15.502 C 7.205 15.928 7.361 16.318 7.617 16.618 L 16.533 16.618 C 16.789 16.319 16.945 15.93 16.945 15.505 C 17.046 15.517 17.147 15.524 17.249 15.524 C 18.653 15.524 19.795 14.374 19.795 12.96 C 19.795 11.547 18.653 10.397 17.249 10.397 Z  M 17.249 14.642 C 17.146 14.642 17.045 14.633 16.945 14.614 L 16.945 11.306 C 17.045 11.288 17.146 11.278 17.249 11.278 C 18.167 11.278 18.913 12.033 18.913 12.96 C 18.913 13.888 18.167 14.642 17.249 14.642 Z  M 11.226 5.447 C 11.048 5.216 11.004 4.993 11.086 4.744 C 11.099 4.708 11.113 4.673 11.128 4.641 C 11.208 4.47 11.175 4.267 11.041 4.135 C 10.824 3.92 10.46 3.984 10.331 4.26 C 10.118 4.715 10.04 5.352 10.528 5.985 C 10.705 6.215 10.753 6.446 10.675 6.693 C 10.664 6.729 10.651 6.764 10.636 6.796 C 10.559 6.968 10.595 7.171 10.732 7.301 C 10.952 7.511 11.315 7.442 11.439 7.165 C 11.643 6.71 11.711 6.077 11.226 5.447 Z  M 12.996 5.467 C 12.777 5.131 12.822 4.831 12.9 4.636 C 12.964 4.475 12.928 4.292 12.808 4.167 L 12.777 4.136 C 12.56 3.91 12.18 3.975 12.055 4.263 C 11.865 4.698 11.804 5.308 12.233 5.965 C 12.398 6.217 12.443 6.461 12.371 6.711 C 12.362 6.743 12.352 6.772 12.341 6.8 C 12.274 6.967 12.319 7.159 12.451 7.282 L 12.473 7.303 C 12.7 7.515 13.07 7.433 13.184 7.144 C 13.358 6.706 13.409 6.1 12.996 5.467 Z " fill-rule="evenodd" fill="rgb(234,184,33)"/></g></g></svg>
