<?xml version="1.0" encoding="utf-8"?>
<!-- Generator: Adobe Illustrator 19.0.1, SVG Export Plug-In . SVG Version: 6.00 Build 0)  -->
<svg version="1.1" id="Слой_1" xmlns="http://www.w3.org/2000/svg" xmlns:xlink="http://www.w3.org/1999/xlink" x="0px" y="0px"
	 viewBox="-269 392.2 56.7 56.7" style="enable-background:new -269 392.2 56.7 56.7;" xml:space="preserve">
<style type="text/css">
	.st0{fill:#009EE2;}
	.st1{fill:#FFFFFF;stroke:#FFFFFF;stroke-width:0.7308;stroke-miterlimit:10;}
</style>
<path class="st0" d="M-240.7,447.5L-240.7,447.5c-14.9,0-26.9-12.1-26.9-26.9v0c0-14.9,12.1-26.9,26.9-26.9h0
	c14.9,0,26.9,12.1,26.9,26.9v0C-213.7,435.4-225.8,447.5-240.7,447.5z"/>
<g>
	<g>
		<path class="st1" d="M-225.8,429.1h-6.4c-0.3,0-0.6-0.3-0.6-0.6c0-0.3,0.3-0.6,0.6-0.6h5.8v-13.7h-27.9V428h5.4
			c0.3,0,0.6,0.3,0.6,0.6c0,0.3-0.3,0.6-0.6,0.6h-6c-0.3,0-0.6-0.3-0.6-0.6v-14.8c0-0.3,0.3-0.6,0.6-0.6h29.1c0.3,0,0.6,0.3,0.6,0.6
			v14.8C-225.3,428.9-225.5,429.1-225.8,429.1z"/>
		<path class="st1" d="M-230.1,423h-20.8c-0.3,0-0.6-0.3-0.6-0.6c0-0.3,0.3-0.6,0.6-0.6h20.8c0.3,0,0.6,0.3,0.6,0.6
			C-229.6,422.8-229.8,423-230.1,423z"/>
		<path class="st1" d="M-232.8,414.3c-0.3,0-0.6-0.3-0.6-0.6v-7.4h-14.4v7.4c0,0.3-0.3,0.6-0.6,0.6s-0.6-0.3-0.6-0.6v-7.9
			c0-0.3,0.3-0.6,0.6-0.6h15.6c0.3,0,0.6,0.3,0.6,0.6v7.9C-232.2,414-232.5,414.3-232.8,414.3z"/>
		<path class="st1" d="M-232.8,435.7h-15.6c-0.3,0-0.6-0.3-0.6-0.6v-12.7c0-0.3,0.3-0.6,0.6-0.6s0.6,0.3,0.6,0.6v12.1h14.4v-12.1
			c0-0.3,0.3-0.6,0.6-0.6c0.3,0,0.6,0.3,0.6,0.6v12.7C-232.2,435.5-232.5,435.7-232.8,435.7z"/>
	</g>
	<rect x="-249" y="422.5" class="st1" width="16.1" height="12.1"/>
	<path class="st0" d="M-236,427.6h-9.1c-0.4,0-0.7-0.3-0.7-0.7c0-0.4,0.3-0.7,0.7-0.7h9.1c0.4,0,0.7,0.3,0.7,0.7
		C-235.2,427.3-235.6,427.6-236,427.6z"/>
	<path class="st0" d="M-236,431.5h-9.1c-0.4,0-0.7-0.3-0.7-0.7c0-0.4,0.3-0.7,0.7-0.7h9.1c0.4,0,0.7,0.3,0.7,0.7
		C-235.2,431.2-235.6,431.5-236,431.5z"/>
</g>
</svg>
