<?xml version="1.0" encoding="UTF-8" standalone="no"?><!-- Generator: Gravit.io --><svg xmlns="http://www.w3.org/2000/svg" xmlns:xlink="http://www.w3.org/1999/xlink" style="isolation:isolate" viewBox="0 0 25 25" width="25px" height="25px"><defs><clipPath id="_clipPath_GNiPOdm5K30MC7H2kw0ppA1h0A1nuBLt"><rect width="25" height="25"/></clipPath></defs><g clip-path="url(#_clipPath_GNiPOdm5K30MC7H2kw0ppA1h0A1nuBLt)"><g><radialGradient id="_rgradient_18" fx="0.5" fy="0.5" cx="0.5" cy="0.5" r="0.5" gradientTransform="matrix(25,0,0,25,0,0)" gradientUnits="userSpaceOnUse"><stop offset="0%" stop-opacity="1" style="stop-color:rgb(255,255,255)"/><stop offset="95%" stop-opacity="1" style="stop-color:rgb(255,255,255)"/><stop offset="99.16666666666667%" stop-opacity="1" style="stop-color:rgb(166,134,40)"/></radialGradient><circle vector-effect="non-scaling-stroke" cx="12.5" cy="12.5" r="12.5" fill="url(#_rgradient_18)"/><path d=" M 10.742 10.303 C 10.742 10.787 11.137 11.182 11.621 11.182 C 11.838 11.182 12.046 11.102 12.207 10.958 C 12.337 10.843 12.522 10.815 12.679 10.884 C 12.838 10.955 12.939 11.112 12.939 11.285 L 12.939 13 C 13.088 12.96 13.241 12.939 13.397 12.939 C 14.367 12.939 15.155 13.728 15.155 14.697 C 15.155 15.667 14.367 16.455 13.397 16.455 C 13.24 16.455 13.088 16.427 12.939 16.387 L 12.939 20 L 16.034 20 C 16.277 20 16.484 19.803 16.484 19.561 L 16.484 17.334 L 17.792 17.334 C 18.035 17.334 18.242 17.137 18.242 16.895 L 18.242 14.697 L 19.561 14.697 C 19.706 14.697 19.843 14.625 19.924 14.504 C 20.006 14.384 20.023 14.23 19.969 14.095 L 18.8 11.202 L 18.8 9.863 C 18.8 7.198 16.632 5 13.966 5 L 12.939 5 L 12.939 9.32 C 12.939 9.493 12.838 9.65 12.679 9.721 C 12.521 9.791 12.337 9.763 12.207 9.647 C 12.046 9.503 11.838 9.424 11.621 9.424 C 11.137 9.424 10.742 9.818 10.742 10.303 L 10.742 10.303 Z  M 5.439 14.697 L 6.787 14.697 L 6.787 16.895 C 6.787 17.137 6.984 17.334 7.227 17.334 L 8.545 17.334 L 8.545 19.561 C 8.545 19.803 8.741 20 8.984 20 L 12.061 20 L 12.061 15.663 C 12.061 15.299 12.521 15.082 12.799 15.341 C 12.962 15.493 13.175 15.576 13.397 15.576 C 13.882 15.576 14.276 15.182 14.276 14.697 C 14.276 14.213 13.882 13.818 13.397 13.818 C 13.175 13.818 12.962 13.902 12.799 14.053 C 12.671 14.172 12.485 14.204 12.324 14.134 C 12.164 14.064 12.061 13.906 12.061 13.731 L 12.061 12.005 C 11.918 12.042 11.771 12.061 11.621 12.061 C 10.652 12.061 9.863 11.272 9.863 10.303 C 9.863 9.333 10.652 8.545 11.621 8.545 C 11.771 8.545 11.918 8.564 12.061 8.601 L 12.061 5 L 11.052 5 C 8.387 5 6.218 7.198 6.218 9.863 L 6.218 11.202 L 5.031 14.095 C 4.977 14.23 4.994 14.384 5.076 14.504 C 5.157 14.625 5.294 14.697 5.439 14.697 Z " fill-rule="evenodd" fill="rgb(166,134,40)"/></g></g></svg>
