<?xml version="1.0" encoding="utf-8"?>
<!-- Generator: Adobe Illustrator 19.0.1, SVG Export Plug-In . SVG Version: 6.00 Build 0)  -->
<svg version="1.1" id="Слой_1" xmlns="http://www.w3.org/2000/svg" xmlns:xlink="http://www.w3.org/1999/xlink" x="0px" y="0px"
	 viewBox="-269 392.2 56.7 56.7" style="enable-background:new -269 392.2 56.7 56.7;" xml:space="preserve">
<style type="text/css">
	.st0{fill:#71519B;}
	.st1{fill:#FFFFFF;}
</style>
<path class="st0" d="M-240.8,447.5L-240.8,447.5c-14.9,0-26.9-12.1-26.9-26.9v0c0-14.9,12.1-26.9,26.9-26.9h0
	c14.9,0,26.9,12.1,26.9,26.9v0C-213.8,435.4-225.9,447.5-240.8,447.5z"/>
<g>
	<path class="st1" d="M-251.2,432.5c-0.3,0-0.6-0.2-0.6-0.6v-2.4c0-0.3,0.2-0.6,0.6-0.6s0.6,0.2,0.6,0.6v2.4
		C-250.7,432.2-250.9,432.5-251.2,432.5z"/>
	<path class="st1" d="M-228.3,432.5c-0.3,0-0.6-0.2-0.6-0.6v-2.4c0-0.3,0.2-0.6,0.6-0.6s0.6,0.2,0.6,0.6v2.4
		C-227.7,432.2-228,432.5-228.3,432.5z"/>
	<path class="st1" d="M-252.3,415.8h-2.2c-2.2,0-2.2,0-2.2,2.5v9.5c0,2.5,0,2.5,2.2,2.5h28.7c2.4,0,2.2,0,2.2-2.5v-9.5
		c0-2.5,0-2.5-2.2-2.5h-2v10.6h-24.5V415.8z"/>
	<g>
		<path class="st1" d="M-229.6,419.9h-21c-0.4,0-0.7-0.3-0.7-0.7v-8.7c0-0.4,0.3-0.7,0.7-0.7h21c0.4,0,0.7,0.3,0.7,0.7v8.7
			C-228.9,419.6-229.2,419.9-229.6,419.9z"/>
		<path class="st1" d="M-229.5,425.4h-9.4c-0.3,0-0.5-0.2-0.5-0.5v-3.2c0-0.3,0.2-0.5,0.5-0.5h9.4c0.3,0,0.5,0.2,0.5,0.5v3.2
			C-229,425.1-229.2,425.4-229.5,425.4z"/>
		<path class="st1" d="M-241.1,425.4h-9.7c-0.3,0-0.5-0.2-0.5-0.5v-3.2c0-0.3,0.2-0.5,0.5-0.5h9.7c0.3,0,0.5,0.2,0.5,0.5v3.2
			C-240.6,425.1-240.8,425.4-241.1,425.4z"/>
	</g>
</g>
</svg>
