<?xml version="1.0" encoding="UTF-8" standalone="no"?><!-- Generator: Gravit.io --><svg xmlns="http://www.w3.org/2000/svg" xmlns:xlink="http://www.w3.org/1999/xlink" style="isolation:isolate" viewBox="0 0 25 25" width="25px" height="25px"><defs><clipPath id="_clipPath_KPqsXtEBu7z1icHid6qba5pxebWfQdPb"><rect width="25" height="25"/></clipPath></defs><g clip-path="url(#_clipPath_KPqsXtEBu7z1icHid6qba5pxebWfQdPb)"><g><radialGradient id="_rgradient_16" fx="0.5" fy="0.5" cx="0.5" cy="0.5" r="0.5" gradientTransform="matrix(25,0,0,25,0,0)" gradientUnits="userSpaceOnUse"><stop offset="0%" stop-opacity="1" style="stop-color:rgb(255,255,255)"/><stop offset="95%" stop-opacity="1" style="stop-color:rgb(255,255,255)"/><stop offset="98.33333333333333%" stop-opacity="1" style="stop-color:rgb(225,187,71)"/></radialGradient><circle vector-effect="non-scaling-stroke" cx="12.5" cy="12.5" r="12.5" fill="url(#_rgradient_16)"/><path d=" M 15.368 16.146 C 14.408 16.146 13.616 16.921 13.616 17.898 C 13.616 18.857 14.391 19.649 15.368 19.649 C 16.328 19.649 17.119 18.874 17.119 17.898 C 17.102 16.938 16.328 16.146 15.368 16.146 Z  M 18.45 7.793 C 18.416 7.793 18.365 7.776 18.315 7.776 L 7.705 7.776 L 7.537 6.648 C 7.436 5.907 6.796 5.351 6.038 5.351 L 4.674 5.351 C 4.303 5.351 4 5.654 4 6.025 C 4 6.395 4.303 6.698 4.674 6.698 L 6.038 6.698 C 6.122 6.698 6.189 6.766 6.206 6.85 L 7.25 13.957 C 7.385 14.849 8.16 15.523 9.069 15.523 L 16.075 15.523 C 16.951 15.523 17.709 14.9 17.894 14.041 L 18.989 8.568 C 19.056 8.214 18.82 7.86 18.45 7.793 Z  M 11.073 17.813 C 11.04 16.887 10.265 16.146 9.339 16.146 C 8.362 16.197 7.621 17.005 7.655 17.965 C 7.688 18.891 8.446 19.632 9.372 19.632 L 9.406 19.632 C 10.366 19.582 11.124 18.773 11.073 17.813 Z " fill-rule="evenodd" fill="rgb(225,187,71)"/></g></g></svg>
