<?xml version="1.0" encoding="UTF-8" standalone="no"?><!-- Generator: Gravit.io --><svg xmlns="http://www.w3.org/2000/svg" xmlns:xlink="http://www.w3.org/1999/xlink" style="isolation:isolate" viewBox="0 0 25 25" width="25pt" height="25pt"><defs><clipPath id="_clipPath_TxYvs1atOxZoCcU0PAEi1qYlLC8SnEqQ"><rect width="25" height="25"/></clipPath></defs><g clip-path="url(#_clipPath_TxYvs1atOxZoCcU0PAEi1qYlLC8SnEqQ)"><g><g><path d=" M 12.5 25 L 12.5 25 C 5.576 25 0 19.377 0 12.5 L 0 12.5 C 0 5.576 5.623 0 12.5 0 L 12.5 0 C 19.424 0 25 5.623 25 12.5 L 25 12.5 C 25.046 19.424 19.424 25 12.5 25 Z " fill="rgb(0,156,116)"/><rect x="16.204" y="11.051" width="0.604" height="0.604" transform="matrix(-0.919,0.394,-0.394,-0.919,36.15,15.283)" fill="rgb(0,156,116)"/><path d=" M 8.085 11.989 L 8.225 11.849 L 8.643 11.338 L 9.108 11.757 L 8.689 12.268 L 8.085 11.989 Z " fill="rgb(0,156,116)"/></g><path d=" M 13.104 14.916 C 13.569 12.035 11.478 12.175 9.851 12.314 C 9.898 11.849 9.665 11.478 9.433 11.013 C 9.387 10.92 9.34 10.455 9.201 10.548 C 8.782 10.734 8.782 10.827 9.201 11.385 C 9.247 11.478 9.572 12.035 9.619 12.361 C 8.039 12.454 6.32 11.989 6.366 14.591 C 6.413 16.357 7.528 18.727 9.433 18.727 C 11.385 18.68 12.546 18.448 13.104 14.916 L 13.104 14.916 Z  M 16.45 13.708 C 16.682 13.476 16.682 13.104 16.45 12.872 L 14.08 10.502 C 13.847 10.27 13.476 10.27 13.243 10.502 C 13.011 10.734 13.011 11.106 13.243 11.338 L 15.613 13.708 C 15.846 13.894 16.217 13.894 16.45 13.708 L 16.45 13.708 Z  M 16.45 10.455 C 16.682 10.223 16.682 9.851 16.45 9.619 L 14.08 7.249 C 13.847 7.017 13.476 7.017 13.243 7.249 C 13.011 7.481 13.011 7.853 13.243 8.086 L 15.613 10.455 C 15.846 10.688 16.217 10.688 16.45 10.455 L 16.45 10.455 Z  M 13.754 13.615 C 13.847 14.08 13.801 14.545 13.708 15.009 L 15.66 16.961 C 15.892 17.193 16.264 17.193 16.496 16.961 C 16.728 16.729 16.728 16.357 16.496 16.124 L 14.126 13.755 C 13.987 13.662 13.894 13.615 13.754 13.615 L 13.754 13.615 Z  M 11.617 11.478 C 11.71 7.574 12.825 3.903 14.87 3.903 C 19.238 3.903 19.238 20.353 14.87 20.353 C 13.94 20.4 13.197 19.61 12.686 18.448 C 12.36 18.727 12.128 18.959 11.71 19.191 C 11.013 19.563 10.223 19.563 9.433 19.61 C 6.97 19.656 5.53 16.822 5.53 14.684 C 5.53 13.662 5.716 12.639 6.645 12.082 C 7.156 11.757 7.76 11.664 8.364 11.664 C 8.178 11.385 8.039 11.059 8.178 10.688 C 8.271 10.316 8.55 10.13 8.875 9.944 C 9.061 9.851 9.294 9.805 9.479 9.851 C 9.898 9.944 10.13 10.316 10.223 10.688 C 10.223 10.734 10.223 10.734 10.269 10.781 C 10.409 11.013 10.548 11.245 10.641 11.524 C 10.641 11.524 10.688 11.524 10.688 11.524 C 10.92 11.524 11.199 11.524 11.431 11.524 L 11.431 11.524 L 11.617 11.478 L 11.617 11.478 Z " fill-rule="evenodd" fill="rgb(255,255,255)"/></g></g></svg>