<?xml version="1.0" encoding="utf-8"?>
<!-- Generator: Adobe Illustrator 19.0.1, SVG Export Plug-In . SVG Version: 6.00 Build 0)  -->
<svg version="1.1" id="Слой_1" xmlns="http://www.w3.org/2000/svg" xmlns:xlink="http://www.w3.org/1999/xlink" x="0px" y="0px"
	 viewBox="-269 392.2 56.7 56.7" style="enable-background:new -269 392.2 56.7 56.7;" xml:space="preserve">
<style type="text/css">
	.st0{fill:#009C74;}
	.st1{fill-rule:evenodd;clip-rule:evenodd;fill:#FFFFFF;}
</style>
<g>
	<path class="st0" d="M-240.9,447.2L-240.9,447.2c-14.9,0-26.9-12.1-26.9-26.9v0c0-14.9,12.1-26.9,26.9-26.9h0
		c14.9,0,26.9,12.1,26.9,26.9v0C-213.9,435.2-226,447.2-240.9,447.2z"/>
	
		<rect x="-232.9" y="417.2" transform="matrix(-0.9191 0.394 -0.394 -0.9191 -281.1067 893.3831)" class="st0" width="1.3" height="1.3"/>
	<polygon class="st0" points="-250.4,419.2 -250.1,418.9 -249.2,417.8 -248.2,418.7 -249.1,419.8 	"/>
</g>
<path class="st1" d="M-239.6,425.5c1-6.2-3.5-5.9-7-5.6c0.1-1-0.4-1.8-0.9-2.8c-0.1-0.2-0.2-1.2-0.5-1c-0.9,0.4-0.9,0.6,0,1.8
	c0.1,0.2,0.8,1.4,0.9,2.1c-3.4,0.2-7.1-0.8-7,4.8c0.1,3.8,2.5,8.9,6.6,8.9C-243.3,433.6-240.8,433.1-239.6,425.5L-239.6,425.5z
	 M-232.4,422.9c0.5-0.5,0.5-1.3,0-1.8l-5.1-5.1c-0.5-0.5-1.3-0.5-1.8,0c-0.5,0.5-0.5,1.3,0,1.8l5.1,5.1
	C-233.7,423.3-232.9,423.3-232.4,422.9L-232.4,422.9z M-232.4,415.9c0.5-0.5,0.5-1.3,0-1.8l-5.1-5.1c-0.5-0.5-1.3-0.5-1.8,0
	c-0.5,0.5-0.5,1.3,0,1.8l5.1,5.1C-233.7,416.4-232.9,416.4-232.4,415.9L-232.4,415.9z M-238.2,422.7c0.2,1,0.1,2-0.1,3l4.2,4.2
	c0.5,0.5,1.3,0.5,1.8,0c0.5-0.5,0.5-1.3,0-1.8l-5.1-5.1C-237.7,422.8-237.9,422.7-238.2,422.7L-238.2,422.7z M-242.8,418.1
	c0.2-8.4,2.6-16.3,7-16.3c9.4,0,9.4,35.4,0,35.4c-2,0.1-3.6-1.6-4.7-4.1c-0.7,0.6-1.2,1.1-2.1,1.6c-1.5,0.8-3.2,0.8-4.9,0.9
	c-5.3,0.1-8.4-6-8.4-10.6c0-2.2,0.4-4.4,2.4-5.6c1.1-0.7,2.4-0.9,3.7-0.9c-0.4-0.6-0.7-1.3-0.4-2.1c0.2-0.8,0.8-1.2,1.5-1.6
	c0.4-0.2,0.9-0.3,1.3-0.2c0.9,0.2,1.4,1,1.6,1.8c0,0.1,0,0.1,0.1,0.2c0.3,0.5,0.6,1,0.8,1.6c0,0,0.1,0,0.1,0c0.5,0,1.1,0,1.6,0v0
	L-242.8,418.1L-242.8,418.1z"/>
</svg>
