<?xml version="1.0" encoding="utf-8"?>
<!-- Generator: Adobe Illustrator 19.0.1, SVG Export Plug-In . SVG Version: 6.00 Build 0)  -->
<svg version="1.1" id="Слой_1" xmlns="http://www.w3.org/2000/svg" xmlns:xlink="http://www.w3.org/1999/xlink" x="0px" y="0px"
	 viewBox="-269 392.2 56.7 56.7" style="enable-background:new -269 392.2 56.7 56.7;" xml:space="preserve">
<style type="text/css">
	.st0{fill:#009EE2;}
	.st1{fill:#FFFFFF;stroke:#FFFFFF;stroke-width:0.7308;stroke-miterlimit:10;}
	.st2{fill:#FFFFFF;}
</style>
<path class="st0" d="M-240.7,447.5L-240.7,447.5c-14.9,0-26.9-12.1-26.9-26.9v0c0-14.9,12.1-26.9,26.9-26.9h0
	c14.9,0,26.9,12.1,26.9,26.9v0C-213.7,435.4-225.8,447.5-240.7,447.5z"/>
<g>
	<path class="st1" d="M-227.1,432h-26.4c-0.6,0-1.1-0.5-1.1-1.1v-18.7c0-0.5,0.4-1.1,1.4-1.1h7.6l1-2.6c0.2-0.4,0.6-0.7,1-0.7h6.4
		c0.4,0,0.8,0.3,1,0.7l1.2,2.6l8.1,0.1c0.5,0,0.8,0.6,0.8,1.1v18.7C-226,431.5-226.5,432-227.1,432z M-253.3,412.2
		c-0.2,0-0.3,0.1-0.3,0.1l0,18.7l26.4,0l0-18.7c0,0,0,0,0,0l-8.2-0.1c-0.2,0-0.4-0.1-0.5-0.3l-1.4-2.9l-6.4,0c0,0,0,0,0,0l-1.2,3
		c-0.1,0.2-0.3,0.3-0.5,0.3H-253.3z M-226.9,412.2C-226.9,412.2-226.9,412.2-226.9,412.2C-226.9,412.2-226.9,412.2-226.9,412.2z"/>
	<path class="st2" d="M-240.3,425c-2.2,0-3.9-1.8-3.9-3.9c0-2.2,1.8-3.9,3.9-3.9s3.9,1.8,3.9,3.9C-236.4,423.3-238.2,425-240.3,425z
		"/>
	<path class="st2" d="M-240.3,428.7c-4.2,0-7.6-3.4-7.6-7.6s3.4-7.6,7.6-7.6s7.6,3.4,7.6,7.6S-236.1,428.7-240.3,428.7z
		 M-240.3,415.3c-3.2,0-5.8,2.6-5.8,5.8c0,3.2,2.6,5.8,5.8,5.8s5.8-2.6,5.8-5.8C-234.5,417.9-237.1,415.3-240.3,415.3z"/>
	<path class="st1" d="M-248.1,412.1c-0.3,0-0.5-0.2-0.5-0.5v-2.8h-2.3v2.8c0,0.3-0.2,0.5-0.5,0.5s-0.5-0.2-0.5-0.5v-2.8
		c0-0.6,0.5-1,1-1h2.4c0.6,0,1,0.5,1,1v2.8C-247.6,411.9-247.8,412.1-248.1,412.1z"/>
	<path class="st1" d="M-248.5,415.3h-2.6c-0.3,0-0.5-0.2-0.5-0.5c0-0.3,0.2-0.5,0.5-0.5h2.6c0.3,0,0.5,0.2,0.5,0.5
		C-248,415-248.2,415.3-248.5,415.3z"/>
</g>
</svg>
