<?xml version="1.0" encoding="utf-8"?>
<!-- Generator: Adobe Illustrator 19.0.1, SVG Export Plug-In . SVG Version: 6.00 Build 0)  -->
<svg version="1.1" id="Слой_1" xmlns="http://www.w3.org/2000/svg" xmlns:xlink="http://www.w3.org/1999/xlink" x="0px" y="0px"
	 viewBox="-269 392.2 56.7 56.7" style="enable-background:new -269 392.2 56.7 56.7;" xml:space="preserve">
<style type="text/css">
	.st0{fill:#005CA8;}
	.st1{fill:#FFFFFF;}
</style>
<g>
	<path class="st0" d="M-240.7,447.5L-240.7,447.5c-14.9,0-26.9-12.1-26.9-26.9v0c0-14.9,12.1-26.9,26.9-26.9h0
		c14.9,0,26.9,12.1,26.9,26.9v0C-213.7,435.4-225.8,447.5-240.7,447.5z"/>
	<g>
		<path class="st1" d="M-232.9,409.5c0-0.4-0.3-0.7-0.6-0.9l-11-5.1c-0.3-0.1-0.6-0.1-0.9,0l-11,5.1c-0.3,0.2-0.6,0.5-0.6,0.9
			c0,0,0,0.1,0,0.1V422c0,0.4,0.3,0.8,0.7,1l11,4.4c0.1,0.1,0.3,0.1,0.4,0.1s0.3,0,0.4-0.1l11-4.4c0.4-0.2,0.7-0.6,0.7-1v-12.4
			C-232.9,409.6-232.9,409.6-232.9,409.5z M-235,411.2v10.1l-8.8,3.5v-10.1L-235,411.2z M-239.3,410.6l-8.4-3.6l2.8-1.3l8.2,3.8
			L-239.3,410.6z M-242.2,411.7l-2.7,1.1l-8.2-3.3l2.8-1.3L-242.2,411.7z M-246,414.8v10.1l-8.8-3.5v-10.1L-246,414.8z"/>
		<path class="st0" d="M-248.6,421.4l0.5,4.1l2.8,2.2l9.8-3.2c0,0-4.2-4.2-4.9-4.2C-241.3,420.4-248.6,421.4-248.6,421.4z"/>
		<g>
			<g>
				<g>
					<polygon class="st1" points="-233.2,427.3 -224.7,432.7 -224.7,421.7 					"/>
				</g>
			</g>
			<g>
				<g>
					<polygon class="st1" points="-249.9,421.7 -249.9,432.7 -241.4,427.3 					"/>
				</g>
			</g>
			<g>
				<g>
					<path class="st1" d="M-226.2,418.5h-22.1c-0.8,0-1.4,0.6-1.5,1.3l12.6,8.3l12.6-8.3C-224.8,419.1-225.4,418.5-226.2,418.5z"/>
				</g>
			</g>
			<g>
				<g>
					<path class="st1" d="M-234.6,428.2l-2.2,1.5c-0.1,0.1-0.3,0.1-0.4,0.1s-0.3,0-0.4-0.1l-2.2-1.5l-9.9,6.3
						c0.1,0.8,0.7,1.3,1.5,1.3h22.1c0.8,0,1.4-0.6,1.5-1.3L-234.6,428.2z"/>
				</g>
			</g>
		</g>
	</g>
</g>
</svg>
