<?xml version="1.0" encoding="UTF-8" standalone="no"?><!-- Generator: Gravit.io --><svg xmlns="http://www.w3.org/2000/svg" xmlns:xlink="http://www.w3.org/1999/xlink" style="isolation:isolate" viewBox="0 0 25 25" width="25px" height="25px"><defs><clipPath id="_clipPath_ArC6QnDIuox5RQY0u7tjN1YiCwhBCIde"><rect width="25" height="25"/></clipPath></defs><g clip-path="url(#_clipPath_ArC6QnDIuox5RQY0u7tjN1YiCwhBCIde)"><g><radialGradient id="_rgradient_9" fx="0.5" fy="0.5" cx="0.5" cy="0.5" r="0.5" gradientTransform="matrix(25,0,0,25,0,0)" gradientUnits="userSpaceOnUse"><stop offset="0%" stop-opacity="1" style="stop-color:rgb(255,255,255)"/><stop offset="95%" stop-opacity="1" style="stop-color:rgb(255,255,255)"/><stop offset="97.91666666666666%" stop-opacity="1" style="stop-color:rgb(120,151,255)"/></radialGradient><circle vector-effect="non-scaling-stroke" cx="12.5" cy="12.5" r="12.5" fill="url(#_rgradient_9)"/><path d=" M 15.608 18.926 C 15.9 18.037 15.652 17.039 14.976 16.383 C 14.513 15.935 13.93 15.689 13.303 15.674 L 13.489 13.941 L 19.065 9.682 C 19.232 9.553 19.37 9.396 19.476 9.214 C 19.742 8.753 19.76 8.193 19.524 7.716 L 19.327 7.318 C 19.286 7.235 19.21 7.174 19.121 7.153 C 19.032 7.131 18.937 7.15 18.863 7.204 L 13.818 10.889 L 14.486 4.677 C 14.496 4.586 14.465 4.494 14.401 4.428 C 14.337 4.361 14.247 4.326 14.155 4.332 L 13.711 4.361 C 13.181 4.395 12.705 4.69 12.439 5.151 C 12.334 5.333 12.267 5.532 12.239 5.741 L 11.338 12.7 L 9.93 13.727 C 9.714 13.374 9.419 13.084 9.061 12.877 C 7.867 12.188 6.335 12.598 5.646 13.792 C 4.957 14.986 5.367 16.518 6.561 17.207 C 7.755 17.897 9.287 17.486 9.976 16.292 C 10.438 15.492 11.038 15.058 11.548 14.819 C 11.595 15.363 11.528 16.065 11.102 16.839 C 10.436 18.051 10.77 19.555 11.86 20.263 C 11.898 20.287 11.936 20.311 11.974 20.333 C 12.609 20.699 13.36 20.77 14.056 20.525 C 14.794 20.265 15.359 19.682 15.608 18.926 Z  M 7.186 16.125 C 6.589 15.78 6.384 15.014 6.728 14.417 C 7.073 13.82 7.839 13.615 8.436 13.96 C 9.033 14.304 9.238 15.07 8.893 15.667 C 8.549 16.264 7.783 16.469 7.186 16.125 Z  M 12.08 13.898 C 11.781 13.726 11.679 13.343 11.851 13.045 C 12.023 12.746 12.406 12.643 12.705 12.816 C 13.003 12.988 13.106 13.371 12.933 13.67 C 12.761 13.968 12.378 14.071 12.08 13.898 Z  M 12.598 19.25 C 12.002 18.905 11.796 18.139 12.141 17.542 C 12.486 16.945 13.252 16.74 13.848 17.085 C 14.445 17.429 14.651 18.195 14.306 18.792 C 13.961 19.389 13.195 19.594 12.598 19.25 Z " fill="rgb(120,151,255)"/></g></g></svg>
