<?xml version="1.0" encoding="UTF-8" standalone="no"?><!-- Generator: Gravit.io --><svg xmlns="http://www.w3.org/2000/svg" xmlns:xlink="http://www.w3.org/1999/xlink" style="isolation:isolate" viewBox="0 0 25 25" width="25pt" height="25pt"><defs><clipPath id="_clipPath_BqQFX0d9B1mNNHXNyL166tx1LFx3l12t"><rect width="25" height="25"/></clipPath></defs><g clip-path="url(#_clipPath_BqQFX0d9B1mNNHXNyL166tx1LFx3l12t)"><g><path d=" M 12.5 25 L 12.5 25 C 5.598 25 0 19.402 0 12.5 L 0 12.5 C 0 5.598 5.598 0 12.5 0 L 12.5 0 C 19.402 0 25 5.598 25 12.5 L 25 12.5 C 24.995 19.402 19.398 25 12.5 25 Z " fill="rgb(82,162,170)"/><g><mask id="_mask_iaYmutGSKiBeAhOYjiXzYZzPmcOxCcj2" x="-200%" y="-200%" width="400%" height="400%"><rect x="-200%" y="-200%" width="400%" height="400%" style="fill:white;"/><path d=" M 16.074 12.259 C 16.074 12.064 16.069 7.779 15.963 7.519 L 15.893 7.501 C 15.735 7.478 15.777 7.478 15.721 7.533 C 15.619 7.626 15.656 8.123 15.67 8.258 C 15.675 8.369 15.745 11.121 15.712 11.205 C 15.661 11.33 15.763 11.196 15.638 11.302 C 15.35 10.741 14.886 10.304 14.696 10.003 C 14.575 9.812 14.533 9.715 14.408 9.557 C 13.953 8.991 13.944 8.661 13.651 8.076 C 13.54 7.849 13.572 7.506 13.154 7.445 C 12.802 7.399 12.987 7.705 12.987 8.323 C 12.983 9.785 12.983 11.307 13.034 12.76 C 13.052 13.271 12.978 15.902 13.103 16.037 C 13.173 16.111 13.619 16.181 13.6 15.568 C 13.595 15.35 13.53 15.15 13.489 14.932 C 13.456 14.728 13.447 14.487 13.424 14.268 C 13.377 13.795 13.252 8.782 13.335 8.504 L 13.359 8.448 C 13.475 8.517 13.54 8.712 13.595 8.842 L 14.236 10.021 C 14.505 10.462 15.494 11.929 15.652 12.273 C 15.768 12.537 15.721 13.057 15.726 13.405 C 15.745 13.902 15.93 15.239 15.768 15.647 C 15.693 15.851 15.642 16.069 15.865 16.093 C 16.107 16.116 16.172 15.995 16.19 15.782 C 16.218 15.364 16.172 14.983 16.125 14.607 C 16.046 13.888 16.074 13.006 16.074 12.259 L 16.074 12.259 Z " fill-rule="evenodd" fill="black" stroke="none"/></mask><path d=" M 16.074 12.259 C 16.074 12.064 16.069 7.779 15.963 7.519 L 15.893 7.501 C 15.735 7.478 15.777 7.478 15.721 7.533 C 15.619 7.626 15.656 8.123 15.67 8.258 C 15.675 8.369 15.745 11.121 15.712 11.205 C 15.661 11.33 15.763 11.196 15.638 11.302 C 15.35 10.741 14.886 10.304 14.696 10.003 C 14.575 9.812 14.533 9.715 14.408 9.557 C 13.953 8.991 13.944 8.661 13.651 8.076 C 13.54 7.849 13.572 7.506 13.154 7.445 C 12.802 7.399 12.987 7.705 12.987 8.323 C 12.983 9.785 12.983 11.307 13.034 12.76 C 13.052 13.271 12.978 15.902 13.103 16.037 C 13.173 16.111 13.619 16.181 13.6 15.568 C 13.595 15.35 13.53 15.15 13.489 14.932 C 13.456 14.728 13.447 14.487 13.424 14.268 C 13.377 13.795 13.252 8.782 13.335 8.504 L 13.359 8.448 C 13.475 8.517 13.54 8.712 13.595 8.842 L 14.236 10.021 C 14.505 10.462 15.494 11.929 15.652 12.273 C 15.768 12.537 15.721 13.057 15.726 13.405 C 15.745 13.902 15.93 15.239 15.768 15.647 C 15.693 15.851 15.642 16.069 15.865 16.093 C 16.107 16.116 16.172 15.995 16.19 15.782 C 16.218 15.364 16.172 14.983 16.125 14.607 C 16.046 13.888 16.074 13.006 16.074 12.259 L 16.074 12.259 Z " fill-rule="evenodd" fill="rgb(251,253,252)"/><path d=" M 16.074 12.259 C 16.074 12.064 16.069 7.779 15.963 7.519 L 15.893 7.501 C 15.735 7.478 15.777 7.478 15.721 7.533 C 15.619 7.626 15.656 8.123 15.67 8.258 C 15.675 8.369 15.745 11.121 15.712 11.205 C 15.661 11.33 15.763 11.196 15.638 11.302 C 15.35 10.741 14.886 10.304 14.696 10.003 C 14.575 9.812 14.533 9.715 14.408 9.557 C 13.953 8.991 13.944 8.661 13.651 8.076 C 13.54 7.849 13.572 7.506 13.154 7.445 C 12.802 7.399 12.987 7.705 12.987 8.323 C 12.983 9.785 12.983 11.307 13.034 12.76 C 13.052 13.271 12.978 15.902 13.103 16.037 C 13.173 16.111 13.619 16.181 13.6 15.568 C 13.595 15.35 13.53 15.15 13.489 14.932 C 13.456 14.728 13.447 14.487 13.424 14.268 C 13.377 13.795 13.252 8.782 13.335 8.504 L 13.359 8.448 C 13.475 8.517 13.54 8.712 13.595 8.842 L 14.236 10.021 C 14.505 10.462 15.494 11.929 15.652 12.273 C 15.768 12.537 15.721 13.057 15.726 13.405 C 15.745 13.902 15.93 15.239 15.768 15.647 C 15.693 15.851 15.642 16.069 15.865 16.093 C 16.107 16.116 16.172 15.995 16.19 15.782 C 16.218 15.364 16.172 14.983 16.125 14.607 C 16.046 13.888 16.074 13.006 16.074 12.259 L 16.074 12.259 Z " fill-rule="evenodd" fill="rgb(251,253,252)" mask="url(#_mask_iaYmutGSKiBeAhOYjiXzYZzPmcOxCcj2)" vector-effect="non-scaling-stroke" stroke-width="0.464" stroke="rgb(255,255,255)" stroke-linejoin="miter" stroke-linecap="butt" stroke-miterlimit="10"/><mask id="_mask_rXw3m1wM0Ph8UjxTUquQfWgwXKhg6RTW" x="-200%" y="-200%" width="400%" height="400%"><rect x="-200%" y="-200%" width="400%" height="400%" style="fill:white;"/><path d=" M 18.585 13.113 C 18.367 13.489 18.492 14.867 18.641 15.304 C 18.827 15.847 19.388 16.343 20.182 16.204 C 20.706 16.111 21.175 15.359 21.222 14.76 C 21.25 14.385 21.263 13.934 21.226 13.582 C 21.171 13.043 21.092 13.038 20.878 12.662 C 20.238 11.521 19.193 10.564 19.147 9.409 C 19.128 9.014 19.105 8.685 19.235 8.346 C 19.309 8.137 19.634 7.714 19.857 7.724 C 20.122 7.728 20.391 8.123 20.516 8.318 C 20.804 8.768 20.567 9.079 20.66 9.358 C 20.785 9.39 20.832 9.409 20.966 9.367 C 21.013 9.279 21.008 9.177 21.008 9.074 C 21.004 8.977 21.008 8.866 20.999 8.768 C 20.952 8.374 20.697 7.728 20.354 7.538 C 20.094 7.399 19.606 7.366 19.314 7.482 C 19.073 7.575 18.882 7.905 18.766 8.174 C 18.033 9.868 19.035 10.699 19.727 11.692 C 19.996 12.087 20.405 12.788 20.558 13.34 C 20.744 13.981 20.748 14.9 20.409 15.443 C 20.312 15.605 19.885 15.907 19.602 15.777 C 19.077 15.54 18.864 14.626 18.803 14.078 C 18.738 13.484 19.035 13.08 18.585 13.113 L 18.585 13.113 Z " fill-rule="evenodd" fill="black" stroke="none"/></mask><path d=" M 18.585 13.113 C 18.367 13.489 18.492 14.867 18.641 15.304 C 18.827 15.847 19.388 16.343 20.182 16.204 C 20.706 16.111 21.175 15.359 21.222 14.76 C 21.25 14.385 21.263 13.934 21.226 13.582 C 21.171 13.043 21.092 13.038 20.878 12.662 C 20.238 11.521 19.193 10.564 19.147 9.409 C 19.128 9.014 19.105 8.685 19.235 8.346 C 19.309 8.137 19.634 7.714 19.857 7.724 C 20.122 7.728 20.391 8.123 20.516 8.318 C 20.804 8.768 20.567 9.079 20.66 9.358 C 20.785 9.39 20.832 9.409 20.966 9.367 C 21.013 9.279 21.008 9.177 21.008 9.074 C 21.004 8.977 21.008 8.866 20.999 8.768 C 20.952 8.374 20.697 7.728 20.354 7.538 C 20.094 7.399 19.606 7.366 19.314 7.482 C 19.073 7.575 18.882 7.905 18.766 8.174 C 18.033 9.868 19.035 10.699 19.727 11.692 C 19.996 12.087 20.405 12.788 20.558 13.34 C 20.744 13.981 20.748 14.9 20.409 15.443 C 20.312 15.605 19.885 15.907 19.602 15.777 C 19.077 15.54 18.864 14.626 18.803 14.078 C 18.738 13.484 19.035 13.08 18.585 13.113 L 18.585 13.113 Z " fill-rule="evenodd" fill="rgb(251,253,252)"/><path d=" M 18.585 13.113 C 18.367 13.489 18.492 14.867 18.641 15.304 C 18.827 15.847 19.388 16.343 20.182 16.204 C 20.706 16.111 21.175 15.359 21.222 14.76 C 21.25 14.385 21.263 13.934 21.226 13.582 C 21.171 13.043 21.092 13.038 20.878 12.662 C 20.238 11.521 19.193 10.564 19.147 9.409 C 19.128 9.014 19.105 8.685 19.235 8.346 C 19.309 8.137 19.634 7.714 19.857 7.724 C 20.122 7.728 20.391 8.123 20.516 8.318 C 20.804 8.768 20.567 9.079 20.66 9.358 C 20.785 9.39 20.832 9.409 20.966 9.367 C 21.013 9.279 21.008 9.177 21.008 9.074 C 21.004 8.977 21.008 8.866 20.999 8.768 C 20.952 8.374 20.697 7.728 20.354 7.538 C 20.094 7.399 19.606 7.366 19.314 7.482 C 19.073 7.575 18.882 7.905 18.766 8.174 C 18.033 9.868 19.035 10.699 19.727 11.692 C 19.996 12.087 20.405 12.788 20.558 13.34 C 20.744 13.981 20.748 14.9 20.409 15.443 C 20.312 15.605 19.885 15.907 19.602 15.777 C 19.077 15.54 18.864 14.626 18.803 14.078 C 18.738 13.484 19.035 13.08 18.585 13.113 L 18.585 13.113 Z " fill-rule="evenodd" fill="rgb(251,253,252)" mask="url(#_mask_rXw3m1wM0Ph8UjxTUquQfWgwXKhg6RTW)" vector-effect="non-scaling-stroke" stroke-width="0.464" stroke="rgb(255,255,255)" stroke-linejoin="miter" stroke-linecap="butt" stroke-miterlimit="10"/><mask id="_mask_TyCZeRQ4ChBeJPrHf75FojXOqsnl2aEP" x="-200%" y="-200%" width="400%" height="400%"><rect x="-200%" y="-200%" width="400%" height="400%" style="fill:white;"/><path d=" M 3.774 14.087 L 3.783 13.465 C 3.862 12.895 3.379 13.159 3.337 13.215 C 3.147 13.484 3.453 14.306 3.477 14.593 C 3.532 15.322 3.727 15.777 4.215 16.051 C 4.86 16.404 5.421 16.232 5.77 15.786 C 6.164 15.271 6.224 14.798 6.224 13.99 C 6.215 11.59 3.713 11.117 3.718 8.977 C 3.718 8.545 3.788 8.309 4.043 8.104 C 4.238 7.947 4.567 7.728 4.948 7.789 C 5.473 7.868 5.547 8.411 5.672 8.903 L 5.788 9.367 C 5.793 9.372 5.793 9.385 5.797 9.39 C 5.955 9.395 5.965 9.413 5.988 9.255 C 5.992 9.209 5.983 9 5.978 8.944 C 5.811 7.13 4.419 7.079 3.69 7.993 C 3.022 8.828 3.212 9.307 3.695 10.207 C 4.052 10.871 3.945 10.685 4.447 11.358 C 4.827 11.859 5.055 12.305 5.361 12.913 C 5.649 13.498 5.932 14.115 5.788 14.96 C 5.565 16.264 3.769 16.733 3.774 14.087 L 3.774 14.087 Z " fill-rule="evenodd" fill="black" stroke="none"/></mask><path d=" M 3.774 14.087 L 3.783 13.465 C 3.862 12.895 3.379 13.159 3.337 13.215 C 3.147 13.484 3.453 14.306 3.477 14.593 C 3.532 15.322 3.727 15.777 4.215 16.051 C 4.86 16.404 5.421 16.232 5.77 15.786 C 6.164 15.271 6.224 14.798 6.224 13.99 C 6.215 11.59 3.713 11.117 3.718 8.977 C 3.718 8.545 3.788 8.309 4.043 8.104 C 4.238 7.947 4.567 7.728 4.948 7.789 C 5.473 7.868 5.547 8.411 5.672 8.903 L 5.788 9.367 C 5.793 9.372 5.793 9.385 5.797 9.39 C 5.955 9.395 5.965 9.413 5.988 9.255 C 5.992 9.209 5.983 9 5.978 8.944 C 5.811 7.13 4.419 7.079 3.69 7.993 C 3.022 8.828 3.212 9.307 3.695 10.207 C 4.052 10.871 3.945 10.685 4.447 11.358 C 4.827 11.859 5.055 12.305 5.361 12.913 C 5.649 13.498 5.932 14.115 5.788 14.96 C 5.565 16.264 3.769 16.733 3.774 14.087 L 3.774 14.087 Z " fill-rule="evenodd" fill="rgb(251,253,252)"/><path d=" M 3.774 14.087 L 3.783 13.465 C 3.862 12.895 3.379 13.159 3.337 13.215 C 3.147 13.484 3.453 14.306 3.477 14.593 C 3.532 15.322 3.727 15.777 4.215 16.051 C 4.86 16.404 5.421 16.232 5.77 15.786 C 6.164 15.271 6.224 14.798 6.224 13.99 C 6.215 11.59 3.713 11.117 3.718 8.977 C 3.718 8.545 3.788 8.309 4.043 8.104 C 4.238 7.947 4.567 7.728 4.948 7.789 C 5.473 7.868 5.547 8.411 5.672 8.903 L 5.788 9.367 C 5.793 9.372 5.793 9.385 5.797 9.39 C 5.955 9.395 5.965 9.413 5.988 9.255 C 5.992 9.209 5.983 9 5.978 8.944 C 5.811 7.13 4.419 7.079 3.69 7.993 C 3.022 8.828 3.212 9.307 3.695 10.207 C 4.052 10.871 3.945 10.685 4.447 11.358 C 4.827 11.859 5.055 12.305 5.361 12.913 C 5.649 13.498 5.932 14.115 5.788 14.96 C 5.565 16.264 3.769 16.733 3.774 14.087 L 3.774 14.087 Z " fill-rule="evenodd" fill="rgb(251,253,252)" mask="url(#_mask_TyCZeRQ4ChBeJPrHf75FojXOqsnl2aEP)" vector-effect="non-scaling-stroke" stroke-width="0.464" stroke="rgb(255,255,255)" stroke-linejoin="miter" stroke-linecap="butt" stroke-miterlimit="10"/><mask id="_mask_CeGOFCNQ8Qgcva5Mm3d5jGNHKBf21ZYk" x="-200%" y="-200%" width="400%" height="400%"><rect x="-200%" y="-200%" width="400%" height="400%" style="fill:white;"/><path d=" M 8.703 9.144 C 8.703 8.842 8.722 8.578 8.722 8.262 C 8.722 7.64 8.666 7.701 9.023 7.701 C 9.311 7.696 9.659 7.673 9.942 7.701 C 10.221 7.728 10.453 7.821 10.741 7.733 L 10.732 7.566 C 10.499 7.455 9.669 7.524 9.367 7.533 C 8.285 7.575 8.016 7.255 8.35 8.638 C 8.429 8.954 8.401 9.511 8.401 9.887 L 8.36 11.043 C 8.332 11.85 8.36 13.382 8.364 14.19 C 8.364 14.584 8.411 14.974 8.397 15.341 C 8.369 16.246 8.165 16.097 10.388 16.032 C 10.407 15.508 9.279 15.805 8.898 15.763 C 8.801 15.605 8.726 15.03 8.717 14.77 C 8.717 14.352 8.763 13.999 8.763 13.614 C 8.768 13.354 8.629 11.85 8.805 11.674 C 8.963 11.525 9.729 11.706 9.938 11.595 C 9.891 11.46 9.84 11.46 9.669 11.437 C 9.432 11.409 8.773 11.349 8.671 11.293 C 8.657 10.527 8.703 9.877 8.703 9.144 L 8.703 9.144 Z " fill-rule="evenodd" fill="black" stroke="none"/></mask><path d=" M 8.703 9.144 C 8.703 8.842 8.722 8.578 8.722 8.262 C 8.722 7.64 8.666 7.701 9.023 7.701 C 9.311 7.696 9.659 7.673 9.942 7.701 C 10.221 7.728 10.453 7.821 10.741 7.733 L 10.732 7.566 C 10.499 7.455 9.669 7.524 9.367 7.533 C 8.285 7.575 8.016 7.255 8.35 8.638 C 8.429 8.954 8.401 9.511 8.401 9.887 L 8.36 11.043 C 8.332 11.85 8.36 13.382 8.364 14.19 C 8.364 14.584 8.411 14.974 8.397 15.341 C 8.369 16.246 8.165 16.097 10.388 16.032 C 10.407 15.508 9.279 15.805 8.898 15.763 C 8.801 15.605 8.726 15.03 8.717 14.77 C 8.717 14.352 8.763 13.999 8.763 13.614 C 8.768 13.354 8.629 11.85 8.805 11.674 C 8.963 11.525 9.729 11.706 9.938 11.595 C 9.891 11.46 9.84 11.46 9.669 11.437 C 9.432 11.409 8.773 11.349 8.671 11.293 C 8.657 10.527 8.703 9.877 8.703 9.144 L 8.703 9.144 Z " fill-rule="evenodd" fill="rgb(251,253,252)"/><path d=" M 8.703 9.144 C 8.703 8.842 8.722 8.578 8.722 8.262 C 8.722 7.64 8.666 7.701 9.023 7.701 C 9.311 7.696 9.659 7.673 9.942 7.701 C 10.221 7.728 10.453 7.821 10.741 7.733 L 10.732 7.566 C 10.499 7.455 9.669 7.524 9.367 7.533 C 8.285 7.575 8.016 7.255 8.35 8.638 C 8.429 8.954 8.401 9.511 8.401 9.887 L 8.36 11.043 C 8.332 11.85 8.36 13.382 8.364 14.19 C 8.364 14.584 8.411 14.974 8.397 15.341 C 8.369 16.246 8.165 16.097 10.388 16.032 C 10.407 15.508 9.279 15.805 8.898 15.763 C 8.801 15.605 8.726 15.03 8.717 14.77 C 8.717 14.352 8.763 13.999 8.763 13.614 C 8.768 13.354 8.629 11.85 8.805 11.674 C 8.963 11.525 9.729 11.706 9.938 11.595 C 9.891 11.46 9.84 11.46 9.669 11.437 C 9.432 11.409 8.773 11.349 8.671 11.293 C 8.657 10.527 8.703 9.877 8.703 9.144 L 8.703 9.144 Z " fill-rule="evenodd" fill="rgb(251,253,252)" mask="url(#_mask_CeGOFCNQ8Qgcva5Mm3d5jGNHKBf21ZYk)" vector-effect="non-scaling-stroke" stroke-width="0.464" stroke="rgb(255,255,255)" stroke-linejoin="miter" stroke-linecap="butt" stroke-miterlimit="10"/><mask id="_mask_bSSuJcwAuzWgKmpq7x0s7wWLUoyiACQ9" x="-200%" y="-200%" width="400%" height="400%"><rect x="-200%" y="-200%" width="400%" height="400%" style="fill:white;"/><path d=" M 3.885 17.36 C 4.094 17.457 4.683 17.406 4.948 17.383 C 6.336 17.258 8.968 17.439 10.546 17.439 C 11.275 17.439 12.133 17.471 12.843 17.42 C 13.582 17.374 14.398 17.397 15.155 17.388 C 16.613 17.369 18.195 17.378 19.634 17.536 C 20.493 17.634 20.957 17.592 21.737 17.416 C 21.695 17.276 21.69 17.276 21.616 17.183 C 20.925 17.179 20.149 17.248 19.425 17.248 C 18.701 17.248 17.935 17.225 17.188 17.216 C 15.336 17.174 4.224 17.151 3.885 17.36 L 3.885 17.36 Z " fill-rule="evenodd" fill="black" stroke="none"/></mask><path d=" M 3.885 17.36 C 4.094 17.457 4.683 17.406 4.948 17.383 C 6.336 17.258 8.968 17.439 10.546 17.439 C 11.275 17.439 12.133 17.471 12.843 17.42 C 13.582 17.374 14.398 17.397 15.155 17.388 C 16.613 17.369 18.195 17.378 19.634 17.536 C 20.493 17.634 20.957 17.592 21.737 17.416 C 21.695 17.276 21.69 17.276 21.616 17.183 C 20.925 17.179 20.149 17.248 19.425 17.248 C 18.701 17.248 17.935 17.225 17.188 17.216 C 15.336 17.174 4.224 17.151 3.885 17.36 L 3.885 17.36 Z " fill-rule="evenodd" fill="rgb(251,253,252)"/><path d=" M 3.885 17.36 C 4.094 17.457 4.683 17.406 4.948 17.383 C 6.336 17.258 8.968 17.439 10.546 17.439 C 11.275 17.439 12.133 17.471 12.843 17.42 C 13.582 17.374 14.398 17.397 15.155 17.388 C 16.613 17.369 18.195 17.378 19.634 17.536 C 20.493 17.634 20.957 17.592 21.737 17.416 C 21.695 17.276 21.69 17.276 21.616 17.183 C 20.925 17.179 20.149 17.248 19.425 17.248 C 18.701 17.248 17.935 17.225 17.188 17.216 C 15.336 17.174 4.224 17.151 3.885 17.36 L 3.885 17.36 Z " fill-rule="evenodd" fill="rgb(251,253,252)" mask="url(#_mask_bSSuJcwAuzWgKmpq7x0s7wWLUoyiACQ9)" vector-effect="non-scaling-stroke" stroke-width="0.464" stroke="rgb(255,255,255)" stroke-linejoin="miter" stroke-linecap="butt" stroke-miterlimit="10"/></g></g></g></svg>