<?xml version="1.0" encoding="UTF-8" standalone="no"?><!-- Generator: Gravit.io --><svg xmlns="http://www.w3.org/2000/svg" xmlns:xlink="http://www.w3.org/1999/xlink" style="isolation:isolate" viewBox="0 0 25 25" width="25pt" height="25pt"><defs><clipPath id="_clipPath_czy7GZ5JnJ7AwXl3d87IL2vUbE1le1U9"><rect width="25" height="25"/></clipPath></defs><g clip-path="url(#_clipPath_czy7GZ5JnJ7AwXl3d87IL2vUbE1le1U9)"><g><radialGradient id="_rgradient_7" fx="0.5" fy="0.5" cx="0.5" cy="0.5" r="0.5" gradientTransform="matrix(25,0,0,25,0,0)" gradientUnits="userSpaceOnUse"><stop offset="0%" stop-opacity="1" style="stop-color:rgb(255,255,255)"/><stop offset="95%" stop-opacity="1" style="stop-color:rgb(255,255,255)"/><stop offset="99.16666666666667%" stop-opacity="1" style="stop-color:rgb(244,77,77)"/></radialGradient><circle vector-effect="non-scaling-stroke" cx="12.5" cy="12.5" r="12.5" fill="url(#_rgradient_7)"/><path d=" M 14.854 20 L 10.146 20 C 9.904 20 9.707 19.803 9.707 19.561 L 9.707 15.293 L 5.439 15.293 C 5.197 15.293 5 15.096 5 14.854 L 5 10.146 C 5 9.904 5.197 9.707 5.439 9.707 L 9.707 9.707 L 9.707 5.439 C 9.707 5.197 9.904 5 10.146 5 L 14.854 5 C 15.096 5 15.293 5.197 15.293 5.439 L 15.293 9.707 L 19.561 9.707 C 19.803 9.707 20 9.904 20 10.146 L 20 14.854 C 20 15.096 19.803 15.293 19.561 15.293 L 15.293 15.293 L 15.293 19.561 C 15.293 19.803 15.096 20 14.854 20 L 14.854 20 Z " fill="rgb(244,77,77)"/></g></g></svg>