<?xml version="1.0" encoding="UTF-8" standalone="no"?><!-- Generator: Gravit.io --><svg xmlns="http://www.w3.org/2000/svg" xmlns:xlink="http://www.w3.org/1999/xlink" style="isolation:isolate" viewBox="0 0 25 25" width="25px" height="25px"><defs><clipPath id="_clipPath_rEcd4u5UDGI38fFhtl3jySRDwntYFRRv"><rect width="25" height="25"/></clipPath></defs><g clip-path="url(#_clipPath_rEcd4u5UDGI38fFhtl3jySRDwntYFRRv)"><g><radialGradient id="_rgradient_15" fx="0.5" fy="0.5" cx="0.5" cy="0.5" r="0.5" gradientTransform="matrix(25,0,0,25,0,0)" gradientUnits="userSpaceOnUse"><stop offset="0%" stop-opacity="1" style="stop-color:rgb(255,255,255)"/><stop offset="95%" stop-opacity="1" style="stop-color:rgb(255,255,255)"/><stop offset="97.91666666666666%" stop-opacity="1" style="stop-color:rgb(120,151,255)"/></radialGradient><circle vector-effect="non-scaling-stroke" cx="12.5" cy="12.5" r="12.5" fill="url(#_rgradient_15)"/><path d=" M 12.5 10.068 C 10.587 10.068 9.026 11.591 8.959 13.489 C 9.052 13.54 9.17 13.609 9.323 13.603 C 9.715 13.589 10.159 13.109 10.159 13.109 C 11.033 12.306 11.649 13.257 12.41 13.557 C 12.849 13.737 13.236 13.35 13.564 13.108 C 14.041 12.758 14.653 12.676 15.122 13.107 C 15.126 13.111 15.54 13.536 16.044 13.555 C 16.012 11.627 14.436 10.068 12.5 10.068 Z  M 16.858 5 L 8.142 5 L 6.115 5 L 6.115 17.973 C 6.115 19.088 7.027 20 8.142 20 L 16.858 20 C 17.973 20 18.885 19.088 18.885 17.973 L 18.885 5 L 16.858 5 Z  M 14.324 6.216 C 14.716 6.216 15.034 6.534 15.034 6.926 C 15.034 7.317 14.716 7.635 14.324 7.635 C 13.932 7.635 13.615 7.317 13.615 6.926 C 13.615 6.534 13.932 6.216 14.324 6.216 Z  M 7.534 6.419 L 9.764 6.419 L 9.764 7.432 L 7.534 7.432 L 7.534 6.419 Z  M 12.5 18.176 C 9.981 18.176 7.939 16.134 7.939 13.615 C 7.939 11.096 9.981 9.054 12.5 9.054 C 15.019 9.054 17.061 11.096 17.061 13.615 C 17.061 16.134 15.019 18.176 12.5 18.176 Z  M 16.757 7.635 C 16.365 7.635 16.047 7.318 16.047 6.926 C 16.047 6.534 16.365 6.216 16.757 6.216 C 17.149 6.216 17.466 6.534 17.466 6.926 C 17.466 7.318 17.149 7.635 16.757 7.635 Z " fill-rule="evenodd" fill="rgb(120,151,255)"/></g></g></svg>
