<?xml version="1.0" encoding="UTF-8" standalone="no"?><!-- Generator: Gravit.io --><svg xmlns="http://www.w3.org/2000/svg" xmlns:xlink="http://www.w3.org/1999/xlink" style="isolation:isolate" viewBox="0 0 32 32" width="32px" height="32px"><defs><clipPath id="_clipPath_kez0W9X0DE6fCKBQpqOjRtHYtEUtfp1a"><rect width="32" height="32"/></clipPath></defs><g clip-path="url(#_clipPath_kez0W9X0DE6fCKBQpqOjRtHYtEUtfp1a)"><g><path d=" M 23 30.792 L 3.667 30.792 C 1.644 30.792 0 29.148 0 27.125 L 0 15.792 C 0 13.769 1.644 12.125 3.667 12.125 L 23 12.125 C 25.023 12.125 26.667 13.769 26.667 15.792 L 26.667 27.125 C 26.667 29.148 25.023 30.792 23 30.792 Z  M 3.667 14.125 C 2.748 14.125 2 14.873 2 15.792 L 2 27.125 C 2 28.044 2.748 28.792 3.667 28.792 L 23 28.792 C 23.919 28.792 24.667 28.044 24.667 27.125 L 24.667 15.792 C 24.667 14.873 23.919 14.125 23 14.125 L 3.667 14.125 Z " fill="rgb(255,141,0)"/><path d=" M 8.333 22.792 L 6.333 22.792 C 5.047 22.792 4 21.745 4 20.458 L 4 18.458 C 4 17.172 5.047 16.125 6.333 16.125 L 8.333 16.125 C 9.62 16.125 10.667 17.172 10.667 18.458 L 10.667 20.458 C 10.667 21.745 9.62 22.792 8.333 22.792 Z  M 6.333 18.125 C 6.149 18.125 6 18.274 6 18.458 L 6 20.458 C 6 20.642 6.149 20.792 6.333 20.792 L 8.333 20.792 C 8.517 20.792 8.667 20.642 8.667 20.458 L 8.667 18.458 C 8.667 18.274 8.517 18.125 8.333 18.125 L 6.333 18.125 Z " fill="rgb(255,141,0)"/><path d=" M 21.667 26.792 L 5 26.792 C 4.448 26.792 4 26.344 4 25.792 C 4 25.24 4.448 24.792 5 24.792 L 21.667 24.792 C 22.219 24.792 22.667 25.24 22.667 25.792 C 22.667 26.344 22.219 26.792 21.667 26.792 Z " fill="rgb(255,141,0)"/><path d=" M 30.333 8.792 L 7 8.792 C 6.448 8.792 6 8.344 6 7.792 C 6 7.24 6.448 6.792 7 6.792 L 30.333 6.792 C 30.885 6.792 31.333 7.24 31.333 7.792 C 31.333 8.344 30.885 8.792 30.333 8.792 Z " fill="rgb(255,141,0)"/><path d=" M 29.667 19.752 C 29.319 19.752 28.98 19.569 28.796 19.245 C 28.523 18.765 28.692 18.154 29.172 17.882 C 29.689 17.589 29.999 17.056 29.999 16.458 L 29.999 5.125 C 29.999 4.206 29.251 3.458 28.332 3.458 L 9 3.458 C 8.081 3.458 7.333 4.206 7.333 5.125 L 7.333 9.125 C 7.333 9.677 6.885 10.125 6.333 10.125 C 5.781 10.125 5.333 9.677 5.333 9.125 L 5.333 5.125 C 5.333 3.102 6.977 1.458 9 1.458 L 28.333 1.458 C 30.356 1.458 32 3.102 32 5.125 L 32 16.458 C 32 17.766 31.295 18.978 30.16 19.622 C 30.004 19.71 29.835 19.752 29.667 19.752 Z " fill="rgb(255,141,0)"/></g></g></svg>
