<?xml version="1.0" encoding="UTF-8" standalone="no"?><!-- Generator: Gravit.io --><svg xmlns="http://www.w3.org/2000/svg" xmlns:xlink="http://www.w3.org/1999/xlink" style="isolation:isolate" viewBox="0 0 20 20" width="20px" height="20px"><defs><clipPath id="_clipPath_cuiZsUSjt6YVLpE09y9SuBNq5S2yxqfC"><rect width="20" height="20"/></clipPath></defs><g clip-path="url(#_clipPath_cuiZsUSjt6YVLpE09y9SuBNq5S2yxqfC)"><rect width="20" height="20" style="fill:rgb(244,114,114)" fill-opacity="0"/><clipPath id="_clipPath_GJxkpmpLBsEXaqwzb50gXycXMW5cZLg8"><rect x="1" y="0" width="18" height="20" transform="matrix(1,0,0,1,0,0)" fill="rgb(255,255,255)"/></clipPath><g clip-path="url(#_clipPath_GJxkpmpLBsEXaqwzb50gXycXMW5cZLg8)"><g><g><g><g><path d=" M 10 0 C 5.865 0 2.5 3.339 2.5 7.443 C 2.5 9.739 3.691 12.525 6.04 15.725 C 7.759 18.067 9.453 19.737 9.524 19.807 C 9.655 19.936 9.828 20 10 20 C 10.168 20 10.335 19.939 10.465 19.817 C 10.537 19.75 12.235 18.148 13.957 15.838 C 16.308 12.686 17.5 9.862 17.5 7.443 C 17.5 3.339 14.136 0 10 0 Z  M 10.009 18.404 C 8.499 16.806 3.842 11.548 3.842 7.443 C 3.842 4.06 6.604 1.308 10 1.308 C 13.396 1.308 16.158 4.06 16.158 7.443 C 16.158 11.768 11.526 16.854 10.009 18.404 Z " fill="rgb(62,60,60)"/></g></g><g><g><path d=" M 10 3.508 C 7.978 3.508 6.333 5.111 6.333 7.082 C 6.333 9.053 7.978 10.657 10 10.657 C 12.022 10.657 13.667 9.053 13.667 7.082 C 13.667 5.111 12.022 3.508 10 3.508 Z  M 10 9.348 C 8.718 9.348 7.675 8.332 7.675 7.082 C 7.675 5.832 8.718 4.815 10 4.815 C 11.282 4.815 12.325 5.832 12.325 7.082 C 12.325 8.332 11.282 9.348 10 9.348 Z " fill="rgb(62,60,60)"/></g></g></g></g></g></g></svg>
