<?xml version="1.0" encoding="UTF-8" standalone="no"?><!-- Generator: Gravit.io --><svg xmlns="http://www.w3.org/2000/svg" xmlns:xlink="http://www.w3.org/1999/xlink" style="isolation:isolate" viewBox="0 0 20 20" width="20px" height="20px"><defs><clipPath id="_clipPath_w0wgT5UhgfLmnETiGNrRGvLaSs0OD1HC"><rect width="20" height="20"/></clipPath></defs><g clip-path="url(#_clipPath_w0wgT5UhgfLmnETiGNrRGvLaSs0OD1HC)"><rect width="20" height="20" style="fill:rgb(244,114,114)" fill-opacity="0"/><g><path d=" M 18.117 4.47 L 17.675 3.147 C 17.507 2.643 17.037 2.304 16.506 2.304 L 12.794 2.304 L 12.794 1.095 C 12.794 0.491 12.303 0 11.699 0 L 8.301 0 C 7.697 0 7.206 0.491 7.206 1.095 L 7.206 2.304 L 3.495 2.304 C 2.963 2.304 2.493 2.643 2.325 3.147 L 1.883 4.47 C 1.783 4.772 1.834 5.105 2.019 5.363 C 2.205 5.621 2.505 5.775 2.823 5.775 L 3.285 5.775 L 4.301 18.338 C 4.376 19.27 5.167 20 6.102 20 L 14.104 20 C 15.039 20 15.83 19.27 15.905 18.337 L 16.921 5.775 L 17.177 5.775 C 17.495 5.775 17.795 5.621 17.981 5.363 C 18.166 5.106 18.217 4.772 18.117 4.47 L 18.117 4.47 Z  M 8.378 1.172 L 11.622 1.172 L 11.622 2.304 L 8.378 2.304 L 8.378 1.172 Z  M 14.737 18.243 C 14.711 18.571 14.433 18.828 14.104 18.828 L 6.102 18.828 C 5.773 18.828 5.495 18.571 5.469 18.243 L 4.46 5.775 L 15.746 5.775 L 14.737 18.243 Z  M 3.074 4.603 L 3.437 3.517 C 3.445 3.492 3.468 3.476 3.495 3.476 L 16.506 3.476 C 16.532 3.476 16.555 3.492 16.564 3.517 L 16.926 4.603 L 3.074 4.603 Z " fill="rgb(62,60,60)"/><path d=" M 12.868 18.201 C 12.879 18.202 12.889 18.202 12.899 18.202 C 13.209 18.202 13.468 17.96 13.484 17.647 L 14.034 7.084 C 14.051 6.761 13.802 6.485 13.479 6.469 C 13.156 6.451 12.881 6.7 12.864 7.023 L 12.314 17.586 C 12.297 17.909 12.545 18.185 12.868 18.201 L 12.868 18.201 Z " fill="rgb(62,60,60)"/><path d=" M 6.542 17.648 C 6.559 17.961 6.818 18.202 7.127 18.202 C 7.137 18.202 7.148 18.202 7.159 18.201 C 7.482 18.184 7.73 17.908 7.712 17.584 L 7.136 7.022 C 7.119 6.699 6.842 6.451 6.519 6.469 C 6.196 6.486 5.948 6.763 5.966 7.086 L 6.542 17.648 Z " fill="rgb(62,60,60)"/><path d=" M 10.007 18.202 C 10.33 18.202 10.592 17.94 10.592 17.616 L 10.592 7.054 C 10.592 6.73 10.33 6.468 10.007 6.468 C 9.683 6.468 9.421 6.73 9.421 7.054 L 9.421 17.616 C 9.421 17.94 9.683 18.202 10.007 18.202 Z " fill="rgb(62,60,60)"/></g></g></svg>
