<?xml version="1.0" encoding="utf-8"?>
<!-- Generator: Adobe Illustrator 19.0.1, SVG Export Plug-In . SVG Version: 6.00 Build 0)  -->
<svg version="1.1" id="Слой_1" xmlns="http://www.w3.org/2000/svg" xmlns:xlink="http://www.w3.org/1999/xlink" x="0px" y="0px"
	 viewBox="-269 392.2 56.7 56.7" style="enable-background:new -269 392.2 56.7 56.7;" xml:space="preserve">
<style type="text/css">
	.st0{fill:#009EE2;}
	.st1{fill:#FFFFFF;stroke:#FFFFFF;stroke-width:0.7308;stroke-miterlimit:10;}
	.st2{fill:#FFFFFF;}
</style>
<path class="st0" d="M-240.6,447.5L-240.6,447.5c-14.9,0-26.9-12.1-26.9-26.9v0c0-14.9,12.1-26.9,26.9-26.9h0
	c14.9,0,26.9,12.1,26.9,26.9v0C-213.6,435.4-225.7,447.5-240.6,447.5z"/>
<g>
	<path class="st1" d="M-227.5,431.4H-254c-0.7,0-1.3-0.6-1.3-1.3v-17.5c0-0.7,0.6-1.3,1.3-1.3h26.5c0.7,0,1.3,0.6,1.3,1.3v3h1
		c0.8,0,1.5,0.7,1.5,1.5v9.2c0,0.8-0.7,1.5-1.5,1.5h-1v2.4C-226.2,430.9-226.7,431.4-227.5,431.4z M-254,412.6
		C-254,412.6-254,412.6-254,412.6l-0.1,17.6c0,0,0,0.1,0.1,0.1h26.5c0,0,0.1,0,0.1-0.1v-3c0-0.2,0.1-0.3,0.2-0.5
		c0.1-0.1,0.3-0.2,0.5-0.2l1.5,0c0.1,0,0.2-0.1,0.2-0.2V417c0-0.1-0.1-0.2-0.2-0.2h-1.5c-0.2,0-0.4,0-0.5-0.2
		c-0.1-0.1-0.2-0.3-0.2-0.5v-3.6c0,0,0-0.1-0.1-0.1H-254z"/>
	<path class="st2" d="M-241.7,428.3c-0.1,0-0.1,0-0.2,0c-0.3-0.1-0.5-0.4-0.4-0.7l0.5-4.7l-2-0.2c-0.2,0-0.4-0.2-0.5-0.4
		c-0.1-0.2-0.1-0.5,0-0.6l4.6-6.9c0.2-0.3,0.5-0.4,0.8-0.2c0.3,0.1,0.5,0.4,0.4,0.7l-0.5,4l2.3,0.1c0.2,0,0.4,0.1,0.6,0.4
		c0.1,0.2,0.1,0.5,0,0.7l-5,7.6C-241.2,428.2-241.4,428.3-241.7,428.3z"/>
</g>
</svg>
