<?xml version="1.0" encoding="UTF-8" standalone="no"?><!-- Generator: Gravit.io --><svg xmlns="http://www.w3.org/2000/svg" xmlns:xlink="http://www.w3.org/1999/xlink" style="isolation:isolate" viewBox="0 0 20 20" width="20px" height="20px"><defs><clipPath id="_clipPath_bWLFPa3Y6s0AOysWvqzIlId4c6aF74ij"><rect width="20" height="20"/></clipPath></defs><g clip-path="url(#_clipPath_bWLFPa3Y6s0AOysWvqzIlId4c6aF74ij)"><path d=" M 18.125 2.5 L 1.875 2.5 C 0.841 2.5 0 3.341 0 4.375 L 0 15.625 C 0 16.659 0.841 17.5 1.875 17.5 L 18.125 17.5 C 19.159 17.5 20 16.659 20 15.625 L 20 4.375 C 20 3.341 19.159 2.5 18.125 2.5 L 18.125 2.5 Z  M 18.125 3.75 C 18.21 3.75 18.291 3.768 18.365 3.798 L 10 11.048 L 1.635 3.798 C 1.709 3.768 1.79 3.75 1.875 3.75 L 18.125 3.75 Z  M 18.125 16.25 L 1.875 16.25 C 1.53 16.25 1.25 15.97 1.25 15.625 L 1.25 5.119 L 9.59 12.347 C 9.708 12.449 9.854 12.5 10 12.5 C 10.146 12.5 10.292 12.449 10.41 12.347 L 18.75 5.119 L 18.75 15.625 C 18.75 15.97 18.47 16.25 18.125 16.25 L 18.125 16.25 Z " fill="rgb(232,76,120)"/></g></svg>
