<?xml version="1.0" encoding="UTF-8" standalone="no"?><!-- Generator: Gravit.io --><svg xmlns="http://www.w3.org/2000/svg" xmlns:xlink="http://www.w3.org/1999/xlink" style="isolation:isolate" viewBox="0 0 25 25" width="25px" height="25px"><defs><clipPath id="_clipPath_HWnMB9vZ1BjKwawtitJF3mjdkYcHNY9T"><rect width="25" height="25"/></clipPath></defs><g clip-path="url(#_clipPath_HWnMB9vZ1BjKwawtitJF3mjdkYcHNY9T)"><clipPath id="_clipPath_AoOE7PCmVSyBOW42bUWAXcshyjMHdOlh"><rect x="0" y="0" width="30" height="30" transform="matrix(1,0,0,1,0,0)" fill="rgb(255,255,255)"/></clipPath><g clip-path="url(#_clipPath_AoOE7PCmVSyBOW42bUWAXcshyjMHdOlh)"><g><g><path d=" M 24.609 5.497 C 24.273 5.082 23.775 4.844 23.241 4.844 L 4.187 4.844 L 4.016 3.624 C 3.895 2.761 3.147 2.109 2.275 2.109 L 0.781 2.109 C 0.35 2.109 0 2.459 0 2.891 C 0 3.322 0.35 3.672 0.781 3.672 L 2.275 3.672 C 2.372 3.672 2.455 3.745 2.469 3.841 L 4.577 18.954 C 4.698 19.817 5.446 20.469 6.319 20.469 L 7.166 20.469 C 7.079 20.713 7.031 20.976 7.031 21.25 C 7.031 22.542 8.083 23.594 9.375 23.594 C 10.667 23.594 11.719 22.542 11.719 21.25 C 11.719 20.976 11.671 20.713 11.584 20.469 L 15.759 20.469 C 15.673 20.713 15.625 20.976 15.625 21.25 C 15.625 22.542 16.677 23.594 17.969 23.594 C 19.261 23.594 20.312 22.542 20.312 21.25 C 20.312 20.976 20.265 20.713 20.178 20.469 L 21.875 20.469 C 22.306 20.469 22.656 20.119 22.656 19.687 C 22.656 19.256 22.306 18.906 21.875 18.906 L 6.319 18.906 C 6.222 18.906 6.138 18.834 6.125 18.738 L 5.93 17.344 L 21.316 17.344 C 22.139 17.344 22.862 16.759 23.035 15.954 L 24.96 6.97 C 25.073 6.448 24.944 5.912 24.609 5.497 L 24.609 5.497 Z  M 10.156 21.25 C 10.156 21.68 9.805 22.031 9.375 22.031 C 8.945 22.031 8.594 21.68 8.594 21.25 C 8.594 20.82 8.945 20.469 9.375 20.469 C 9.805 20.469 10.156 20.819 10.156 21.25 Z  M 18.75 21.25 C 18.75 21.68 18.399 22.031 17.969 22.031 C 17.537 22.031 17.187 21.68 17.187 21.25 C 17.187 20.82 17.537 20.469 17.969 20.469 C 18.399 20.469 18.75 20.819 18.75 21.25 Z  M 23.433 6.642 L 21.508 15.627 C 21.488 15.716 21.408 15.781 21.316 15.781 L 5.712 15.781 L 4.405 6.406 L 23.241 6.406 C 23.319 6.406 23.367 6.445 23.394 6.479 C 23.42 6.512 23.449 6.567 23.433 6.642 L 23.433 6.642 Z " fill="rgb(255,141,0)"/></g></g></g></g></svg>
