<?xml version="1.0" encoding="UTF-8" standalone="no"?><!-- Generator: Gravit.io --><svg xmlns="http://www.w3.org/2000/svg" xmlns:xlink="http://www.w3.org/1999/xlink" style="isolation:isolate" viewBox="0 0 32 32" width="32px" height="32px"><defs><clipPath id="_clipPath_mQZZBSI9kReGmhJe8EPliXSW4wH3nbCy"><rect width="32" height="32"/></clipPath></defs><g clip-path="url(#_clipPath_mQZZBSI9kReGmhJe8EPliXSW4wH3nbCy)"><g><path d=" M 8.465 0 C 4.156 0 0.936 5.604 0.936 10.615 C 0.936 14.165 2.517 16.669 5.638 18.068 L 5.341 31.041 C 5.329 31.565 5.749 32 6.278 32 C 6.786 32 7.203 31.594 7.215 31.084 L 7.528 17.469 C 7.537 17.071 7.294 16.711 6.922 16.57 C 4.117 15.508 2.811 13.616 2.811 10.615 C 2.811 -0.802 14.12 -0.706 14.12 10.615 C 14.12 13.616 12.814 15.508 10.008 16.57 C 9.637 16.711 9.394 17.071 9.403 17.469 L 9.716 31.084 C 9.727 31.594 10.145 32 10.652 32 C 11.182 32 11.602 31.564 11.59 31.041 L 11.292 18.068 C 14.414 16.67 15.995 14.165 15.995 10.615 C 15.995 5.604 12.775 0 8.465 0 Z " fill="rgb(255,141,0)"/><path d=" M 30.127 0.067 C 29.609 0.067 29.189 0.487 29.189 1.005 L 29.189 11.25 L 27.314 11.25 L 27.314 0.938 C 27.314 0.42 26.894 0 26.377 0 C 25.859 0 25.439 0.42 25.439 0.938 L 25.439 11.25 L 23.564 11.25 L 23.564 0.938 C 23.564 0.42 23.144 0 22.627 0 C 22.109 0 21.689 0.42 21.689 0.938 L 21.689 11.25 L 19.808 11.25 L 19.808 1.005 C 19.808 0.487 19.388 0.067 18.87 0.067 C 18.353 0.067 17.933 0.487 17.933 1.005 L 17.933 12.187 C 17.933 14.734 19.411 17.037 21.674 18.116 C 21.262 35.774 21.408 29.645 21.374 30.979 C 21.361 31.508 21.789 31.939 22.311 31.939 C 22.814 31.939 23.236 31.536 23.248 31.022 C 23.248 31.022 23.248 31.022 23.248 31.022 C 23.248 31.022 23.248 31.022 23.248 31.021 C 23.248 31.021 23.248 31.021 23.248 31.02 L 23.248 31.02 C 23.249 30.973 23.27 30.076 23.564 17.518 C 23.573 17.112 23.321 16.747 22.938 16.612 C 21.367 16.058 20.228 14.716 19.903 13.125 L 29.094 13.125 C 28.769 14.715 27.632 16.056 26.063 16.61 C 25.682 16.745 25.43 17.108 25.438 17.512 C 25.468 19.179 25.655 29.339 25.686 31.018 C 25.696 31.541 26.131 31.949 26.641 31.938 C 27.149 31.926 27.573 31.542 27.559 30.893 L 27.324 18.115 C 29.586 17.036 31.064 14.733 31.064 12.187 L 31.064 1.005 C 31.064 0.487 30.644 0.067 30.127 0.067 L 30.127 0.067 Z " fill="rgb(255,141,0)"/></g></g></svg>
