<?xml version="1.0" encoding="UTF-8"?>
<svg width="32px" height="32px" viewBox="0 0 32 32" version="1.1" xmlns="http://www.w3.org/2000/svg" xmlns:xlink="http://www.w3.org/1999/xlink">
    <!-- Generator: Sketch 44.1 (41455) - http://www.bohemiancoding.com/sketch -->
    <title>Metacategory / hairdressers</title>
    <desc>Created with Sketch.</desc>
    <defs></defs>
    <g id="Page-1" stroke="none" stroke-width="1" fill="none" fill-rule="evenodd">
        <g id="New-meta-draft" transform="translate(-684.000000, -84.000000)">
            <g id="Slice" transform="translate(84.000000, 84.000000)"></g>
            <g id="Icon" transform="translate(51.000000, 42.000000)" stroke="#8345FE" stroke-width="2">
                <g id="Meta" transform="translate(28.000000, 0.000000)">
                    <g id="Hairdressers" transform="translate(608.000000, 43.660004)">
                        <path d="M8,24.3349 C8,22.1259 6.209,20.3349 4,20.3349 C1.791,20.3349 0,22.1259 0,24.3349 C0,26.5439 1.791,28.3349 4,28.3349 C6.209,28.3349 8,26.5439 8,24.3349 Z" id="Stroke-1"></path>
                        <path d="M7.6589,25.9524 L19.9999,0.3354 L19.9999,0.3354 C22.2249,1.4064 23.1599,4.0794 22.0879,6.3044 L17.2359,16.3774 L12.2359,16.4504" id="Stroke-3"></path>
                        <path d="M18,24.3349 C18,22.1259 19.791,20.3349 22,20.3349 C24.209,20.3349 26,22.1259 26,24.3349 C26,26.5439 24.209,28.3349 22,28.3349 C19.791,28.3349 18,26.5439 18,24.3349 Z" id="Stroke-5"></path>
                        <path d="M11.2989,11.3344 L5.9999,0.3354 L5.9999,0.3354 C3.7749,1.4064 2.8399,4.0794 3.9119,6.3044 L8.7639,16.3774" id="Stroke-7"></path>
                        <path d="M18.3411,25.9524 L15.1551,19.3384" id="Stroke-9"></path>
                    </g>
                </g>
            </g>
        </g>
    </g>
</svg>