<?xml version="1.0" encoding="UTF-8" standalone="no"?><!-- Generator: Gravit.io --><svg xmlns="http://www.w3.org/2000/svg" xmlns:xlink="http://www.w3.org/1999/xlink" style="isolation:isolate" viewBox="0 0 32 32" width="32px" height="32px"><defs><clipPath id="_clipPath_4RYnCUKP7hu3hXUJEQ4DhjasNAsC3UPP"><rect width="32" height="32"/></clipPath></defs><g clip-path="url(#_clipPath_4RYnCUKP7hu3hXUJEQ4DhjasNAsC3UPP)"><g><g><g><path d=" M 27.712 16.219 L 29.527 14.404 C 32.824 11.107 32.824 5.77 29.527 2.473 C 26.23 -0.824 20.894 -0.825 17.596 2.473 C 16.892 3.177 3.111 16.958 2.473 17.596 C -0.824 20.893 -0.824 26.23 2.473 29.527 C 5.77 32.824 11.106 32.825 14.404 29.527 L 16.219 27.712 C 17.67 30.269 20.418 31.998 23.562 31.998 C 28.213 31.998 31.998 28.213 31.998 23.562 C 31.998 20.417 30.269 17.67 27.712 16.219 Z  M 15.125 23.562 C 15.125 24.351 15.234 25.116 15.438 25.841 L 13.078 28.201 C 10.514 30.766 6.363 30.766 3.799 28.201 C 1.234 25.637 1.234 21.486 3.799 18.922 L 10.64 12.08 L 16.922 18.362 C 15.797 19.796 15.125 21.602 15.125 23.562 Z  M 22.624 30.056 C 19.448 29.6 17 26.861 17 23.562 C 17 20.262 19.448 17.523 22.624 17.067 L 22.624 30.056 L 22.624 30.056 Z  M 18.235 17.024 L 11.966 10.755 L 18.922 3.799 C 21.486 1.234 25.637 1.234 28.201 3.799 C 30.766 6.363 30.766 10.514 28.201 13.078 L 25.841 15.438 C 25.116 15.234 24.351 15.125 23.562 15.125 C 21.543 15.125 19.689 15.838 18.235 17.024 Z  M 24.499 30.056 L 24.499 17.067 C 27.675 17.523 30.123 20.262 30.123 23.562 C 30.123 26.861 27.675 29.6 24.499 30.056 Z " fill="rgb(236,50,50)"/></g></g></g></g></svg>
