<?xml version="1.0" encoding="UTF-8" standalone="no"?><!-- Generator: Gravit.io --><svg xmlns="http://www.w3.org/2000/svg" xmlns:xlink="http://www.w3.org/1999/xlink" style="isolation:isolate" viewBox="0 0 32 32" width="32px" height="32px"><defs><clipPath id="_clipPath_RgqLWwsi6CBTJz7zOrEETFbbAtVbTf2H"><rect width="32" height="32"/></clipPath></defs><g clip-path="url(#_clipPath_RgqLWwsi6CBTJz7zOrEETFbbAtVbTf2H)"><g><g><g><path d=" M 30.857 8 L 25.143 8 L 25.143 1.143 C 25.143 0.512 24.631 0 24 0 L 8 0 C 7.369 0 6.857 0.512 6.857 1.143 L 6.857 8 L 1.143 8 C 0.512 8 0 8.512 0 9.143 L 0 24 C 0 24.631 0.512 25.143 1.143 25.143 L 6.857 25.143 L 6.857 30.857 C 6.857 31.488 7.369 32 8 32 L 24 32 C 24.631 32 25.143 31.488 25.143 30.857 L 25.143 25.143 L 30.857 25.143 C 31.488 25.143 32 24.631 32 24 L 32 9.143 C 32 8.512 31.488 8 30.857 8 Z  M 9.143 2.286 L 22.857 2.286 L 22.857 8 L 9.143 8 L 9.143 2.286 L 9.143 2.286 Z  M 22.857 29.714 L 9.143 29.714 L 9.143 19.429 L 22.857 19.429 L 22.857 29.714 Z  M 29.714 22.857 L 25.143 22.857 L 25.143 19.429 L 26.286 19.429 C 26.917 19.429 27.429 18.917 27.429 18.286 C 27.429 17.654 26.917 17.143 26.286 17.143 L 5.714 17.143 C 5.083 17.143 4.571 17.655 4.571 18.286 C 4.571 18.917 5.083 19.429 5.714 19.429 L 6.857 19.429 L 6.857 22.857 L 2.286 22.857 L 2.286 10.286 L 29.714 10.286 L 29.714 22.857 Z  M 27.429 12.571 L 26.286 12.571 C 25.654 12.571 25.143 13.083 25.143 13.714 C 25.143 14.345 25.654 14.857 26.286 14.857 L 27.429 14.857 C 28.06 14.857 28.571 14.345 28.571 13.714 C 28.571 13.083 28.06 12.571 27.429 12.571 Z  M 19.429 21.714 L 12.571 21.714 C 11.94 21.714 11.429 22.226 11.429 22.857 C 11.429 23.488 11.94 24 12.571 24 L 19.429 24 C 20.06 24 20.571 23.488 20.571 22.857 C 20.571 22.226 20.06 21.714 19.429 21.714 Z  M 19.429 25.143 L 12.571 25.143 C 11.94 25.143 11.429 25.655 11.429 26.286 C 11.429 26.917 11.94 27.429 12.571 27.429 L 19.429 27.429 C 20.06 27.429 20.571 26.917 20.571 26.286 C 20.571 25.655 20.06 25.143 19.429 25.143 Z " fill-rule="evenodd" fill="rgb(108,108,108)"/></g></g></g></g></svg>
