<?xml version="1.0" encoding="UTF-8" standalone="no"?><!-- Generator: Gravit.io --><svg xmlns="http://www.w3.org/2000/svg" xmlns:xlink="http://www.w3.org/1999/xlink" style="isolation:isolate" viewBox="0 0 25 25" width="25px" height="25px"><defs><clipPath id="_clipPath_KiyDAgCQQGH8pyg6dNoulbYKfLvCaef3"><rect width="25" height="25"/></clipPath></defs><g clip-path="url(#_clipPath_KiyDAgCQQGH8pyg6dNoulbYKfLvCaef3)"><clipPath id="_clipPath_xcuCvtiQlrsdW9wlzDjMAh2IYAuWnCT4"><rect x="0" y="0" width="25" height="25" transform="matrix(1,0,0,1,0,0)" fill="rgb(255,255,255)"/></clipPath><g clip-path="url(#_clipPath_xcuCvtiQlrsdW9wlzDjMAh2IYAuWnCT4)"><g><g><g><g><path d=" M 24.107 6.25 L 19.643 6.25 L 19.643 0.893 C 19.643 0.4 19.243 0 18.75 0 L 6.25 0 C 5.757 0 5.357 0.4 5.357 0.893 L 5.357 6.25 L 0.893 6.25 C 0.4 6.25 0 6.65 0 7.143 L 0 18.75 C 0 19.243 0.4 19.643 0.893 19.643 L 5.357 19.643 L 5.357 24.107 C 5.357 24.6 5.757 25 6.25 25 L 18.75 25 C 19.243 25 19.643 24.6 19.643 24.107 L 19.643 19.643 L 24.107 19.643 C 24.6 19.643 25 19.243 25 18.75 L 25 7.143 C 25 6.65 24.6 6.25 24.107 6.25 Z  M 7.143 1.786 L 17.857 1.786 L 17.857 6.25 L 7.143 6.25 L 7.143 1.786 L 7.143 1.786 Z  M 17.857 23.214 L 7.143 23.214 L 7.143 15.179 L 17.857 15.179 L 17.857 23.214 Z  M 23.214 17.857 L 19.643 17.857 L 19.643 15.179 L 20.536 15.179 C 21.029 15.179 21.429 14.779 21.429 14.286 C 21.429 13.792 21.029 13.393 20.536 13.393 L 4.464 13.393 C 3.971 13.393 3.571 13.793 3.571 14.286 C 3.571 14.779 3.971 15.179 4.464 15.179 L 5.357 15.179 L 5.357 17.857 L 1.786 17.857 L 1.786 8.036 L 23.214 8.036 L 23.214 17.857 Z  M 21.429 9.821 L 20.536 9.821 C 20.042 9.821 19.643 10.221 19.643 10.714 C 19.643 11.207 20.042 11.607 20.536 11.607 L 21.429 11.607 C 21.922 11.607 22.321 11.207 22.321 10.714 C 22.321 10.221 21.922 9.821 21.429 9.821 Z  M 15.179 16.964 L 9.821 16.964 C 9.328 16.964 8.929 17.364 8.929 17.857 C 8.929 18.35 9.328 18.75 9.821 18.75 L 15.179 18.75 C 15.672 18.75 16.071 18.35 16.071 17.857 C 16.071 17.364 15.672 16.964 15.179 16.964 Z  M 15.179 19.643 L 9.821 19.643 C 9.328 19.643 8.929 20.043 8.929 20.536 C 8.929 21.029 9.328 21.429 9.821 21.429 L 15.179 21.429 C 15.672 21.429 16.071 21.029 16.071 20.536 C 16.071 20.043 15.672 19.643 15.179 19.643 Z " fill-rule="evenodd" fill="rgb(108,108,108)"/></g></g></g></g></g></g></svg>
