<?xml version="1.0" encoding="utf-8"?>
<!-- Generator: Adobe Illustrator 19.0.1, SVG Export Plug-In . SVG Version: 6.00 Build 0)  -->
<svg version="1.1" id="Слой_1" xmlns="http://www.w3.org/2000/svg" xmlns:xlink="http://www.w3.org/1999/xlink" x="0px" y="0px"
	 viewBox="0 0 56.69 56.69" style="enable-background:new 0 0 56.69 56.69;" xml:space="preserve">
<style type="text/css">
	.st0{fill:#224E75;}
	.st1{fill:#FFFFFF;}
</style>
<path class="st0" d="M28.35,46.48L28.35,46.48c-9.39,0-17.01-7.61-17.01-17.01v0c0-9.39,7.61-17.01,17.01-17.01h0
	c9.39,0,17.01,7.61,17.01,17.01v0C45.35,38.86,37.74,46.48,28.35,46.48z"/>
<g>
	<g>
		<path class="st1" d="M37.39,20.93H19.3c-0.22,0-0.4,0.18-0.4,0.4v16.28c0,0.22,0.18,0.4,0.4,0.4h18.09c0.22,0,0.4-0.18,0.4-0.4
			V21.33C37.79,21.11,37.61,20.93,37.39,20.93z M24.55,32.75l-0.43-1.51h-2.26l-0.43,1.51h-1.15l2.17-7.04h1.11l2.18,7.04H24.55z
			 M29.85,27.04h-1.56v5.71h-1.11v-5.71h-1.55v-1.33h4.22V27.04z M34.99,32.75l-0.01-4.21l-1.43,3.47h-0.5l-1.43-3.39v4.13h-1.06
			v-7.04h0.93l1.82,4.38l1.79-4.38h0.93l0.01,7.04H34.99z"/>
		<path class="st1" d="M37.39,38.1H19.3c-0.27,0-0.49-0.22-0.49-0.49V21.33c0-0.27,0.22-0.49,0.49-0.49h18.09
			c0.27,0,0.49,0.22,0.49,0.49v16.28C37.88,37.88,37.66,38.1,37.39,38.1z M19.3,21.02c-0.17,0-0.31,0.14-0.31,0.31v16.28
			c0,0.17,0.14,0.31,0.31,0.31h18.09c0.17,0,0.31-0.14,0.31-0.31V21.33c0-0.17-0.14-0.31-0.31-0.31H19.3z M36.13,32.84H34.9
			l-0.01-3.86l-1.29,3.12h-0.62l-1.29-3.05v3.79h-1.23v-7.21h1.08l1.76,4.23l1.74-4.23h1.08L36.13,32.84z M35.08,32.66h0.88
			l-0.01-6.87h-0.79l-1.85,4.52l-1.88-4.52h-0.79v6.87h0.88v-4.48l1.58,3.73h0.38l1.58-3.82L35.08,32.66z M28.38,32.84H27.1v-5.71
			h-1.55v-1.5h4.39v1.5h-1.56V32.84z M27.27,32.66h0.94v-5.71h1.56V25.8h-4.05v1.15h1.55V32.66z M25.85,32.84h-1.37l-0.43-1.51
			h-2.13l-0.43,1.51h-1.34l2.22-7.21h1.24L25.85,32.84z M24.61,32.66h1l-2.12-6.87h-0.98l-2.12,6.87h0.97l0.43-1.51h2.39
			L24.61,32.66z"/>
	</g>
	<g>
		<polygon class="st1" points="22.22,30 23.76,30 22.99,27.31 		"/>
		<path class="st1" d="M23.88,30.09H22.1l0.89-3.1L23.88,30.09z M22.33,29.92h1.31l-0.66-2.29L22.33,29.92z"/>
	</g>
</g>
</svg>
