<?xml version="1.0" encoding="utf-8"?>
<!-- Generator: Adobe Illustrator 19.0.0, SVG Export Plug-In . SVG Version: 6.00 Build 0)  -->
<svg version="1.1" id="Capa_1" xmlns="http://www.w3.org/2000/svg" xmlns:xlink="http://www.w3.org/1999/xlink" x="0px" y="0px"
	 viewBox="-283 285 512 512" style="enable-background:new -283 285 512 512;" xml:space="preserve">
<style type="text/css">
	.st0{fill:#565656;}
</style>
<g>
	<g>
		<path class="st0" d="M74.8,582.9c-15.7-15.6-34.4-27.1-54.7-34.1c21.8-14.9,36.1-39.9,36.1-68.1c0-45.6-37.3-82.7-83.3-82.7
			s-83.3,37.1-83.3,82.7c0,28.2,14.3,53.2,36.1,68.1c-20.4,7-39,18.5-54.7,34.1C-156,609.9-171,645.8-171,684h22.5
			c0-66.5,54.5-120.7,121.5-120.7S94.5,617.5,94.5,684H117C117,645.8,102,609.9,74.8,582.9z M-27,541c-33.5,0-60.8-27.1-60.8-60.3
			s27.3-60.3,60.8-60.3s60.8,27.1,60.8,60.3S6.5,541-27,541z"/>
	</g>
</g>
</svg>
