<?xml version="1.0" encoding="UTF-8" standalone="no"?><!-- Generator: Gravit.io --><svg xmlns="http://www.w3.org/2000/svg" xmlns:xlink="http://www.w3.org/1999/xlink" style="isolation:isolate" viewBox="0 0 25 25" width="25pt" height="25pt"><defs><clipPath id="_clipPath_1uRJLhS5zB4rqoi1rnhS1zRZwBNmUshr"><rect width="25" height="25"/></clipPath></defs><g clip-path="url(#_clipPath_1uRJLhS5zB4rqoi1rnhS1zRZwBNmUshr)"><g><path d=" M 12.5 25 L 12.5 25 C 5.576 25 0 19.377 0 12.5 L 0 12.5 C 0 5.576 5.623 0 12.5 0 L 12.5 0 C 19.424 0 25 5.623 25 12.5 L 25 12.5 C 25.046 19.424 19.424 25 12.5 25 Z " fill="rgb(0,156,116)"/><g><g><path d=" M 18.412 8.919 C 18.407 8.855 18.353 8.805 18.289 8.805 L 16.072 8.805 L 16.072 8.189 C 16.072 6.219 14.47 4.617 12.5 4.617 C 10.53 4.617 8.928 6.219 8.928 8.189 L 8.928 8.805 L 6.711 8.805 C 6.647 8.805 6.593 8.855 6.588 8.919 L 5.726 20.25 C 5.723 20.285 5.735 20.318 5.758 20.343 C 5.782 20.369 5.815 20.383 5.849 20.383 L 19.151 20.383 C 19.185 20.383 19.218 20.369 19.242 20.344 C 19.265 20.318 19.277 20.285 19.274 20.251 L 18.412 8.919 Z  M 9.913 8.189 C 9.913 6.763 11.074 5.602 12.5 5.602 C 13.926 5.602 15.087 6.763 15.087 8.189 L 15.087 8.805 L 9.913 8.805 L 9.913 8.189 Z  M 9.421 12.254 C 8.741 12.254 8.189 11.701 8.189 11.022 C 8.189 10.53 8.435 10.087 8.928 9.893 L 8.928 11.022 C 8.928 11.294 9.149 11.515 9.421 11.515 C 9.692 11.515 9.913 11.294 9.913 11.022 L 9.913 9.894 C 10.406 10.088 10.652 10.534 10.652 11.022 C 10.652 11.701 10.1 12.254 9.421 12.254 Z  M 15.579 12.254 C 14.9 12.254 14.348 11.701 14.348 11.022 C 14.348 10.53 14.594 10.087 15.087 9.893 L 15.087 11.022 C 15.087 11.294 15.308 11.515 15.579 11.515 C 15.851 11.515 16.072 11.294 16.072 11.022 L 16.072 9.894 C 16.565 10.088 16.811 10.534 16.811 11.022 C 16.811 11.701 16.259 12.254 15.579 12.254 Z " fill="rgb(255,255,255)"/></g></g></g></g></svg>