<?xml version="1.0" encoding="UTF-8" standalone="no"?><!-- Generator: Gravit.io --><svg xmlns="http://www.w3.org/2000/svg" xmlns:xlink="http://www.w3.org/1999/xlink" style="isolation:isolate" viewBox="0 0 25 25" width="25px" height="25px"><defs><clipPath id="_clipPath_Q8rbvAGxMqKMDWTyvPeFQYvjt8UneRxZ"><rect width="25" height="25"/></clipPath></defs><g clip-path="url(#_clipPath_Q8rbvAGxMqKMDWTyvPeFQYvjt8UneRxZ)"><g><radialGradient id="_rgradient_11" fx="0.5" fy="0.5" cx="0.5" cy="0.5" r="0.5" gradientTransform="matrix(25,0,0,25,0,0)" gradientUnits="userSpaceOnUse"><stop offset="0%" stop-opacity="1" style="stop-color:rgb(255,255,255)"/><stop offset="95%" stop-opacity="1" style="stop-color:rgb(255,255,255)"/><stop offset="99.16666666666667%" stop-opacity="1" style="stop-color:rgb(166,134,40)"/></radialGradient><circle vector-effect="non-scaling-stroke" cx="12.5" cy="12.5" r="12.5" fill="url(#_rgradient_11)"/><path d=" M 16.614 11.862 L 18.372 11.862 L 18.372 16.07 L 16.614 16.07 L 16.614 11.862 Z  M 13.285 11.862 L 15.043 11.862 L 15.043 16.07 L 13.285 16.07 L 13.285 11.862 Z  M 9.957 11.862 L 11.715 11.862 L 11.715 16.07 L 9.957 16.07 L 9.957 11.862 Z  M 6.628 11.862 L 8.386 11.862 L 8.386 16.07 L 6.628 16.07 L 6.628 11.862 Z  M 18.958 10.543 L 18.958 10.104 L 6.042 10.104 L 6.042 10.543 C 6.042 10.786 6.239 10.983 6.482 10.983 L 18.518 10.983 C 18.761 10.983 18.958 10.786 18.958 10.543 Z  M 19.56 16.949 L 5.44 16.949 C 5.197 16.949 5 17.146 5 17.389 L 5 18.561 C 5 18.803 5.197 19 5.44 19 L 19.56 19 C 19.803 19 20 18.803 20 18.561 L 20 17.389 C 20 17.146 19.803 16.949 19.56 16.949 Z  M 5.439 9.225 L 19.561 9.225 C 19.757 9.225 19.93 9.094 19.983 8.905 C 20.037 8.716 19.958 8.514 19.791 8.411 L 12.73 4.065 C 12.589 3.978 12.411 3.978 12.27 4.065 L 5.209 8.411 C 5.042 8.514 4.963 8.716 5.017 8.905 C 5.07 9.094 5.243 9.225 5.439 9.225 L 5.439 9.225 Z  M 12.201 6.585 L 12.799 6.585 C 13.042 6.585 13.238 6.781 13.238 7.024 C 13.238 7.267 13.042 7.464 12.799 7.464 L 12.201 7.464 C 11.959 7.464 11.762 7.267 11.762 7.024 C 11.762 6.781 11.959 6.585 12.201 6.585 L 12.201 6.585 Z " fill-rule="evenodd" fill="rgb(166,134,40)"/></g></g></svg>
