<?xml version="1.0" encoding="UTF-8" standalone="no"?><!-- Generator: Gravit.io --><svg xmlns="http://www.w3.org/2000/svg" xmlns:xlink="http://www.w3.org/1999/xlink" style="isolation:isolate" viewBox="0 0 25 25" width="25pt" height="25pt"><defs><clipPath id="_clipPath_1RZokAFunLcprXrHrtAuHsXB4HXBE7Sq"><rect width="25" height="25"/></clipPath></defs><g clip-path="url(#_clipPath_1RZokAFunLcprXrHrtAuHsXB4HXBE7Sq)"><g><path d=" M 12.5 25 L 12.5 25 C 5.576 25 0 19.377 0 12.5 L 0 12.5 C 0 5.576 5.623 0 12.5 0 L 12.5 0 C 19.424 0 25 5.623 25 12.5 L 25 12.5 C 25.046 19.424 19.424 25 12.5 25 Z " fill="rgb(0,156,116)"/><g><path d=" M 14.405 15.242 C 12.314 15.242 10.595 13.522 10.595 11.431 C 10.595 9.34 12.314 7.621 14.405 7.621 C 16.496 7.621 18.215 9.34 18.215 11.431 C 18.169 13.522 16.45 15.242 14.405 15.242 Z  M 14.405 8.271 C 12.639 8.271 11.199 9.712 11.199 11.478 C 11.199 13.243 12.639 14.684 14.405 14.684 C 16.171 14.684 17.611 13.243 17.611 11.478 C 17.565 9.712 16.124 8.271 14.405 8.271 Z " fill="rgb(255,255,255)"/><path d=" M 10.13 19.191 L 6.691 19.191 C 6.32 19.191 6.041 18.913 6.041 18.541 L 6.041 12.918 C 6.041 12.546 6.32 12.268 6.691 12.268 L 10.13 12.268 C 10.502 12.268 10.781 12.546 10.781 12.918 L 10.781 18.541 C 10.781 18.913 10.502 19.191 10.13 19.191 Z  M 6.691 12.872 C 6.691 12.872 6.645 12.918 6.691 12.872 L 6.645 18.541 C 6.645 18.587 6.645 18.587 6.691 18.587 L 10.13 18.587 C 10.176 18.587 10.176 18.587 10.176 18.541 L 10.176 12.918 C 10.176 12.872 10.176 12.872 10.13 12.872 L 6.691 12.872 L 6.691 12.872 Z " fill="rgb(255,255,255)"/><path d=" M 9.34 12.872 L 7.342 12.872 C 6.97 12.872 6.691 12.593 6.691 12.221 L 6.691 9.108 C 6.691 8.736 6.97 8.457 7.342 8.457 L 9.34 8.457 C 9.712 8.457 9.991 8.736 9.991 9.108 L 9.991 12.221 C 9.991 12.593 9.712 12.872 9.34 12.872 Z  M 7.342 9.061 C 7.342 9.061 7.342 9.108 7.342 9.061 L 7.295 12.221 C 7.295 12.268 7.295 12.268 7.342 12.268 L 9.34 12.268 C 9.387 12.268 9.387 12.268 9.387 12.221 L 9.387 9.108 C 9.387 9.061 9.387 9.061 9.34 9.061 L 7.342 9.061 Z " fill="rgb(255,255,255)"/><path d=" M 9.108 9.061 L 7.621 9.061 C 7.295 9.061 7.063 8.783 7.063 8.504 L 7.063 5.855 C 7.063 5.576 7.295 5.297 7.574 5.297 L 9.015 4.833 C 9.061 4.833 9.061 4.833 9.108 4.833 C 9.433 4.833 9.665 5.112 9.665 5.39 L 9.665 8.504 C 9.665 8.829 9.433 9.061 9.108 9.061 Z  M 7.667 8.457 L 9.108 8.457 L 9.108 5.437 L 7.76 5.902 C 7.76 5.902 7.714 5.902 7.667 5.902 L 7.667 8.457 Z " fill="rgb(255,255,255)"/><path d=" M 14.405 17.007 C 12.825 17.007 11.338 16.403 10.269 15.288 L 10.176 15.195 L 10.176 12.686 L 9.433 12.686 L 9.433 12.082 C 9.433 12.082 9.387 12.082 9.387 12.128 L 9.387 9.015 L 9.433 8.968 C 10.409 7.156 12.314 5.994 14.359 5.994 C 17.472 5.994 19.981 8.504 19.981 11.617 C 19.981 14.638 17.518 17.007 14.405 17.007 Z  M 10.781 14.963 C 11.71 15.892 13.011 16.403 14.405 16.403 C 17.193 16.403 19.424 14.312 19.424 11.617 C 19.424 8.876 17.193 6.599 14.405 6.599 C 12.593 6.599 10.92 7.574 10.037 9.154 L 10.037 12.128 L 10.223 12.128 C 10.548 12.128 10.781 12.407 10.781 12.686 L 10.781 14.963 Z " fill="rgb(255,255,255)"/><path d=" M 18.401 18.913 L 10.502 18.913 C 10.316 18.913 10.223 18.773 10.223 18.634 L 10.223 16.822 C 10.223 16.636 10.362 16.543 10.502 16.543 L 19.424 16.543 C 19.609 16.543 19.702 16.682 19.702 16.822 C 19.702 17.983 19.098 18.913 18.401 18.913 Z  M 10.781 18.308 L 18.401 18.308 C 18.68 18.308 19.005 17.797 19.098 17.1 L 10.781 17.1 L 10.781 18.308 Z " fill="rgb(255,255,255)"/></g><path d=" M 14.405 8.271 C 12.639 8.271 11.199 9.712 11.199 11.478 C 11.199 13.243 12.639 14.684 14.405 14.684 C 16.171 14.684 17.611 13.243 17.611 11.478 C 17.565 9.712 16.124 8.271 14.405 8.271 Z " fill="rgb(0,156,116)"/><path d=" M 7.667 8.457 L 9.108 8.457 L 9.108 5.437 L 7.76 5.902 C 7.76 5.902 7.714 5.902 7.667 5.902 L 7.667 8.457 Z " fill="rgb(255,255,255)"/><path d=" M 14.405 8.271 C 12.639 8.271 11.199 9.712 11.199 11.478 C 11.199 13.243 12.639 14.684 14.405 14.684 C 16.171 14.684 17.611 13.243 17.611 11.478 C 17.565 9.712 16.124 8.271 14.405 8.271 Z " fill="rgb(255,255,255)"/></g></g></svg>