<?xml version="1.0" encoding="utf-8"?>
<!-- Generator: Adobe Illustrator 19.0.1, SVG Export Plug-In . SVG Version: 6.00 Build 0)  -->
<svg version="1.1" id="Слой_1" xmlns="http://www.w3.org/2000/svg" xmlns:xlink="http://www.w3.org/1999/xlink" x="0px" y="0px"
	 viewBox="-269 392.2 56.7 56.7" style="enable-background:new -269 392.2 56.7 56.7;" xml:space="preserve">
<style type="text/css">
	.st0{fill:#009C74;}
	.st1{fill:#FFFFFF;stroke:#009C74;stroke-width:0.7308;stroke-miterlimit:10;}
</style>
<g>
	<path class="st0" d="M-240.7,447.5L-240.7,447.5c-14.9,0-26.9-12.1-26.9-26.9v0c0-14.9,12.1-26.9,26.9-26.9h0
		c14.9,0,26.9,12.1,26.9,26.9v0C-213.7,435.4-225.8,447.5-240.7,447.5z"/>
	
		<rect x="-232.7" y="417.4" transform="matrix(-0.9191 0.394 -0.394 -0.9191 -280.606 893.7692)" class="st0" width="1.3" height="1.3"/>
	<polygon class="st0" points="-250.2,419.4 -249.8,419.1 -249,418.1 -248,419 -248.9,420.1 	"/>
	<g>
		<g>
			<path class="st1" d="M-229,416c-0.9,0-1.8,0.2-2.6,0.5c-1.1-2.5-2-7-1.6-8.9c0.1-0.4,0-0.8-0.3-1c-0.2-0.3-0.6-0.5-1-0.5h-3.7
				c-0.7,0-1.3,0.6-1.3,1.3s0.6,1.3,1.3,1.3h2.3c0,0.3,0.1,2.6,0.2,3c-0.1,0.1-0.1,0.1-0.1,0.2l-3.3,4.9c-0.1,0-0.1,0-0.2,0h-6.7
				l-1.1-2.4c0,0,0.1,0,0.1,0c0.5,0,1-0.3,1.2-0.9c0.2-0.7-0.1-1.4-0.8-1.6c-1.8-0.6-3.8-0.7-5.7-0.4c-0.7,0.1-1.1,0.8-1,1.5
				c0.1,0.7,0.8,1.1,1.5,1c0.6-0.1,1.2-0.2,1.8-0.2l1.1,2.5c-0.6-0.2-1.3-0.3-2-0.3c-4.3,0-7.7,3.5-7.7,7.7c0,4.3,3.5,7.7,7.7,7.7
				c3.8,0,7-2.8,7.6-6.5h0.9c0.4,0,0.8-0.2,1-0.6l6.5-9.5c0.3,0.9,0.7,1.8,1.1,2.8c-1.8,1.4-2.9,3.6-2.9,6.1c0,4.3,3.5,7.7,7.7,7.7
				c4.3,0,7.7-3.5,7.7-7.7C-221.2,419.5-224.7,416-229,416z M-251,425h5.1c-0.6,2.3-2.6,4-5.1,4c-2.9,0-5.2-2.3-5.2-5.2
				s2.3-5.2,5.2-5.2c2.4,0,4.5,1.7,5.1,4h-5.1c-0.7,0-1.3,0.6-1.3,1.3C-252.2,424.5-251.7,425-251,425z M-243.1,422.5h-0.2
				c-0.2-1.2-0.7-2.3-1.4-3.3h3.8L-243.1,422.5z M-229,429c-2.9,0-5.2-2.3-5.2-5.2c0-1.4,0.6-2.8,1.5-3.7c1.3,2.5,2.6,4.3,2.6,4.4
				c0.2,0.4,0.6,0.5,1,0.5c0.2,0,0.5-0.1,0.7-0.2c0.6-0.4,0.7-1.2,0.3-1.8c-0.6-0.9-1.6-2.5-2.6-4.3c0.5-0.1,1-0.2,1.5-0.2
				c2.9,0,5.2,2.3,5.2,5.2C-223.8,426.6-226.1,429-229,429z"/>
		</g>
	</g>
</g>
</svg>
