<?xml version="1.0" encoding="UTF-8" standalone="no"?><!-- Generator: Gravit.io --><svg xmlns="http://www.w3.org/2000/svg" xmlns:xlink="http://www.w3.org/1999/xlink" style="isolation:isolate" viewBox="0 0 25.553 37.66" width="25.553pt" height="37.66pt"><defs><clipPath id="_clipPath_Hu8UcgG4Cmw4DmNphqxGA984wGUWstG9"><rect width="25.553" height="37.66"/></clipPath></defs><g clip-path="url(#_clipPath_Hu8UcgG4Cmw4DmNphqxGA984wGUWstG9)"><clipPath id="_clipPath_S4HzexFbBxAuxgu7WBrjxfxJgq5brEgl"><rect x="0" y="0" width="25.553" height="37.66" transform="matrix(1,0,0,1,0,0)" fill="rgb(255,255,255)"/></clipPath><g clip-path="url(#_clipPath_S4HzexFbBxAuxgu7WBrjxfxJgq5brEgl)"><g><g style="opacity:0.48;"><g opacity="0.48"><path d=" M 11.357 1.704 C 5.085 1.704 0 6.788 0 13.061 C 0 18.767 4.422 29.578 11.357 37.66 C 18.292 29.578 22.714 18.767 22.714 13.061 C 22.714 6.788 17.63 1.704 11.357 1.704 Z " fill="rgb(42,68,142)"/></g></g><path d=" M 13.345 0.852 C 7.072 0.852 1.987 5.936 1.987 12.209 C 1.987 17.915 6.41 28.727 13.345 36.808 C 20.279 28.727 24.702 17.915 24.702 12.209 C 24.702 5.936 19.617 0.852 13.345 0.852 Z " fill="rgb(79,122,240)"/><clipPath id="_clipPath_QzMveilJInoidMU2lpAXtehaPggFtiuq"><rect x="1.136" y="0" width="24.418" height="37.66" transform="matrix(1,0,0,1,0,0)" fill="rgb(255,255,255)"/></clipPath><g clip-path="url(#_clipPath_QzMveilJInoidMU2lpAXtehaPggFtiuq)"><g><g><g style="opacity:0.7;"><g style="opacity:0.7;"><g opacity="0.7"><path d=" M 7.251 9.691 C 8.356 5.192 12 1.985 16.284 1.217 C 15.368 0.979 14.407 0.852 13.416 0.852 C 7.144 0.852 2.059 5.936 2.059 12.209 C 2.059 17.385 5.698 26.763 11.551 34.493 C 7.404 25.372 5.975 14.888 7.251 9.691 Z " fill="rgb(224,73,244)"/></g></g></g><path d=" M 13.345 19.486 C 9.331 19.486 6.065 16.22 6.064 12.207 C 6.065 8.194 9.331 4.93 13.345 4.93 C 17.359 4.93 20.624 8.194 20.625 12.208 C 20.624 16.222 17.359 19.486 13.345 19.486 Z " fill="rgb(255,255,255)"/></g></g></g></g></g><g><g><path d=" M 17.111 15.611 C 17.296 15.796 17.296 16.074 17.111 16.259 C 17.018 16.352 16.879 16.398 16.787 16.398 C 16.694 16.398 16.555 16.352 16.462 16.259 L 13.311 13.108 L 10.159 16.259 C 10.067 16.352 9.928 16.398 9.835 16.398 C 9.742 16.398 9.603 16.352 9.51 16.259 C 9.325 16.074 9.325 15.796 9.51 15.611 L 12.662 12.459 L 9.51 9.308 C 9.325 9.122 9.325 8.844 9.51 8.659 C 9.696 8.474 9.974 8.474 10.159 8.659 L 13.311 11.81 L 16.462 8.659 C 16.648 8.474 16.926 8.474 17.111 8.659 C 17.296 8.844 17.296 9.122 17.111 9.308 L 13.96 12.459 L 17.111 15.611 Z " fill="rgb(79,122,240)"/></g></g></g></svg>