<?xml version="1.0" encoding="UTF-8" standalone="no"?><!-- Generator: Gravit.io --><svg xmlns="http://www.w3.org/2000/svg" xmlns:xlink="http://www.w3.org/1999/xlink" style="isolation:isolate" viewBox="0 0 15 22.107" width="15pt" height="22.107pt"><defs><clipPath id="_clipPath_fuXMzKJdnIH9aADPCV4Bydd95513PNmr"><rect width="15" height="22.107"/></clipPath></defs><g clip-path="url(#_clipPath_fuXMzKJdnIH9aADPCV4Bydd95513PNmr)"><clipPath id="_clipPath_Ko4Cm4lKyS15zbsBOAeDZaXGTm3q4Nb8"><rect x="0" y="0" width="15" height="22.107" transform="matrix(1,0,0,1,0,0)" fill="rgb(255,255,255)"/></clipPath><g clip-path="url(#_clipPath_Ko4Cm4lKyS15zbsBOAeDZaXGTm3q4Nb8)"><g><g style="opacity:0.48;"><g opacity="0.48"><path d=" M 6.667 1 C 2.985 1 0 3.985 0 7.667 C 0 11.017 2.596 17.363 6.667 22.107 C 10.738 17.363 13.333 11.017 13.333 7.667 C 13.333 3.985 10.349 1 6.667 1 Z " fill="rgb(42,68,142)"/></g></g><path d=" M 7.834 0.5 C 4.151 0.5 1.166 3.485 1.166 7.167 C 1.166 10.516 3.763 16.863 7.834 21.607 C 11.904 16.863 14.5 10.516 14.5 7.167 C 14.5 3.485 11.515 0.5 7.834 0.5 Z " fill="rgb(79,122,240)"/><clipPath id="_clipPath_s6iwVjfX52oeCxWbyE2P3gDJckKkykSy"><rect x="0.667" y="0" width="14.334" height="22.107" transform="matrix(1,0,0,1,0,0)" fill="rgb(255,255,255)"/></clipPath><g clip-path="url(#_clipPath_s6iwVjfX52oeCxWbyE2P3gDJckKkykSy)"><g><g><g style="opacity:0.7;"><g style="opacity:0.7;"><g opacity="0.7"><path d=" M 4.256 5.689 C 4.905 3.048 7.044 1.165 9.559 0.714 C 9.021 0.575 8.457 0.5 7.875 0.5 C 4.194 0.5 1.209 3.485 1.209 7.167 C 1.209 10.205 3.345 15.71 6.781 20.248 C 4.346 14.894 3.507 8.739 4.256 5.689 Z " fill="rgb(224,73,244)"/></g></g></g><path d=" M 7.834 10.217 C 6.151 10.217 4.782 8.848 4.782 7.166 C 4.782 5.484 6.151 4.116 7.834 4.116 C 9.516 4.116 10.884 5.484 10.885 7.166 C 10.884 8.849 9.516 10.217 7.834 10.217 Z " fill="rgb(255,255,255)"/></g></g></g></g></g></g></svg>