<?xml version="1.0" encoding="utf-8"?>
<!-- Generator: Adobe Illustrator 19.0.1, SVG Export Plug-In . SVG Version: 6.00 Build 0)  -->
<svg version="1.1" id="Слой_1" xmlns="http://www.w3.org/2000/svg" xmlns:xlink="http://www.w3.org/1999/xlink" x="0px" y="0px"
	 viewBox="-269 392.2 56.7 56.7" style="enable-background:new -269 392.2 56.7 56.7;" xml:space="preserve">
<style type="text/css">
	.st0{fill:#F6AA1A;}
	.st1{fill:#FFFFFF;stroke:#FFFFFF;stroke-width:0.3654;stroke-miterlimit:10;}
	.st2{fill:#FFFFFF;stroke:#FFFFFF;stroke-width:0.9135;stroke-miterlimit:10;}
	.st3{fill:#FFFFFF;stroke:#FFFFFF;stroke-width:0.7308;stroke-miterlimit:10;}
</style>
<g>
	<path class="st0" d="M-240.6,447.5L-240.6,447.5c-14.9,0-26.9-12.1-26.9-26.9v0c0-14.9,12.1-26.9,26.9-26.9h0
		c14.9,0,26.9,12.1,26.9,26.9v0C-213.7,435.4-225.8,447.5-240.6,447.5z"/>
</g>
<g>
	<g>
		<path class="st1" d="M-231.9,431.8h-17.7c-0.4,0-0.7-0.3-0.7-0.7v-11h19.2v11C-231.2,431.5-231.5,431.8-231.9,431.8z"/>
		<path class="st1" d="M-231.9,432.4h-17.7c-0.7,0-1.3-0.6-1.3-1.3v-11.6h20.3v11.6C-230.6,431.8-231.2,432.4-231.9,432.4z
			 M-249.8,420.7v10.4c0,0.1,0.1,0.1,0.1,0.1h17.7c0.1,0,0.1-0.1,0.1-0.1v-10.4H-249.8z"/>
	</g>
	<path class="st1" d="M-227.9,428.9v-1.2c0.8,0,1.4-0.4,1.7-0.8c0.7-0.8,1-2,0.9-3.2c-0.1-0.4-0.3-0.9-0.6-1.3c-0.8-1-2-1.6-3.4-1.7
		l-1.7-0.1l0.1-1.2l1.7,0.1c1.7,0.1,3.2,0.9,4.2,2.2c0.5,0.6,0.8,1.3,0.9,1.9c0.2,1.5-0.2,3-1.2,4.1
		C-226,428.5-226.9,428.9-227.9,428.9z"/>
	<rect x="-231" y="427.8" class="st1" width="3.1" height="1.2"/>
	<path class="st2" d="M-228.4,436h-25.1c-0.3,0-0.6-0.3-0.6-0.6c0-0.3,0.3-0.6,0.6-0.6h25.1c0.3,0,0.6,0.3,0.6,0.6
		C-227.9,435.8-228.1,436-228.4,436z"/>
	<path class="st3" d="M-243.5,415.8c-0.2,0-0.4-0.1-0.5-0.3c-0.2-0.3-0.1-0.6,0.2-0.8c0.3-0.2,0.6-0.4,0.9-0.7
		c0.3-0.3,0.7-0.7,0.7-1.3c0-0.5-0.2-0.9-0.4-1.2c-0.2-0.3-0.4-0.5-0.6-0.7c-0.1-0.1-0.2-0.2-0.3-0.3c-1.2-1.1-1.7-2.4-1.8-2.8
		c-0.2-0.6-0.6-1.8-0.1-3.3c0.5-1.3,1.4-2.1,2-2.5c0.3-0.2,0.6-0.1,0.8,0.2c0.2,0.3,0.1,0.6-0.2,0.8c-0.4,0.3-1.1,0.9-1.5,1.9
		c-0.4,1.1-0.1,2.1,0.1,2.6c0.1,0.3,0.5,1.4,1.5,2.2c0.1,0.1,0.2,0.2,0.3,0.2c0.3,0.2,0.6,0.5,0.9,0.9c0.2,0.3,0.6,1,0.5,1.9
		c-0.1,1-0.7,1.6-1.1,2c-0.3,0.3-0.7,0.6-1.1,0.9C-243.3,415.7-243.4,415.8-243.5,415.8z"/>
	<path class="st3" d="M-237.7,417.3c-0.2,0-0.4-0.1-0.5-0.2c-0.2-0.3-0.1-0.6,0.1-0.8c0.4-0.3,1.7-1.4,1.7-3c0-0.9-0.5-1.7-0.6-2
		c-0.3-0.5-0.6-0.8-1-1c-0.4-0.3-0.8-0.6-1.3-1.1c-0.5-0.6-1.6-1.7-1.8-3.5c-0.2-1.7,0.5-3,0.7-3.5c0.5-0.9,1.2-1.8,2.1-2.4
		c0.3-0.2,0.6-0.1,0.8,0.1c0.2,0.3,0.1,0.6-0.1,0.8c-0.7,0.5-1.3,1.2-1.7,2c-0.2,0.5-0.8,1.5-0.6,2.8c0.2,1.4,1,2.3,1.5,2.8
		c0.4,0.5,0.8,0.7,1.1,1c0.4,0.3,0.9,0.6,1.4,1.4c0.2,0.4,0.8,1.3,0.8,2.6c0,2.1-1.6,3.5-2.1,3.9
		C-237.5,417.3-237.6,417.3-237.7,417.3z"/>
</g>
</svg>
