<?xml version="1.0" encoding="UTF-8" standalone="no"?><!-- Generator: Gravit.io --><svg xmlns="http://www.w3.org/2000/svg" xmlns:xlink="http://www.w3.org/1999/xlink" style="isolation:isolate" viewBox="0 0 25 25" width="25pt" height="25pt"><defs><clipPath id="_clipPath_8AmwU2fUEMEvQNvX36aiYbiW5ICUtKHX"><rect width="25" height="25"/></clipPath></defs><g clip-path="url(#_clipPath_8AmwU2fUEMEvQNvX36aiYbiW5ICUtKHX)"><g><g><path d=" M 12.5 25 L 12.5 25 C 5.576 25 0 19.377 0 12.5 L 0 12.5 C 0 5.576 5.623 0 12.5 0 L 12.5 0 C 19.424 0 25 5.623 25 12.5 L 25 12.5 C 25 19.377 19.377 25 12.5 25 Z " fill="rgb(246,170,26)"/></g><g><g><mask id="_mask_QaTf2399q5L8e65GIAJLKh8VjOsP4BiM" x="-200%" y="-200%" width="400%" height="400%"><rect x="-200%" y="-200%" width="400%" height="400%" style="fill:white;"/><path d=" M 16.543 17.704 L 8.318 17.704 C 8.132 17.704 7.993 17.565 7.993 17.379 L 7.993 12.268 L 16.914 12.268 L 16.914 17.379 C 16.868 17.565 16.729 17.704 16.543 17.704 Z " fill="black" stroke="none"/></mask><path d=" M 16.543 17.704 L 8.318 17.704 C 8.132 17.704 7.993 17.565 7.993 17.379 L 7.993 12.268 L 16.914 12.268 L 16.914 17.379 C 16.868 17.565 16.729 17.704 16.543 17.704 Z " fill="rgb(255,255,255)"/><path d=" M 16.543 17.704 L 8.318 17.704 C 8.132 17.704 7.993 17.565 7.993 17.379 L 7.993 12.268 L 16.914 12.268 L 16.914 17.379 C 16.868 17.565 16.729 17.704 16.543 17.704 Z " fill="rgb(255,255,255)" mask="url(#_mask_QaTf2399q5L8e65GIAJLKh8VjOsP4BiM)" vector-effect="non-scaling-stroke" stroke-width="0.34" stroke="rgb(255,255,255)" stroke-linejoin="miter" stroke-linecap="butt" stroke-miterlimit="10"/><path d=" M 16.543 17.983 L 8.318 17.983 C 7.993 17.983 7.714 17.704 7.714 17.379 L 7.714 11.989 L 17.147 11.989 L 17.147 17.379 C 17.147 17.704 16.868 17.983 16.543 17.983 Z  M 8.225 12.546 L 8.225 17.379 C 8.225 17.426 8.271 17.426 8.271 17.426 L 16.496 17.426 C 16.543 17.426 16.543 17.379 16.543 17.379 L 16.543 12.546 L 8.225 12.546 Z " fill="rgb(255,255,255)" vector-effect="non-scaling-stroke" stroke-width="0.17" stroke="rgb(255,255,255)" stroke-linejoin="miter" stroke-linecap="butt" stroke-miterlimit="10"/></g><mask id="_mask_wJmIkHBQQPO4VzlofQGaAJuISf0TW9OB" x="-200%" y="-200%" width="400%" height="400%"><rect x="-200%" y="-200%" width="400%" height="400%" style="fill:white;"/><path d=" M 18.401 16.357 L 18.401 15.799 C 18.773 15.799 19.052 15.613 19.191 15.428 C 19.517 15.056 19.656 14.498 19.61 13.941 C 19.563 13.755 19.47 13.522 19.331 13.336 C 18.959 12.872 18.401 12.593 17.751 12.546 L 16.961 12.5 L 17.007 11.942 L 17.797 11.989 C 18.587 12.035 19.284 12.407 19.749 13.011 C 19.981 13.29 20.121 13.615 20.167 13.894 C 20.26 14.591 20.074 15.288 19.61 15.799 C 19.284 16.171 18.866 16.357 18.401 16.357 Z " fill="black" stroke="none"/></mask><path d=" M 18.401 16.357 L 18.401 15.799 C 18.773 15.799 19.052 15.613 19.191 15.428 C 19.517 15.056 19.656 14.498 19.61 13.941 C 19.563 13.755 19.47 13.522 19.331 13.336 C 18.959 12.872 18.401 12.593 17.751 12.546 L 16.961 12.5 L 17.007 11.942 L 17.797 11.989 C 18.587 12.035 19.284 12.407 19.749 13.011 C 19.981 13.29 20.121 13.615 20.167 13.894 C 20.26 14.591 20.074 15.288 19.61 15.799 C 19.284 16.171 18.866 16.357 18.401 16.357 Z " fill="rgb(255,255,255)"/><path d=" M 18.401 16.357 L 18.401 15.799 C 18.773 15.799 19.052 15.613 19.191 15.428 C 19.517 15.056 19.656 14.498 19.61 13.941 C 19.563 13.755 19.47 13.522 19.331 13.336 C 18.959 12.872 18.401 12.593 17.751 12.546 L 16.961 12.5 L 17.007 11.942 L 17.797 11.989 C 18.587 12.035 19.284 12.407 19.749 13.011 C 19.981 13.29 20.121 13.615 20.167 13.894 C 20.26 14.591 20.074 15.288 19.61 15.799 C 19.284 16.171 18.866 16.357 18.401 16.357 Z " fill="rgb(255,255,255)" mask="url(#_mask_wJmIkHBQQPO4VzlofQGaAJuISf0TW9OB)" vector-effect="non-scaling-stroke" stroke-width="0.34" stroke="rgb(255,255,255)" stroke-linejoin="miter" stroke-linecap="butt" stroke-miterlimit="10"/><rect x="16.961" y="15.846" width="1.441" height="0.558" transform="matrix(1,0,0,1,0,0)" fill="rgb(255,255,255)" vector-effect="non-scaling-stroke" stroke-width="0.17" stroke="rgb(255,255,255)" stroke-linejoin="miter" stroke-linecap="butt" stroke-miterlimit="2"/><mask id="_mask_zhp90xfnTXeNkzmTVL0PDacDvWqLv8GG" x="-200%" y="-200%" width="400%" height="400%"><rect x="-200%" y="-200%" width="400%" height="400%" style="fill:white;"/><path d=" M 18.169 19.656 L 6.506 19.656 C 6.366 19.656 6.227 19.517 6.227 19.377 C 6.227 19.238 6.366 19.099 6.506 19.099 L 18.169 19.099 C 18.309 19.099 18.448 19.238 18.448 19.377 C 18.401 19.563 18.309 19.656 18.169 19.656 Z " fill="black" stroke="none"/></mask><path d=" M 18.169 19.656 L 6.506 19.656 C 6.366 19.656 6.227 19.517 6.227 19.377 C 6.227 19.238 6.366 19.099 6.506 19.099 L 18.169 19.099 C 18.309 19.099 18.448 19.238 18.448 19.377 C 18.401 19.563 18.309 19.656 18.169 19.656 Z " fill="rgb(255,255,255)"/><path d=" M 18.169 19.656 L 6.506 19.656 C 6.366 19.656 6.227 19.517 6.227 19.377 C 6.227 19.238 6.366 19.099 6.506 19.099 L 18.169 19.099 C 18.309 19.099 18.448 19.238 18.448 19.377 C 18.401 19.563 18.309 19.656 18.169 19.656 Z " fill="rgb(255,255,255)" mask="url(#_mask_zhp90xfnTXeNkzmTVL0PDacDvWqLv8GG)" vector-effect="non-scaling-stroke" stroke-width="0.849" stroke="rgb(255,255,255)" stroke-linejoin="miter" stroke-linecap="butt" stroke-miterlimit="10"/><mask id="_mask_y0HNO5t2SgCW0iWbo04A3WnRP9kJHg9E" x="-200%" y="-200%" width="400%" height="400%"><rect x="-200%" y="-200%" width="400%" height="400%" style="fill:white;"/><path d=" M 11.152 10.27 C 11.059 10.27 10.967 10.223 10.92 10.13 C 10.827 9.991 10.874 9.851 11.013 9.758 C 11.152 9.665 11.292 9.572 11.431 9.433 C 11.571 9.294 11.757 9.108 11.757 8.829 C 11.757 8.597 11.664 8.411 11.571 8.271 C 11.478 8.132 11.385 8.039 11.292 7.946 C 11.245 7.9 11.199 7.853 11.152 7.807 C 10.595 7.296 10.362 6.691 10.316 6.506 C 10.223 6.227 10.037 5.669 10.27 4.972 C 10.502 4.368 10.92 3.996 11.199 3.81 C 11.338 3.717 11.478 3.764 11.571 3.903 C 11.664 4.043 11.617 4.182 11.478 4.275 C 11.292 4.414 10.967 4.693 10.781 5.158 C 10.595 5.669 10.734 6.134 10.827 6.366 C 10.874 6.506 11.059 7.017 11.524 7.388 C 11.571 7.435 11.617 7.481 11.664 7.481 C 11.803 7.574 11.942 7.714 12.082 7.9 C 12.175 8.039 12.361 8.364 12.314 8.783 C 12.268 9.247 11.989 9.526 11.803 9.712 C 11.664 9.851 11.478 9.991 11.292 10.13 C 11.245 10.223 11.199 10.27 11.152 10.27 Z " fill="black" stroke="none"/></mask><path d=" M 11.152 10.27 C 11.059 10.27 10.967 10.223 10.92 10.13 C 10.827 9.991 10.874 9.851 11.013 9.758 C 11.152 9.665 11.292 9.572 11.431 9.433 C 11.571 9.294 11.757 9.108 11.757 8.829 C 11.757 8.597 11.664 8.411 11.571 8.271 C 11.478 8.132 11.385 8.039 11.292 7.946 C 11.245 7.9 11.199 7.853 11.152 7.807 C 10.595 7.296 10.362 6.691 10.316 6.506 C 10.223 6.227 10.037 5.669 10.27 4.972 C 10.502 4.368 10.92 3.996 11.199 3.81 C 11.338 3.717 11.478 3.764 11.571 3.903 C 11.664 4.043 11.617 4.182 11.478 4.275 C 11.292 4.414 10.967 4.693 10.781 5.158 C 10.595 5.669 10.734 6.134 10.827 6.366 C 10.874 6.506 11.059 7.017 11.524 7.388 C 11.571 7.435 11.617 7.481 11.664 7.481 C 11.803 7.574 11.942 7.714 12.082 7.9 C 12.175 8.039 12.361 8.364 12.314 8.783 C 12.268 9.247 11.989 9.526 11.803 9.712 C 11.664 9.851 11.478 9.991 11.292 10.13 C 11.245 10.223 11.199 10.27 11.152 10.27 Z " fill="rgb(255,255,255)"/><path d=" M 11.152 10.27 C 11.059 10.27 10.967 10.223 10.92 10.13 C 10.827 9.991 10.874 9.851 11.013 9.758 C 11.152 9.665 11.292 9.572 11.431 9.433 C 11.571 9.294 11.757 9.108 11.757 8.829 C 11.757 8.597 11.664 8.411 11.571 8.271 C 11.478 8.132 11.385 8.039 11.292 7.946 C 11.245 7.9 11.199 7.853 11.152 7.807 C 10.595 7.296 10.362 6.691 10.316 6.506 C 10.223 6.227 10.037 5.669 10.27 4.972 C 10.502 4.368 10.92 3.996 11.199 3.81 C 11.338 3.717 11.478 3.764 11.571 3.903 C 11.664 4.043 11.617 4.182 11.478 4.275 C 11.292 4.414 10.967 4.693 10.781 5.158 C 10.595 5.669 10.734 6.134 10.827 6.366 C 10.874 6.506 11.059 7.017 11.524 7.388 C 11.571 7.435 11.617 7.481 11.664 7.481 C 11.803 7.574 11.942 7.714 12.082 7.9 C 12.175 8.039 12.361 8.364 12.314 8.783 C 12.268 9.247 11.989 9.526 11.803 9.712 C 11.664 9.851 11.478 9.991 11.292 10.13 C 11.245 10.223 11.199 10.27 11.152 10.27 Z " fill="rgb(255,255,255)" mask="url(#_mask_y0HNO5t2SgCW0iWbo04A3WnRP9kJHg9E)" vector-effect="non-scaling-stroke" stroke-width="0.679" stroke="rgb(255,255,255)" stroke-linejoin="miter" stroke-linecap="butt" stroke-miterlimit="10"/><mask id="_mask_K3hI8gJoJFYsT2I40klvnHGRa2arFTQY" x="-200%" y="-200%" width="400%" height="400%"><rect x="-200%" y="-200%" width="400%" height="400%" style="fill:white;"/><path d=" M 13.848 10.967 C 13.755 10.967 13.662 10.92 13.615 10.874 C 13.522 10.734 13.569 10.595 13.662 10.502 C 13.848 10.362 14.452 9.851 14.452 9.108 C 14.452 8.69 14.219 8.318 14.173 8.178 C 14.033 7.946 13.894 7.807 13.708 7.714 C 13.522 7.574 13.336 7.435 13.104 7.203 C 12.872 6.924 12.361 6.413 12.268 5.576 C 12.175 4.786 12.5 4.182 12.593 3.95 C 12.825 3.532 13.151 3.113 13.569 2.835 C 13.708 2.742 13.848 2.788 13.941 2.881 C 14.033 3.02 13.987 3.16 13.894 3.253 C 13.569 3.485 13.29 3.81 13.104 4.182 C 13.011 4.414 12.732 4.879 12.825 5.483 C 12.918 6.134 13.29 6.552 13.522 6.784 C 13.708 7.017 13.894 7.11 14.033 7.249 C 14.219 7.388 14.452 7.528 14.684 7.9 C 14.777 8.086 15.056 8.504 15.056 9.108 C 15.056 10.084 14.312 10.734 14.08 10.92 C 13.941 10.967 13.894 10.967 13.848 10.967 Z " fill="black" stroke="none"/></mask><path d=" M 13.848 10.967 C 13.755 10.967 13.662 10.92 13.615 10.874 C 13.522 10.734 13.569 10.595 13.662 10.502 C 13.848 10.362 14.452 9.851 14.452 9.108 C 14.452 8.69 14.219 8.318 14.173 8.178 C 14.033 7.946 13.894 7.807 13.708 7.714 C 13.522 7.574 13.336 7.435 13.104 7.203 C 12.872 6.924 12.361 6.413 12.268 5.576 C 12.175 4.786 12.5 4.182 12.593 3.95 C 12.825 3.532 13.151 3.113 13.569 2.835 C 13.708 2.742 13.848 2.788 13.941 2.881 C 14.033 3.02 13.987 3.16 13.894 3.253 C 13.569 3.485 13.29 3.81 13.104 4.182 C 13.011 4.414 12.732 4.879 12.825 5.483 C 12.918 6.134 13.29 6.552 13.522 6.784 C 13.708 7.017 13.894 7.11 14.033 7.249 C 14.219 7.388 14.452 7.528 14.684 7.9 C 14.777 8.086 15.056 8.504 15.056 9.108 C 15.056 10.084 14.312 10.734 14.08 10.92 C 13.941 10.967 13.894 10.967 13.848 10.967 Z " fill="rgb(255,255,255)"/><path d=" M 13.848 10.967 C 13.755 10.967 13.662 10.92 13.615 10.874 C 13.522 10.734 13.569 10.595 13.662 10.502 C 13.848 10.362 14.452 9.851 14.452 9.108 C 14.452 8.69 14.219 8.318 14.173 8.178 C 14.033 7.946 13.894 7.807 13.708 7.714 C 13.522 7.574 13.336 7.435 13.104 7.203 C 12.872 6.924 12.361 6.413 12.268 5.576 C 12.175 4.786 12.5 4.182 12.593 3.95 C 12.825 3.532 13.151 3.113 13.569 2.835 C 13.708 2.742 13.848 2.788 13.941 2.881 C 14.033 3.02 13.987 3.16 13.894 3.253 C 13.569 3.485 13.29 3.81 13.104 4.182 C 13.011 4.414 12.732 4.879 12.825 5.483 C 12.918 6.134 13.29 6.552 13.522 6.784 C 13.708 7.017 13.894 7.11 14.033 7.249 C 14.219 7.388 14.452 7.528 14.684 7.9 C 14.777 8.086 15.056 8.504 15.056 9.108 C 15.056 10.084 14.312 10.734 14.08 10.92 C 13.941 10.967 13.894 10.967 13.848 10.967 Z " fill="rgb(255,255,255)" mask="url(#_mask_K3hI8gJoJFYsT2I40klvnHGRa2arFTQY)" vector-effect="non-scaling-stroke" stroke-width="0.679" stroke="rgb(255,255,255)" stroke-linejoin="miter" stroke-linecap="butt" stroke-miterlimit="10"/></g></g></g></svg>