<?xml version="1.0" encoding="utf-8"?>
<!-- Generator: Adobe Illustrator 19.0.1, SVG Export Plug-In . SVG Version: 6.00 Build 0)  -->
<svg version="1.1" id="Слой_1" xmlns="http://www.w3.org/2000/svg" xmlns:xlink="http://www.w3.org/1999/xlink" x="0px" y="0px"
	 viewBox="0 0 56.69 56.69" style="enable-background:new 0 0 56.69 56.69;" xml:space="preserve">
<style type="text/css">
	.st0{fill:#005CA9;}
	.st1{fill:#FFFFFF;stroke:#FFFFFF;stroke-width:0.75;stroke-linecap:round;stroke-linejoin:round;stroke-miterlimit:10;}
	.st2{fill:#FFFFFF;}
</style>
<path class="st0" d="M28.21,55.28L28.21,55.28c-14.87,0-26.93-12.06-26.93-26.93v0c0-14.87,12.06-26.93,26.93-26.93h0
	c14.87,0,26.93,12.06,26.93,26.93v0C55.14,43.22,43.08,55.28,28.21,55.28z"/>
<g>
	<path class="st1" d="M41.61,41.74c3.43-3.43,5.55-8.16,5.55-13.4c0-5.23-2.12-9.97-5.55-13.4c-3.43-3.43-8.16-5.55-13.4-5.55
		c-5.23,0-9.97,2.12-13.4,5.55c-3.43,3.43-5.55,8.16-5.55,13.4c0,5.23,2.12,9.97,5.55,13.4c3.43,3.43,8.16,5.55,13.4,5.55
		C33.44,47.29,38.18,45.17,41.61,41.74 M47.93,28.35c0,5.44-2.21,10.37-5.78,13.94c-3.57,3.57-8.5,5.78-13.94,5.78
		c-5.44,0-10.37-2.21-13.94-5.78c-3.57-3.57-5.78-8.5-5.78-13.94c0-5.44,2.21-10.37,5.78-13.94c3.57-3.57,8.5-5.78,13.94-5.78
		c5.44,0,10.37,2.21,13.94,5.78C45.72,17.97,47.93,22.9,47.93,28.35z"/>
	<g>
		<g>
			<path class="st2" d="M17.73,34.46v-0.04c0-0.47-0.18-0.65-0.47-0.65c-0.21,0-0.4,0.11-0.4,0.32c0,0.23,0.09,0.33,0.25,0.44
				l0.77,0.49c0.42,0.27,0.67,0.5,0.67,1.08c0,0.67-0.43,1.08-1.21,1.08c-0.84,0-1.26-0.47-1.26-1.26v-0.15h0.72v0.15
				c0,0.54,0.26,0.67,0.55,0.67c0.28,0,0.44-0.19,0.44-0.43c0-0.25-0.13-0.4-0.41-0.57l-0.67-0.42c-0.39-0.25-0.59-0.57-0.59-0.99
				c0-0.63,0.48-0.99,1.16-0.99c0.75,0,1.17,0.39,1.17,1.16v0.12H17.73z"/>
			<path class="st2" d="M20.26,33.18c0.76,0,1.27,0.33,1.27,1.31v1.39c0,0.98-0.51,1.29-1.27,1.29c-0.75,0-1.29-0.32-1.29-1.29
				v-1.39C18.97,33.52,19.51,33.18,20.26,33.18 M19.74,34.4v1.56c0,0.4,0.16,0.62,0.52,0.62c0.32,0,0.5-0.21,0.5-0.62v-1.55
				c0-0.41-0.18-0.65-0.5-0.65C19.9,33.76,19.74,34,19.74,34.4z"/>
			<path class="st2" d="M22.8,33.25v2.7c0,0.42,0.15,0.62,0.5,0.62c0.37,0,0.5-0.19,0.5-0.62v-2.7h0.75v2.8
				c0,0.69-0.37,1.1-1.25,1.1c-0.87,0-1.25-0.4-1.25-1.1v-2.8H22.8z"/>
			<polygon class="st2" points="25.68,33.25 26.25,36.44 26.26,36.44 26.8,33.25 27.57,33.25 26.8,37.08 25.72,37.08 24.88,33.25 
							"/>
			<polygon class="st2" points="30.05,33.25 30.05,33.83 28.69,33.83 28.69,34.72 29.93,34.72 29.93,35.31 28.69,35.31 28.69,36.49 
				30.05,36.49 30.05,37.08 27.94,37.08 27.94,33.25 			"/>
			<path class="st2" d="M31.33,33.25l1.09,2.79h0.01c-0.08-0.43-0.09-0.99-0.09-1.43v-1.36h0.7v3.83h-0.81l-1.09-2.78h-0.01
				c0.08,0.37,0.09,1.03,0.09,1.42v1.36h-0.7v-3.83H31.33z"/>
			<rect x="33.59" y="33.25" class="st2" width="0.75" height="3.83"/>
			<path class="st2" d="M35.63,37.08h-0.75v-3.83h1.56c0.61,0,0.99,0.44,0.99,0.99c0,0.57-0.25,0.86-0.6,0.91
				c0.43,0.08,0.54,0.41,0.54,0.68v0.49c0,0.35,0.01,0.64,0.18,0.64v0.12h-0.75c-0.15-0.12-0.18-0.38-0.18-0.63v-0.44
				c0-0.29-0.1-0.56-0.45-0.56h-0.55V37.08z M35.63,34.91h0.5c0.27,0,0.53-0.13,0.53-0.56c0-0.42-0.21-0.53-0.55-0.53h-0.49V34.91z"
				/>
			<path class="st2" d="M39.54,34.46v-0.04c0-0.47-0.18-0.65-0.47-0.65c-0.21,0-0.4,0.11-0.4,0.32c0,0.23,0.09,0.33,0.25,0.44
				l0.77,0.49c0.42,0.27,0.67,0.5,0.67,1.08c0,0.67-0.43,1.08-1.21,1.08c-0.84,0-1.26-0.47-1.26-1.26v-0.15h0.72v0.15
				c0,0.54,0.26,0.67,0.55,0.67c0.28,0,0.44-0.19,0.44-0.43c0-0.25-0.13-0.4-0.41-0.57l-0.67-0.42c-0.39-0.25-0.59-0.57-0.59-0.99
				c0-0.63,0.48-0.99,1.16-0.99c0.75,0,1.17,0.39,1.17,1.16v0.12H39.54z"/>
		</g>
		<rect x="15.97" y="30.89" class="st1" width="24.48" height="0.39"/>
		<g>
			<path class="st1" d="M18.17,21.01c2.36,0,3.52,1.47,3.52,3.48s-1.16,3.48-3.52,3.48h-2.06v-6.96H18.17z M18.18,21.58h-1.5v5.82
				h1.5c1.97,0,2.95-1.15,2.95-2.91S20.16,21.58,18.18,21.58z"/>
			<path class="st1" d="M24.87,27.97l-2.82-6.96h0.61l2.5,6.29l2.51-6.29h0.61l-2.82,6.96H24.87z"/>
			<path class="st1" d="M33.77,21.01v0.57h-3.87v2.71h3.6v0.57h-3.6v3.11h-0.56v-6.96H33.77z"/>
			<path class="st1" d="M40.39,21.01v4.47c0,1.94-1.24,2.59-2.71,2.59c-1.48,0-2.72-0.66-2.72-2.59v-4.47h0.56v4.45
				c0,1.52,0.92,2.06,2.16,2.06s2.15-0.54,2.15-2.06v-4.45H40.39z"/>
		</g>
	</g>
</g>
</svg>
