<?xml version="1.0" encoding="UTF-8" standalone="no"?><!-- Generator: Gravit.io --><svg xmlns="http://www.w3.org/2000/svg" xmlns:xlink="http://www.w3.org/1999/xlink" style="isolation:isolate" viewBox="0 0 25 25" width="25pt" height="25pt"><defs><clipPath id="_clipPath_x6UhNMh6Qt7nJP2JoNp0JUXw4ZaM0hao"><rect width="25" height="25"/></clipPath></defs><g clip-path="url(#_clipPath_x6UhNMh6Qt7nJP2JoNp0JUXw4ZaM0hao)"><g><path d=" M 12.5 25 L 12.5 25 C 5.598 25 0 19.402 0 12.5 L 0 12.5 C 0 5.598 5.598 0 12.5 0 L 12.5 0 C 19.402 0 25 5.598 25 12.5 L 25 12.5 C 25 19.402 19.402 25 12.5 25 Z " fill="rgb(34,78,117)"/><g><path d=" M 18.905 11.372 C 18.827 11.442 18.738 11.511 18.641 11.586 C 18.051 12.054 17.123 12.426 15.837 12.783 C 13.164 13.526 11.224 13.637 9.014 14.194 C 8.587 14.301 8.137 14.449 7.719 14.631 C 8.137 14.844 8.578 15.044 9.033 15.22 C 9.924 14.955 10.36 14.835 11.655 14.607 C 12.152 14.519 13.67 14.245 14.774 14.004 C 16.766 13.563 19.676 12.616 18.905 11.372 L 18.905 11.372 Z  M 17.624 8.787 C 17.202 8.587 16.673 8.397 16.111 8.244 C 15.861 8.452 15.568 8.633 15.15 8.801 C 15.851 8.931 16.376 9.13 16.965 9.307 L 16.965 9.307 C 17.072 9.358 17.55 8.893 17.624 8.787 L 17.624 8.787 Z  M 7.886 11.535 C 10.481 10.745 13.21 10.504 15.967 9.743 C 14.89 9.441 14.301 9.316 13.159 9.455 C 11.502 9.655 9.683 10.031 8.123 10.509 C 7.515 10.694 4.294 11.637 5.222 12.955 L 5.222 12.955 C 5.222 12.973 5.774 12.175 7.886 11.535 L 7.886 11.535 Z  M 6.095 16.065 C 6.09 16.311 6.234 16.529 6.549 16.794 C 6.591 16.659 6.647 16.566 6.74 16.436 L 6.74 16.436 C 6.522 16.325 6.303 16.195 6.095 16.065 L 6.095 16.065 Z  M 7.315 15.939 C 7.51 15.819 7.742 15.698 8.016 15.591 C 7.645 15.434 7.269 15.262 6.884 15.076 C 6.707 15.188 6.554 15.308 6.429 15.429 L 6.429 15.429 C 6.721 15.605 7.014 15.777 7.315 15.939 L 7.315 15.939 Z  M 17.295 10.235 C 16.77 10.486 16.018 10.745 14.942 11.024 C 14.06 11.251 11.911 11.572 9.599 12.092 C 8.866 12.254 6.884 12.741 5.913 13.595 C 6.183 13.818 6.354 13.879 6.656 14.05 C 7.06 13.786 7.603 13.53 8.42 13.308 C 9.84 12.918 10.894 12.746 12.17 12.542 C 13.438 12.333 15.814 11.818 17.137 11.33 C 17.564 11.168 17.968 10.964 18.265 10.727 C 18.172 10.62 17.323 10.193 17.295 10.235 L 17.295 10.235 Z  M 18.065 9.747 C 18.321 9.877 18.553 9.975 18.78 10.137 C 18.943 9.817 18.845 9.608 18.506 9.311 L 18.506 9.311 C 18.372 9.478 18.223 9.618 18.065 9.747 L 18.065 9.747 Z  M 5.969 14.598 C 5.737 14.463 5.579 14.366 5.384 14.231 C 5.278 14.468 5.473 14.728 5.686 14.849 L 5.686 14.849 C 5.774 14.76 5.876 14.682 5.969 14.598 L 5.969 14.598 Z  M 17.021 7.185 C 16.975 7.366 16.784 7.58 16.654 7.724 C 17.044 7.83 17.439 7.979 17.819 8.128 C 17.773 7.766 17.369 7.417 17.021 7.185 L 17.021 7.185 Z  M 4.804 9.474 C 7.524 7.626 10.532 6.554 15.633 7.464 C 15.916 7.297 16.069 7.134 16.144 6.791 C 14.872 6.317 13.489 6.15 11.706 6.178 C 10.096 6.22 7.209 6.842 5.667 7.779 L 6.136 7.176 C 7.218 6.522 10.031 5.654 12.133 5.612 C 13.619 5.584 14.394 5.667 16.158 6.159 C 16.004 5.848 15.638 5.691 15.104 5.445 C 13.391 4.651 10.198 4.577 7.58 5.765 C 7.909 5.542 8.234 5.333 8.661 5.134 C 9.525 4.725 10.936 4.331 12.7 4.363 C 14.111 4.386 15.786 4.897 16.812 5.951 C 16.984 6.159 17.081 6.382 17.123 6.554 C 17.935 6.981 18.409 7.376 18.673 7.849 C 18.78 8.086 18.827 8.355 18.78 8.647 C 19.119 8.856 19.277 9.033 19.444 9.26 C 19.569 9.455 19.657 9.673 19.681 9.873 C 19.713 10.137 19.741 10.43 19.476 10.778 C 19.76 10.917 19.973 11.316 20.01 11.493 C 20.136 12.124 19.746 12.741 19.221 13.224 C 18.627 13.767 17.309 14.408 16.232 14.691 C 14.097 15.248 12.217 15.48 10.718 15.768 C 11.386 15.93 12.3 16.158 13.795 16.158 C 16.975 16.158 19.787 14.603 19.787 14.603 C 19.787 14.603 19.722 14.807 19.662 14.983 C 17.643 16.25 14.426 16.784 13.057 16.719 C 11.66 16.654 10.49 16.441 9.344 16.074 C 8.991 16.172 8.643 16.288 8.313 16.441 C 10.058 17.262 11.377 17.448 12.871 17.559 C 14.394 17.675 16.914 17.295 19.045 16.496 C 18.947 16.594 18.896 16.756 18.799 16.849 C 17.708 17.439 15.401 18.033 14.245 18.084 C 13.094 18.135 11.688 18.089 10.467 17.847 C 9.413 17.638 8.559 17.29 7.659 16.886 C 7.496 17.007 7.413 17.174 7.385 17.351 C 10.889 19.244 14.171 19.286 17.903 18.084 L 17.559 18.423 C 13.447 20.145 10.235 19.481 7.747 18.237 C 7.668 18.2 7.566 18.158 7.496 18.112 C 7.724 18.53 9.627 19.959 11.748 20.14 C 13.21 20.266 15.002 20.006 16.06 19.565 L 15.438 19.899 C 14.923 20.159 13.563 20.753 11.66 20.623 C 9.126 20.447 7.696 19.286 7.06 18.678 C 6.763 18.395 6.624 18.065 6.531 17.662 C 5.955 17.351 5.598 17.03 5.301 16.548 C 5.124 16.264 5.157 15.949 5.203 15.68 C 5.217 15.596 5.24 15.517 5.268 15.438 C 4.994 15.234 4.716 15.011 4.595 14.793 C 4.345 14.324 4.498 13.925 4.674 13.614 C 4.521 13.438 4.386 13.261 4.321 13.08 C 4.256 12.867 4.242 12.662 4.261 12.435 C 4.307 12.04 4.512 11.683 4.772 11.372 C 5.329 10.713 6.197 10.198 7.691 9.687 C 9.149 9.186 9.738 9.112 10.838 8.847 C 12.124 8.541 13.66 8.443 14.951 7.974 C 11.363 7.32 7.636 7.914 4.6 10.077 L 4.804 9.474 Z " fill-rule="evenodd" fill="rgb(255,255,255)"/></g></g></g></svg>