<?xml version="1.0" encoding="utf-8"?>
<!-- Generator: Adobe Illustrator 19.0.1, SVG Export Plug-In . SVG Version: 6.00 Build 0)  -->
<svg version="1.1" id="Слой_1" xmlns="http://www.w3.org/2000/svg" xmlns:xlink="http://www.w3.org/1999/xlink" x="0px" y="0px"
	 viewBox="0 0 56.69 56.69" style="enable-background:new 0 0 56.69 56.69;" xml:space="preserve">
<style type="text/css">
	.st0{fill:#224E75;}
	.st1{fill-rule:evenodd;clip-rule:evenodd;fill:#FFFFFF;}
</style>
<g>
	<path class="st0" d="M28.35,55.28L28.35,55.28c-14.87,0-26.93-12.06-26.93-26.93v0c0-14.87,12.06-26.93,26.93-26.93h0
		c14.87,0,26.93,12.06,26.93,26.93v0C55.28,43.22,43.22,55.28,28.35,55.28z"/>
	<g>
		<path class="st1" d="M42.15,25.92c-0.17,0.15-0.36,0.3-0.57,0.46c-1.27,1.01-3.27,1.81-6.04,2.58c-5.76,1.6-9.94,1.84-14.7,3.04
			c-0.92,0.23-1.89,0.55-2.79,0.94c0.9,0.46,1.85,0.89,2.83,1.27c1.92-0.57,2.86-0.83,5.65-1.32c1.07-0.19,4.34-0.78,6.72-1.3
			C37.54,30.64,43.81,28.6,42.15,25.92L42.15,25.92z M39.39,20.35c-0.91-0.43-2.05-0.84-3.26-1.17c-0.54,0.45-1.17,0.84-2.07,1.2
			c1.51,0.28,2.64,0.71,3.91,1.09l0,0C38.2,21.58,39.23,20.58,39.39,20.35L39.39,20.35z M18.41,26.27
			c5.59-1.7,11.47-2.22,17.41-3.86c-2.32-0.65-3.59-0.92-6.05-0.62c-3.57,0.43-7.49,1.24-10.85,2.27c-1.31,0.4-8.25,2.43-6.25,5.27
			l0,0C12.67,29.37,13.86,27.65,18.41,26.27L18.41,26.27z M14.55,36.03c-0.01,0.53,0.3,1,0.98,1.57c0.09-0.29,0.21-0.49,0.41-0.77
			l0,0C15.47,36.59,15,36.31,14.55,36.03L14.55,36.03z M17.18,35.76c0.42-0.26,0.92-0.52,1.51-0.75c-0.8-0.34-1.61-0.71-2.44-1.11
			c-0.38,0.24-0.71,0.5-0.98,0.76l0,0C15.9,35.04,16.53,35.41,17.18,35.76L17.18,35.76z M38.68,23.47c-1.13,0.54-2.75,1.1-5.07,1.7
			c-1.9,0.49-6.53,1.18-11.51,2.3c-1.58,0.35-5.85,1.4-7.94,3.24c0.58,0.48,0.95,0.61,1.6,0.98c0.87-0.57,2.04-1.12,3.8-1.6
			c3.06-0.84,5.33-1.21,8.08-1.65c2.73-0.45,7.85-1.56,10.7-2.61c0.92-0.35,1.79-0.79,2.43-1.3C40.57,24.3,38.74,23.38,38.68,23.47
			L38.68,23.47z M40.34,22.42c0.55,0.28,1.05,0.49,1.54,0.84c0.35-0.69,0.14-1.14-0.59-1.78l0,0C41,21.84,40.68,22.14,40.34,22.42
			L40.34,22.42z M14.28,32.87c-0.5-0.29-0.84-0.5-1.26-0.79c-0.23,0.51,0.19,1.07,0.65,1.33l0,0
			C13.86,33.22,14.08,33.05,14.28,32.87L14.28,32.87z M38.09,16.9c-0.1,0.39-0.51,0.85-0.79,1.16c0.84,0.23,1.69,0.55,2.51,0.87
			C39.71,18.15,38.84,17.4,38.09,16.9L38.09,16.9z M11.77,21.83c5.86-3.98,12.34-6.29,23.33-4.33c0.61-0.36,0.94-0.71,1.1-1.45
			c-2.74-1.02-5.72-1.38-9.56-1.32c-3.47,0.09-9.69,1.43-13.01,3.45l1.01-1.3c2.33-1.41,8.39-3.28,12.92-3.37
			c3.2-0.06,4.87,0.12,8.67,1.18c-0.33-0.67-1.12-1.01-2.27-1.54c-3.69-1.71-10.57-1.87-16.21,0.69c0.71-0.48,1.41-0.93,2.33-1.36
			c1.86-0.88,4.9-1.73,8.7-1.66c3.04,0.05,6.65,1.15,8.86,3.42c0.37,0.45,0.58,0.93,0.67,1.3c1.75,0.92,2.77,1.77,3.34,2.79
			c0.23,0.51,0.33,1.09,0.23,1.72c0.73,0.45,1.07,0.83,1.43,1.32c0.27,0.42,0.46,0.89,0.51,1.32c0.07,0.57,0.13,1.2-0.44,1.95
			c0.61,0.3,1.07,1.16,1.15,1.54c0.27,1.36-0.57,2.69-1.7,3.73c-1.28,1.17-4.12,2.55-6.44,3.16c-4.6,1.2-8.65,1.7-11.88,2.32
			c1.44,0.35,3.41,0.84,6.63,0.84c6.85,0,12.91-3.35,12.91-3.35s-0.14,0.44-0.27,0.82c-4.35,2.73-11.28,3.88-14.23,3.74
			c-3.01-0.14-5.53-0.6-8-1.39c-0.76,0.21-1.51,0.46-2.22,0.79c3.76,1.77,6.6,2.17,9.82,2.41c3.28,0.25,8.71-0.57,13.3-2.29
			c-0.21,0.21-0.32,0.56-0.53,0.76c-2.35,1.27-7.32,2.55-9.81,2.66c-2.48,0.11-5.51,0.01-8.14-0.51c-2.27-0.45-4.11-1.2-6.05-2.07
			c-0.35,0.26-0.53,0.62-0.59,1c7.55,4.08,14.62,4.17,22.66,1.58l-0.74,0.73c-8.86,3.71-15.78,2.28-21.14-0.4
			c-0.17-0.08-0.39-0.17-0.54-0.27c0.49,0.9,4.59,3.98,9.16,4.37c3.15,0.27,7.01-0.29,9.29-1.24l-1.34,0.72
			c-1.11,0.56-4.04,1.84-8.14,1.56c-5.46-0.38-8.54-2.88-9.91-4.19c-0.64-0.61-0.94-1.32-1.14-2.19c-1.24-0.67-2.01-1.36-2.65-2.4
			c-0.38-0.61-0.31-1.29-0.21-1.87c0.03-0.18,0.08-0.35,0.14-0.52c-0.59-0.44-1.19-0.92-1.45-1.39c-0.54-1.01-0.21-1.87,0.17-2.54
			c-0.33-0.38-0.62-0.76-0.76-1.15c-0.14-0.46-0.17-0.9-0.13-1.39c0.1-0.85,0.54-1.62,1.1-2.29c1.2-1.42,3.07-2.53,6.29-3.63
			c3.14-1.08,4.41-1.24,6.78-1.81c2.77-0.66,6.08-0.87,8.86-1.88c-7.73-1.41-15.76-0.13-22.3,4.53L11.77,21.83z"/>
	</g>
</g>
</svg>
