<?xml version="1.0" encoding="utf-8"?>
<!-- Generator: Adobe Illustrator 19.0.1, SVG Export Plug-In . SVG Version: 6.00 Build 0)  -->
<svg version="1.1" id="Слой_1" xmlns="http://www.w3.org/2000/svg" xmlns:xlink="http://www.w3.org/1999/xlink" x="0px" y="0px"
	 viewBox="-269 392.2 56.7 56.7" style="enable-background:new -269 392.2 56.7 56.7;" xml:space="preserve">
<style type="text/css">
	.st0{fill:#009C74;}
	.st1{fill:#FFFFFF;}
</style>
<path class="st0" d="M-240.7,447.5L-240.7,447.5c-14.9,0-26.9-12.1-26.9-26.9v0c0-14.9,12.1-26.9,26.9-26.9h0
	c14.9,0,26.9,12.1,26.9,26.9v0C-213.7,435.4-225.8,447.5-240.7,447.5z"/>
<g>
	<path class="st1" d="M-252.6,405.9C-252.7,405.9-252.7,406-252.6,405.9l-0.1,6c0,0,0,0,0.1,0h25c0.1,0,0.1,0,0.1,0v-6
		c0,0,0,0-0.1,0H-252.6z"/>
	<g>
		<path class="st1" d="M-227.6,435.7h-25c-0.8,0-1.4-0.6-1.4-1.4v-28.1c0-0.8,0.6-1.4,1.4-1.4h25c0.8,0,1.4,0.6,1.4,1.4v28.1
			C-226.2,435-226.8,435.7-227.6,435.7z M-252.6,406C-252.7,406-252.7,406.1-252.6,406l-0.1,28.2c0,0.1,0,0.1,0.1,0.1h25
			c0.1,0,0.1,0,0.1-0.1v-28.1c0-0.1,0-0.1-0.1-0.1H-252.6z"/>
		<path class="st1" d="M-227.2,412.2H-253c-0.4,0-0.7-0.3-0.7-0.7c0-0.4,0.3-0.7,0.7-0.7h25.8c0.4,0,0.7,0.3,0.7,0.7
			C-226.5,411.9-226.8,412.2-227.2,412.2z"/>
		<path class="st1" d="M-234,409.2h-2.5c-0.4,0-0.7-0.3-0.7-0.7c0-0.4,0.3-0.7,0.7-0.7h2.5c0.4,0,0.7,0.3,0.7,0.7
			C-233.4,408.9-233.7,409.2-234,409.2z"/>
		<path class="st1" d="M-229.5,409.2h-2.1c-0.4,0-0.7-0.3-0.7-0.7c0-0.4,0.3-0.7,0.7-0.7h2.1c0.4,0,0.7,0.3,0.7,0.7
			C-228.8,408.9-229.1,409.2-229.5,409.2z"/>
		<path class="st1" d="M-240.1,431.6c-4.7,0-8.6-3.9-8.6-8.6c0-4.7,3.9-8.6,8.6-8.6c4.7,0,8.6,3.9,8.6,8.6
			C-231.5,427.8-235.4,431.6-240.1,431.6z M-240.1,415.8c-4,0-7.3,3.3-7.3,7.3c0,4,3.3,7.3,7.3,7.3s7.3-3.3,7.3-7.3
			C-232.9,419-236.1,415.8-240.1,415.8z"/>
		<path class="st1" d="M-236.2,424.9c-0.2,0-0.3,0-0.5,0c-1-0.1-1.7-0.6-2.2-1c-0.5-0.4-0.9-0.7-1.5-0.7c-0.7,0-1.1,0.3-1.7,0.7
			c-0.6,0.4-1.3,0.9-2.4,0.9c-1.3,0.1-2.5-0.5-3.7-1.6c-0.3-0.3-0.3-0.7,0-1c0.3-0.3,0.7-0.3,1,0c0.9,0.9,1.9,1.3,2.7,1.3
			c0.7,0,1.2-0.3,1.7-0.7c0.6-0.4,1.4-0.9,2.5-0.9c1.1,0,1.7,0.5,2.3,0.9c0.5,0.4,0.9,0.7,1.6,0.8c1.1,0.1,2.3-0.4,3.7-1.6
			c0.3-0.2,0.7-0.2,1,0.1c0.2,0.3,0.2,0.7-0.1,1C-233.4,424.2-234.8,424.9-236.2,424.9z"/>
	</g>
	<path class="st0" d="M-240.1,415.8c-4,0-7.3,3.3-7.3,7.3c0,4,3.3,7.3,7.3,7.3s7.3-3.3,7.3-7.3C-232.9,419-236.1,415.8-240.1,415.8z
		"/>
	<path class="st1" d="M-236.2,425.5c-0.2,0-0.3,0-0.5,0c-1-0.1-1.7-0.6-2.2-1c-0.5-0.4-0.9-0.7-1.5-0.7c-0.7,0-1.1,0.3-1.7,0.7
		c-0.6,0.4-1.3,0.9-2.4,0.9c-1.3,0.1-2.5-0.5-3.7-1.6c-0.3-0.3-0.3-0.7,0-1c0.3-0.3,0.7-0.3,1,0c0.9,0.9,1.9,1.3,2.7,1.3
		c0.7,0,1.2-0.3,1.7-0.7c0.6-0.4,1.4-0.9,2.5-0.9c1.1,0,1.7,0.5,2.3,0.9c0.5,0.4,0.9,0.7,1.6,0.8c1.1,0.1,2.3-0.4,3.7-1.6
		c0.3-0.2,0.7-0.2,1,0.1c0.2,0.3,0.2,0.7-0.1,1C-233.4,424.8-234.8,425.5-236.2,425.5z"/>
	<path class="st1" d="M-247.4,425.2c0.1-0.4,0-1.9,0-1.9l2.6,1l4.8-1.5l3.8,2.1l4.6-2.1l-1.3,3.8l-2.4,3.2l-4.2,1.1
		c0,0-4.2-0.7-4.7-0.5c-0.5,0.2-2.6-2.3-2.6-2.3L-247.4,425.2z"/>
	<path class="st0" d="M-234,409.2h-2.5c-0.4,0-0.7-0.3-0.7-0.7c0-0.4,0.3-0.7,0.7-0.7h2.5c0.4,0,0.7,0.3,0.7,0.7
		C-233.4,408.9-233.7,409.2-234,409.2z"/>
	<path class="st0" d="M-229.5,409.2h-2.1c-0.4,0-0.7-0.3-0.7-0.7c0-0.4,0.3-0.7,0.7-0.7h2.1c0.4,0,0.7,0.3,0.7,0.7
		C-228.8,408.9-229.1,409.2-229.5,409.2z"/>
</g>
</svg>
