<?xml version="1.0" encoding="UTF-8" standalone="no"?><!-- Generator: Gravit.io --><svg xmlns="http://www.w3.org/2000/svg" xmlns:xlink="http://www.w3.org/1999/xlink" style="isolation:isolate" viewBox="0 0 25 25" width="25px" height="25px"><defs><clipPath id="_clipPath_nvRcXxVTgVMuuXUY4OpeUf54UrGNyg6g"><rect width="25" height="25"/></clipPath></defs><g clip-path="url(#_clipPath_nvRcXxVTgVMuuXUY4OpeUf54UrGNyg6g)"><g><radialGradient id="_rgradient_10" fx="0.5" fy="0.5" cx="0.5" cy="0.5" r="0.5" gradientTransform="matrix(25,0,0,25,0,0)" gradientUnits="userSpaceOnUse"><stop offset="0%" stop-opacity="1" style="stop-color:rgb(255,255,255)"/><stop offset="95%" stop-opacity="1" style="stop-color:rgb(255,255,255)"/><stop offset="97.91666666666666%" stop-opacity="1" style="stop-color:rgb(120,151,255)"/></radialGradient><circle vector-effect="non-scaling-stroke" cx="12.5" cy="12.5" r="12.5" fill="url(#_rgradient_10)"/><path d=" M 19.989 8.231 C 19.989 8.214 20.001 8.198 20 8.181 L 15.422 12.591 L 19.994 16.861 C 19.997 16.831 19.989 16.8 19.989 16.769 L 19.989 8.231 L 19.989 8.231 Z  M 14.724 13.27 L 12.855 15.068 C 12.76 15.159 12.638 15.205 12.516 15.205 C 12.397 15.205 12.277 15.161 12.183 15.073 L 10.319 13.337 L 5.718 17.772 C 5.829 17.813 5.95 17.844 6.075 17.844 L 18.957 17.844 C 19.144 17.844 19.319 17.787 19.471 17.702 L 14.724 13.27 Z  M 12.511 14.043 L 19.497 7.313 C 19.339 7.219 19.154 7.156 18.957 7.156 L 6.075 7.156 C 5.818 7.156 5.583 7.256 5.399 7.408 L 12.511 14.043 Z  M 5 8.395 L 5 16.769 C 5 16.865 5.022 16.957 5.046 17.046 L 9.591 12.669 L 5 8.395 Z " fill-rule="evenodd" fill="rgb(120,151,255)"/></g></g></svg>
