<?xml version="1.0" encoding="utf-8"?>
<!-- Generator: Adobe Illustrator 19.0.1, SVG Export Plug-In . SVG Version: 6.00 Build 0)  -->
<svg version="1.1" id="Слой_1" xmlns="http://www.w3.org/2000/svg" xmlns:xlink="http://www.w3.org/1999/xlink" x="0px" y="0px"
	 viewBox="-269 392.2 56.7 56.7" style="enable-background:new -269 392.2 56.7 56.7;" xml:space="preserve">
<style type="text/css">
	.st0{fill:#EB666D;}
	.st1{fill:#FFFFFF;stroke:#FFFFFF;stroke-width:1.0962;stroke-miterlimit:10;}
</style>
<path class="st0" d="M-240.9,447.5L-240.9,447.5c-14.9,0-26.9-12.1-26.9-26.9v0c0-14.9,12.1-26.9,26.9-26.9h0
	c14.9,0,26.9,12.1,26.9,26.9v0C-213.9,435.4-226,447.5-240.9,447.5z"/>
<path class="st1" d="M-237.5,434.9h-6.9c-1.1,0-2.1-0.9-2.1-2.1v-6.8h-6.8c-1.1,0-2.1-0.9-2.1-2.1v-6.9c0-1.1,0.9-2.1,2.1-2.1h6.8
	v-6.8c0-1.1,0.9-2.1,2.1-2.1h6.9c1.1,0,2.1,0.9,2.1,2.1v6.8h6.9c1.1,0,2.1,0.9,2.1,2.1v6.9c0,1.1-0.9,2.1-2.1,2.1h-6.9v6.8
	C-235.4,434-236.3,434.9-237.5,434.9z M-253.2,416.3c-0.5,0-0.8,0.4-0.8,0.8v6.9c0,0.5,0.4,0.8,0.8,0.8h8v8.1c0,0.5,0.4,0.8,0.8,0.8
	h6.9c0.5,0,0.8-0.4,0.8-0.8v-8.1h8.1c0.5,0,0.8-0.4,0.8-0.8v-6.9c0-0.5-0.4-0.8-0.8-0.8h-8.1v-8.1c0-0.5-0.4-0.8-0.8-0.8h-6.9
	c-0.5,0-0.8,0.4-0.8,0.8v8.1H-253.2z"/>
</svg>
