<?xml version="1.0" encoding="UTF-8" standalone="no"?><!-- Generator: Gravit.io --><svg xmlns="http://www.w3.org/2000/svg" xmlns:xlink="http://www.w3.org/1999/xlink" style="isolation:isolate" viewBox="0 0 25 25" width="25pt" height="25pt"><defs><clipPath id="_clipPath_7FGC1h49b0apPBrmymU1f3lcNXpB1X22"><rect width="25" height="25"/></clipPath></defs><g clip-path="url(#_clipPath_7FGC1h49b0apPBrmymU1f3lcNXpB1X22)"><g><path d=" M 12.5 25 L 12.5 25 C 5.576 25 0 19.377 0 12.5 L 0 12.5 C 0 5.576 5.623 0 12.5 0 L 12.5 0 C 19.424 0 25 5.623 25 12.5 L 25 12.5 C 25.046 19.424 19.424 25 12.5 25 Z " fill="rgb(0,156,116)"/><g><g><path d=" M 18.412 8.919 C 18.407 8.855 18.353 8.805 18.289 8.805 L 16.072 8.805 L 16.072 8.189 C 16.072 6.219 14.47 4.617 12.5 4.617 C 10.53 4.617 8.928 6.219 8.928 8.189 L 8.928 8.805 L 6.711 8.805 C 6.647 8.805 6.593 8.855 6.588 8.919 L 5.726 20.25 C 5.723 20.285 5.735 20.318 5.758 20.343 C 5.782 20.369 5.815 20.383 5.849 20.383 L 19.151 20.383 C 19.185 20.383 19.218 20.369 19.242 20.344 C 19.265 20.318 19.277 20.285 19.274 20.251 L 18.412 8.919 Z  M 9.913 8.189 C 9.913 6.763 11.074 5.602 12.5 5.602 C 13.926 5.602 15.087 6.763 15.087 8.189 L 15.087 8.805 L 9.913 8.805 L 9.913 8.189 Z  M 9.421 12.254 C 8.741 12.254 8.189 11.701 8.189 11.022 C 8.189 10.53 8.435 10.087 8.928 9.893 L 8.928 11.022 C 8.928 11.294 9.149 11.515 9.421 11.515 C 9.692 11.515 9.913 11.294 9.913 11.022 L 9.913 9.894 C 10.406 10.088 10.652 10.534 10.652 11.022 C 10.652 11.701 10.1 12.254 9.421 12.254 Z  M 15.579 12.254 C 14.9 12.254 14.348 11.701 14.348 11.022 C 14.348 10.53 14.594 10.087 15.087 9.893 L 15.087 11.022 C 15.087 11.294 15.308 11.515 15.579 11.515 C 15.851 11.515 16.072 11.294 16.072 11.022 L 16.072 9.894 C 16.565 10.088 16.811 10.534 16.811 11.022 C 16.811 11.701 16.259 12.254 15.579 12.254 Z " fill="rgb(255,255,255)"/></g></g></g><g><path d=" M 12.5 25 L 12.5 25 C 5.576 25 0 19.377 0 12.5 L 0 12.5 C 0 5.576 5.623 0 12.5 0 L 12.5 0 C 19.424 0 25 5.623 25 12.5 L 25 12.5 C 25.046 19.377 19.424 25 12.5 25 Z " fill="rgb(235,102,109)"/><path d=" M 14.08 19.145 L 10.873 19.145 C 10.362 19.145 9.898 18.727 9.898 18.169 L 9.898 15.009 L 6.738 15.009 C 6.227 15.009 5.762 14.591 5.762 14.033 L 5.762 10.827 C 5.762 10.316 6.18 9.851 6.738 9.851 L 9.898 9.851 L 9.898 6.692 C 9.898 6.18 10.316 5.716 10.873 5.716 L 14.08 5.716 C 14.591 5.716 15.056 6.134 15.056 6.692 L 15.056 9.851 L 18.262 9.851 C 18.773 9.851 19.238 10.27 19.238 10.827 L 19.238 14.033 C 19.238 14.545 18.819 15.009 18.262 15.009 L 15.056 15.009 L 15.056 18.169 C 15.056 18.727 14.637 19.145 14.08 19.145 Z  M 6.784 10.502 C 6.552 10.502 6.413 10.688 6.413 10.874 L 6.413 14.08 C 6.413 14.312 6.598 14.452 6.784 14.452 L 10.502 14.452 L 10.502 18.216 C 10.502 18.448 10.688 18.587 10.873 18.587 L 14.08 18.587 C 14.312 18.587 14.452 18.401 14.452 18.216 L 14.452 14.452 L 18.215 14.452 C 18.448 14.452 18.587 14.266 18.587 14.08 L 18.587 10.874 C 18.587 10.641 18.401 10.502 18.215 10.502 L 14.452 10.502 L 14.452 6.738 C 14.452 6.506 14.266 6.366 14.08 6.366 L 10.873 6.366 C 10.641 6.366 10.502 6.552 10.502 6.738 L 10.502 10.502 L 6.784 10.502 Z " fill="rgb(255,255,255)" vector-effect="non-scaling-stroke" stroke-width="0.509" stroke="rgb(255,255,255)" stroke-linejoin="miter" stroke-linecap="butt" stroke-miterlimit="10"/><path d=" M 6 11.5 L 6 10 L 10.5 10 L 10.5 6 L 13.5 6 L 13.5 6 L 15 6 L 15 10 L 19 10 L 19 13 L 19 13 L 19 14.5 L 15 14.5 L 15 19 L 12 19 L 12 19 L 10.5 19 L 10.5 14.5 L 6 14.5 L 6 11.5 L 6 11.5 Z " fill-rule="evenodd" fill="rgb(255,255,255)"/></g></g></svg>