<?xml version="1.0" encoding="UTF-8" standalone="no"?><!-- Generator: Gravit.io --><svg xmlns="http://www.w3.org/2000/svg" xmlns:xlink="http://www.w3.org/1999/xlink" style="isolation:isolate" viewBox="0 0 25 25" width="25px" height="25px"><defs><clipPath id="_clipPath_uv1jlFZK86kfxssNCVzbZPwF05Cxter4"><rect width="25" height="25"/></clipPath></defs><g clip-path="url(#_clipPath_uv1jlFZK86kfxssNCVzbZPwF05Cxter4)"><g><radialGradient id="_rgradient_12" fx="0.5" fy="0.5" cx="0.5" cy="0.5" r="0.5" gradientTransform="matrix(25,0,0,25,0,0)" gradientUnits="userSpaceOnUse"><stop offset="0%" stop-opacity="1" style="stop-color:rgb(255,255,255)"/><stop offset="95%" stop-opacity="1" style="stop-color:rgb(255,255,255)"/><stop offset="99.16666666666667%" stop-opacity="1" style="stop-color:rgb(244,77,77)"/></radialGradient><circle vector-effect="non-scaling-stroke" cx="12.5" cy="12.5" r="12.5" fill="url(#_rgradient_12)"/><path d=" M 18.84 6.15 C 17.296 4.606 14.784 4.606 13.24 6.15 L 9.975 9.415 L 13.682 13.121 C 14.064 12.804 14.496 12.545 14.967 12.367 C 15.437 12.188 15.946 12.088 16.48 12.088 C 17.093 12.088 17.676 12.216 18.206 12.443 L 18.84 11.75 C 20.384 10.206 20.384 7.694 18.84 6.15 Z  M 13.065 13.749 L 9.353 10.037 L 6.158 13.235 C 4.614 14.779 4.614 17.291 6.158 18.835 C 7.702 20.379 10.243 20.408 11.787 18.865 L 12.435 18.214 C 12.208 17.683 12.081 17.101 12.081 16.488 C 12.081 15.447 12.459 14.503 13.065 13.749 Z  M 12.961 16.488 C 12.961 18.281 14.306 19.745 16.04 19.963 L 16.04 13.013 C 14.306 13.231 12.961 14.695 12.961 16.488 Z  M 16.92 13.013 L 16.92 19.963 C 18.654 19.745 20 18.281 20 16.488 C 20 14.695 18.654 13.231 16.92 13.013 Z " fill-rule="evenodd" fill="rgb(244,77,77)"/></g></g></svg>
