<?xml version="1.0" encoding="UTF-8" standalone="no"?><!-- Generator: Gravit.io --><svg xmlns="http://www.w3.org/2000/svg" xmlns:xlink="http://www.w3.org/1999/xlink" style="isolation:isolate" viewBox="0 0 25 25" width="25px" height="25px"><defs><clipPath id="_clipPath_XDP1bDnOeMVmCzIMb9DyxNUwYH0YdsoU"><rect width="25" height="25"/></clipPath></defs><g clip-path="url(#_clipPath_XDP1bDnOeMVmCzIMb9DyxNUwYH0YdsoU)"><g><radialGradient id="_rgradient_19" fx="0.5" fy="0.5" cx="0.5" cy="0.5" r="0.5" gradientTransform="matrix(25,0,0,25,0,0)" gradientUnits="userSpaceOnUse"><stop offset="0%" stop-opacity="1" style="stop-color:rgb(255,255,255)"/><stop offset="95%" stop-opacity="1" style="stop-color:rgb(255,255,255)"/><stop offset="98.33333333333333%" stop-opacity="1" style="stop-color:rgb(121,97,97)"/></radialGradient><circle vector-effect="non-scaling-stroke" cx="12.5" cy="12.5" r="12.5" fill="url(#_rgradient_19)"/><path d=" M 17.387 7.891 L 17.387 7.187 C 17.387 5.973 16.4 4.985 15.186 4.985 L 9.785 4.985 C 8.571 4.985 7.583 5.973 7.583 7.187 L 7.583 7.891 L 17.387 7.891 Z  M 8.464 14.349 L 8.464 17.931 L 8.464 18.694 L 8.464 19.134 C 8.464 19.62 8.858 20.015 9.344 20.015 L 15.626 20.015 C 16.113 20.015 16.507 19.62 16.507 19.134 L 16.507 18.694 L 16.507 17.931 L 16.507 14.349 L 8.464 14.349 Z  M 13.659 18.107 L 11.311 18.107 C 11.068 18.107 10.871 17.91 10.871 17.666 C 10.871 17.423 11.068 17.226 11.311 17.226 L 13.659 17.226 C 13.903 17.226 14.1 17.423 14.1 17.666 C 14.1 17.91 13.903 18.107 13.659 18.107 Z  M 13.659 16.228 L 11.311 16.228 C 11.068 16.228 10.871 16.031 10.871 15.788 C 10.871 15.545 11.068 15.347 11.311 15.347 L 13.659 15.347 C 13.903 15.347 14.1 15.545 14.1 15.788 C 14.1 16.031 13.903 16.228 13.659 16.228 Z  M 17.798 8.772 L 7.202 8.772 C 5.988 8.772 5 9.76 5 10.974 L 5 14.496 C 5 15.71 5.988 16.698 7.202 16.698 L 7.583 16.698 L 7.583 14.349 L 7.319 14.349 C 7.076 14.349 6.879 14.152 6.879 13.909 C 6.879 13.666 7.076 13.469 7.319 13.469 L 8.023 13.469 L 16.947 13.469 L 17.652 13.469 C 17.895 13.469 18.092 13.666 18.092 13.909 C 18.092 14.152 17.895 14.349 17.652 14.349 L 17.387 14.349 L 17.387 16.698 L 17.798 16.698 C 19.012 16.698 20 15.71 20 14.496 L 20 10.974 C 20 9.76 19.012 8.772 17.798 8.772 Z  M 8.728 11.531 L 7.319 11.531 C 7.076 11.531 6.879 11.334 6.879 11.091 C 6.879 10.848 7.076 10.651 7.319 10.651 L 8.728 10.651 C 8.971 10.651 9.168 10.848 9.168 11.091 C 9.168 11.334 8.971 11.531 8.728 11.531 Z " fill-rule="evenodd" fill="rgb(121,97,97)"/></g></g></svg>
