<?xml version="1.0" encoding="UTF-8" standalone="no"?><!-- Generator: Gravit.io --><svg xmlns="http://www.w3.org/2000/svg" xmlns:xlink="http://www.w3.org/1999/xlink" style="isolation:isolate" viewBox="0 0 25 25" width="25pt" height="25pt"><defs><clipPath id="_clipPath_dWJO09R4GlVIkIFPfE7sscLaJ4wngOV9"><rect width="25" height="25"/></clipPath></defs><g clip-path="url(#_clipPath_dWJO09R4GlVIkIFPfE7sscLaJ4wngOV9)"><g><path d=" M 12.5 25 L 12.5 25 C 5.598 25 0 19.402 0 12.5 L 0 12.5 C 0 5.598 5.598 0 12.5 0 L 12.5 0 C 19.402 0 25 5.598 25 12.5 L 25 12.5 C 25 19.402 19.402 25 12.5 25 Z " fill="rgb(69,137,38)"/><path d=" M 19.89 12.203 C 19.89 16.399 16.487 19.797 12.296 19.797 C 8.1 19.797 4.702 16.394 4.702 12.203 C 4.702 12.031 4.707 11.864 4.721 11.697 L 9.32 14.343 L 19.059 8.74 C 19.588 9.775 19.89 10.954 19.89 12.203 Z  M 9.316 12.43 L 5.036 9.97 C 4.953 10.244 4.883 10.523 4.832 10.806 L 9.32 13.387 L 18.641 8.025 C 18.488 7.793 18.321 7.571 18.144 7.357 L 9.316 12.43 Z  M 17.559 6.73 C 17.351 6.526 17.128 6.336 16.891 6.159 L 9.311 10.518 L 5.691 8.439 C 5.556 8.68 5.431 8.926 5.319 9.181 L 9.311 11.474 L 17.559 6.73 Z  M 9.316 9.562 L 16.13 5.644 C 15.847 5.477 15.55 5.329 15.243 5.199 L 9.316 8.606 L 6.675 7.092 C 6.484 7.301 6.308 7.515 6.146 7.742 L 9.316 9.562 Z " fill="rgb(255,255,255)"/></g></g></svg>