<?xml version="1.0" encoding="iso-8859-1"?>
<!-- Generator: Adobe Illustrator 19.0.0, SVG Export Plug-In . SVG Version: 6.00 Build 0)  -->
<svg version="1.1" id="Capa_1" xmlns="http://www.w3.org/2000/svg" xmlns:xlink="http://www.w3.org/1999/xlink" x="0px" y="0px"
	 viewBox="0 0 436.907 436.907" style="enable-background:new 0 0 436.907 436.907;" xml:space="preserve">
<circle style="fill:#E05B49;" cx="218.453" cy="218.453" r="218.453"/>
<path style="opacity:0.1;enable-background:new    ;" d="M310.736,97.46l-0.052-0.052l-0.006,0.004
	c-10.159-9.321-26.112-9.961-46.629-8.256h-83.251c-12.015-1.126-22.323-1.126-31.096,0.205c-3.174,0.341-6.246,1.058-9.148,2.048
	c-23.347,7.202-31.846,27.477-27.477,65.502v14.404h-12.186c-5.769,0-10.445,4.676-10.445,10.479v37.581
	c0,2.78,1.104,5.299,2.875,7.179l-0.021,0.007l0.152,0.152c0.04,0.041,0.08,0.08,0.12,0.12l19.504,19.504v76.291l9.967,9.967v4.028
	c0,2.929,1.094,5.58,2.845,7.66l-0.033,0.036l0.355,0.355c0.232,0.253,0.471,0.491,0.723,0.723l91.509,91.509
	c0.003,0,0.007,0,0.01,0c118.955,0,215.633-95.096,218.326-213.403L311.228,97.952C311.062,97.791,310.905,97.616,310.736,97.46z"/>
<g>
	<path style="fill:#64798A;" d="M162.953,348.575h-27.972c-6.598,0-11.947-5.349-11.947-11.947v-22.63H174.9v22.63
		C174.9,343.227,169.551,348.575,162.953,348.575z"/>
	<path style="fill:#64798A;" d="M296.968,348.575h-27.972c-6.598,0-11.947-5.349-11.947-11.947v-22.63h51.865v22.63
		C308.915,343.227,303.566,348.575,296.968,348.575z"/>
</g>
<path style="fill:#44C4A1;" d="M115.056,229.84h-14.149c-5.773,0-10.453-4.68-10.453-10.453v-37.608
	c0-5.773,4.68-10.453,10.453-10.453h14.149V229.84z"/>
<g>
	<path style="fill:#3EA69B;" d="M321.851,229.84H336c5.773,0,10.453-4.68,10.453-10.453v-37.608c0-5.773-4.68-10.453-10.453-10.453
		h-14.149V229.84z"/>
	<path style="fill:#3EA69B;" d="M321.851,322.643h-208.79V129.937c0-22.519,18.256-40.775,40.775-40.775h133.213
		c19.221,0,34.802,15.581,34.802,34.802V322.643z"/>
</g>
<path style="fill:#44C4A1;" d="M113.061,322.643V156.896c-6.279-54.918,14.201-72.838,67.734-67.734h83.245
	c30.476-2.544,50.956,0,57.231,28.552L113.061,322.643z"/>
<rect x="169.581" y="111.193" style="fill:#D5D6DB;" width="103.049" height="20.617"/>
<rect x="219.785" y="111.193" style="fill:#E1E6E9;" width="52.862" height="20.617"/>
<g>
	<circle style="fill:#FCD462;" cx="141.687" cy="284.092" r="18.64"/>
	<circle style="fill:#FCD462;" cx="291.294" cy="284.092" r="18.64"/>
</g>
<rect x="168.687" y="277.606" style="fill:#3A556A;" width="97.553" height="17.009"/>
<rect x="137.489" y="159.061" style="fill:#F6C358;" width="161.178" height="83.118"/>
<rect x="219.785" y="159.061" style="fill:#FCD462;" width="78.882" height="83.118"/>
<g>
</g>
<g>
</g>
<g>
</g>
<g>
</g>
<g>
</g>
<g>
</g>
<g>
</g>
<g>
</g>
<g>
</g>
<g>
</g>
<g>
</g>
<g>
</g>
<g>
</g>
<g>
</g>
<g>
</g>
</svg>
